SplineFontDB: 3.0
FontName: AbhayaLibre-Regular
FullName: AbhayaLibre
FamilyName: AbhayaLibre
OS2FamilyName: "AbhayaLibre"
OS2StyleName: "regular"
Weight: Regular
Copyright: Copyright (c) 1997-2015 Pushpananda Ekanayake (http://isiwara.lk), Copyright (c) 2015 mooniak (http://mooniak.com)\n
UComments: "2015-2-15: Created with FontForge (http://fontforge.org) The  Free Font Editor"
Version: 1.0
ItalicAngle: 0
UnderlinePosition: -102
UnderlineWidth: 51
Ascent: 819
Descent: 205
InvalidEm: 0
UFOAscent: 819
UFODescent: -205
LayerCount: 2
Layer: 0 0 "Back" 1
Layer: 1 0 "Fore" 0
FSType: 0
OS2Version: 0
OS2_WeightWidthSlopeOnly: 0
OS2_UseTypoMetrics: 0
CreationTime: 1440051439
ModificationTime: 1441128656
PfmFamily: 16
TTFWeight: 400
TTFWidth: 5
LineGap: 94
VLineGap: 0
OS2TypoAscent: 819
OS2TypoAOffset: 0
OS2TypoDescent: -205
OS2TypoDOffset: 0
OS2TypoLinegap: 94
OS2WinAscent: 918
OS2WinAOffset: 0
OS2WinDescent: 205
OS2WinDOffset: 0
HheadAscent: 918
HheadAOffset: 0
HheadDescent: -205
HheadDOffset: 0
OS2CapHeight: 0
OS2XHeight: 0
OS2Vendor: 'PfEd'
OS2UnicodeRanges: 00000002.00000000.00000000.00000000
Lookup: 1 0 0 "Abhaya Libre Latin-Regular-'sups' Superscript lookup 0" { "Abhaya Libre Latin-Regular-'sups' Superscript lookup 0 subtable"  } ['sups' ('DFLT' <'dflt' > ) ]
Lookup: 4 0 0 "Abhaya Libre Latin-Regular-'frac' Diagonal Fractions lookup 1" { "Abhaya Libre Latin-Regular-'frac' Diagonal Fractions lookup 1 subtable"  } ['frac' ('DFLT' <'dflt' > ) ]
Lookup: 6 0 0 "Abhaya Libre Latin-Regular-'ordn' Ordinals lookup 2" { "Abhaya Libre Latin-Regular-'ordn' Ordinals lookup 2 contextual 0"  "Abhaya Libre Latin-Regular-'ordn' Ordinals lookup 2 contextual 1"  } ['ordn' ('DFLT' <'dflt' > ) ]
Lookup: 1 0 0 "Abhaya Libre Latin-Regular-Single Substitution lookup 3" { "Abhaya Libre Latin-Regular-Single Substitution lookup 3 subtable"  } []
Lookup: 1 0 0 "Abhaya Libre Latin-Regular-Single Substitution lookup 4" { "Abhaya Libre Latin-Regular-Single Substitution lookup 4 subtable"  } []

StartChar: si_NdAa.halant
Encoding: 293 -1 0
GlifName: N_ameM_e.544
Width: 657
VWidth: 0
Flags: HW
LayerCount: 2
Back
Fore
SplineSet
115 169 m 256
 115 274 188 317 307 317 c 258
 427 317 l 257
 417 363 388 396 344 396 c 256
 325 396 310 384 301 366 c 256
 291 344 274 336 259 336 c 256
 234 336 221 351 221 372 c 256
 221 408 261 433 316 433 c 256
 402 433 445 389 463 294 c 257
 326 294 l 258
 238 294 192 257 192 173 c 256
 192 89 257 26 342 26 c 256
 392 26 434 46 474 92 c 257
 497 75 l 257
 477 58 460 41 445 33 c 257
 448 34 446 34 450 34 c 256
 498 34 531 -18 531 -87 c 256
 531 -175 491 -212 432 -212 c 256
 383 -212 367 -187 367 -166 c 257
 394 -166 l 257
 394 -176 403 -187 422 -187 c 256
 464 -187 475 -148 475 -87 c 256
 475 -42 460 0 429 0 c 256
 400 0 388 -29 388 -45 c 257
 362 -45 l 257
 362 -29 370 -6 383 4 c 257
 355 -1 339 -1 318 -1 c 256
 187 -1 115 69 115 169 c 256
504 -53 m 257
 504 680 l 257
 558 638 654 633 654 541 c 256
 654 497 619 467 576 467 c 256
 561 467 545 470 530 477 c 257
 530 -101 l 257
 504 -53 l 257
530 502 m 261
 539 497 551 495 564 495 c 256
 602 495 616 520 616 544 c 256
 616 586 577 606 530 637 c 257
 530 502 l 261
27 221 m 256
 27 337 98 436 266 436 c 256
 292 436 321 436 354 430 c 257
 333 419 265 412 256 407 c 257
 172 407 56 372 56 218 c 256
 56 134 86 73 135 30 c 257
 135 0 l 257
 69 33 27 120 27 221 c 256
EndSplineSet
EndChar

StartChar: si_JnyAe
Encoding: 184 -1 1
GlifName: N_ameM_e.559
Width: 839
VWidth: 0
Flags: HW
LayerCount: 2
Back
Fore
SplineSet
421 169 m 260
 421 274 494 317 613 317 c 258
 733 317 l 257
 723 363 694 396 650 396 c 256
 631 396 615 384 606 366 c 256
 596 344 580 336 565 336 c 256
 540 336 527 351 527 372 c 256
 527 408 567 433 622 433 c 256
 708 433 751 389 769 294 c 257
 632 294 l 258
 544 294 498 257 498 173 c 256
 498 89 564 26 649 26 c 256
 699 26 734 46 774 92 c 257
 797 75 l 257
 770 45 760 6 760 -59 c 256
 760 -127 787 -204 822 -204 c 257
 822 -228 l 257
 819 -229 815 -230 811 -230 c 256
 755 -230 712 -177 712 -104 c 256
 712 -49 736 6 746 31 c 257
 681 -9 635 -51 635 -116 c 256
 635 -175 670 -200 705 -206 c 257
 705 -228 l 257
 701 -229 691 -230 686 -230 c 256
 624 -230 576 -198 576 -132 c 256
 576 -79 615 -41 662 1 c 257
 649 -1 635 -1 629 -1 c 256
 491 -1 421 69 421 169 c 260
674 426 m 257
 553 409 l 257
 547 409 544 410 538 410 c 256
 431 410 369 340 347 236 c 257
 355 240 363 241 370 241 c 256
 418 241 452 202 452 136 c 256
 452 56 395 -2 308 -2 c 256
 197 -2 134 96 134 207 c 256
 134 330 209 432 320 432 c 256
 324 432 329 431 333 431 c 257
 333 408 l 257
 330 408 325 408 322 408 c 256
 236 408 169 332 169 230 c 256
 169 147 217 71 306 71 c 256
 365 71 418 99 418 158 c 256
 418 196 398 217 367 217 c 256
 360 217 349 214 344 210 c 257
 343 204 342 195 342 192 c 257
 315 192 l 257
 329 352 406 438 560 438 c 256
 591 438 641 436 674 426 c 257
324 432 m 257
 320 432 231 406 231 406 c 257
 97 406 56 312 56 218 c 256
 56 137 83 75 135 30 c 257
 135 0 l 257
 69 33 27 120 27 221 c 256
 27 353 100 433 239 433 c 256
 248 433 301 434 324 432 c 257
EndSplineSet
EndChar

StartChar: si_JnyAee
Encoding: 185 -1 2
GlifName: N_ameM_e.560
Width: 839
VWidth: 0
Flags: HW
LayerCount: 2
Back
Fore
SplineSet
421 169 m 256
 421 274 494 317 613 317 c 258
 733 317 l 257
 723 363 694 396 650 396 c 256
 631 396 616 384 607 366 c 256
 597 344 580 336 565 336 c 256
 540 336 527 351 527 372 c 256
 527 408 567 433 622 433 c 256
 708 433 751 389 769 294 c 257
 632 294 l 258
 544 294 498 257 498 173 c 256
 498 89 565 26 650 26 c 256
 700 26 734 46 774 92 c 257
 793 76 l 257
 793 69 744 28 744 28 c 257
 816 28 l 257
 816 5 l 257
 752 -36 l 257
 814 -36 l 257
 814 -58 l 257
 792 -66 768 -92 768 -136 c 256
 768 -176 787 -204 822 -204 c 257
 822 -228 l 257
 819 -229 815 -230 811 -230 c 256
 755 -230 714 -187 714 -142 c 256
 714 -103 739 -74 770 -60 c 257
 702 -60 l 257
 702 -40 l 257
 725 -26 750 -10 774 4 c 257
 772 4 704 4 704 4 c 257
 685 -12 635 -51 635 -116 c 256
 635 -175 670 -200 705 -206 c 257
 705 -228 l 257
 701 -229 691 -230 686 -230 c 256
 624 -230 576 -198 576 -132 c 256
 576 -79 615 -41 662 1 c 257
 649 -1 636 -1 630 -1 c 256
 492 -1 421 69 421 169 c 256
674 426 m 257
 553 409 l 257
 547 409 544 410 538 410 c 256
 431 410 369 340 347 236 c 257
 355 240 363 241 370 241 c 256
 418 241 452 202 452 136 c 256
 452 56 395 -2 308 -2 c 256
 197 -2 134 96 134 207 c 256
 134 330 209 432 320 432 c 256
 324 432 329 431 333 431 c 257
 333 408 l 257
 330 408 325 408 322 408 c 256
 236 408 169 332 169 230 c 256
 169 147 217 71 306 71 c 256
 365 71 418 99 418 158 c 256
 418 196 398 217 367 217 c 256
 360 217 349 214 344 210 c 257
 343 204 342 195 342 192 c 257
 315 192 l 257
 329 352 406 438 560 438 c 256
 591 438 641 436 674 426 c 257
324 432 m 257
 320 432 231 406 231 406 c 257
 97 406 56 312 56 218 c 256
 56 137 83 75 135 30 c 257
 135 0 l 257
 69 33 27 120 27 221 c 256
 27 353 100 433 239 433 c 256
 248 433 301 434 324 432 c 257
EndSplineSet
EndChar

StartChar: si_NyAa.halant
Encoding: 174 -1 3
GlifName: N_ameM_e.562
Width: 1151
VWidth: 0
Flags: HW
LayerCount: 2
Back
Fore
SplineSet
603 169 m 256
 603 274 676 317 795 317 c 258
 915 317 l 257
 905 363 853 396 809 396 c 256
 790 396 775 384 766 366 c 256
 756 344 739 336 724 336 c 256
 699 336 686 351 686 372 c 256
 686 408 726 433 781 433 c 256
 867 433 933 389 951 294 c 257
 814 294 l 258
 726 294 680 257 680 173 c 256
 680 89 745 26 830 26 c 256
 880 26 922 46 962 92 c 257
 984 75 l 257
 964 58 948 41 933 33 c 257
 936 34 934 34 938 34 c 256
 986 34 1019 -18 1019 -87 c 256
 1019 -175 979 -212 920 -212 c 256
 871 -212 854 -187 854 -166 c 257
 882 -166 l 257
 882 -176 891 -187 910 -187 c 256
 952 -187 962 -148 962 -87 c 256
 962 -42 948 0 917 0 c 256
 888 0 876 -29 876 -45 c 257
 849 -45 l 257
 849 -29 858 -6 871 4 c 257
 843 -1 827 -1 806 -1 c 256
 675 -1 603 69 603 169 c 256
991 -53 m 257
 991 680 l 257
 1045 638 1141 633 1141 541 c 256
 1141 497 1106 467 1063 467 c 256
 1048 467 1033 470 1018 477 c 257
 1018 -101 l 257
 991 -53 l 257
1018 502 m 261
 1027 497 1038 495 1051 495 c 256
 1089 495 1104 520 1104 544 c 256
 1104 586 1065 606 1018 637 c 257
 1018 502 l 261
146 22 m 257
 154 91 199 184 234 232 c 256
 260 268 275 282 293 301 c 257
 305 314 318 330 318 352 c 256
 318 374 308 392 283 392 c 256
 269 392 247 384 241 363 c 256
 234 340 238 340 231 323 c 256
 224 305 209 297 194 297 c 256
 160 297 154 328 154 340 c 256
 154 394 204 433 261 433 c 256
 311 433 345 402 345 356 c 256
 345 351 345 346 344 341 c 257
 372 362 409 388 480 412 c 256
 551 436 608 442 689 442 c 256
 716 442 784 439 828 427 c 257
 725 414 l 257
 714 415 693 415 683 415 c 256
 634 415 596 411 564 405 c 256
 481 390 419 365 344 308 c 257
 368 314 400 316 427 316 c 256
 547 316 640 251 640 126 c 256
 640 68 607 -1 522 -1 c 256
 476 -1 442 20 421 63 c 257
 404 22 371 -1 329 -1 c 256
 242 -1 245 73 212 73 c 256
 190 73 175 51 172 11 c 257
 146 22 l 257
307 273 m 257
 290 258 270 235 254 212 c 256
 225 171 206 132 195 95 c 257
 201 98 207 100 214 100 c 256
 243 100 267 71 324 71 c 256
 375 71 406 102 406 162 c 256
 406 164 406 161 406 163 c 257
 432 163 l 257
 432 162 432 163 432 162 c 256
 432 97 459 71 517 71 c 256
 579 71 599 123 599 159 c 256
 599 242 526 291 423 291 c 256
 366 291 328 282 307 273 c 257
27 221 m 256
 27 353 100 434 239 434 c 256
 248 434 271 434 293 428 c 257
 272 417 194 406 177 400 c 257
 102 382 56 319 56 218 c 256
 56 137 83 75 135 30 c 257
 135 0 l 257
 69 33 27 120 27 221 c 256
EndSplineSet
EndChar

StartChar: si_NyAe
Encoding: 172 -1 4
GlifName: N_ameM_e.563
Width: 1018
VWidth: 0
Flags: HW
LayerCount: 2
Back
Fore
SplineSet
603 169 m 260
 603 274 676 317 795 317 c 258
 915 317 l 257
 905 363 854 396 810 396 c 256
 791 396 775 384 766 366 c 256
 756 344 739 336 724 336 c 256
 699 336 686 351 686 372 c 256
 686 408 727 433 782 433 c 256
 868 433 933 389 951 294 c 257
 814 294 l 258
 726 294 680 257 680 173 c 256
 680 89 746 26 831 26 c 256
 881 26 916 46 956 92 c 257
 979 75 l 257
 952 45 942 6 942 -59 c 256
 942 -127 969 -204 1004 -204 c 257
 1004 -228 l 257
 1001 -229 997 -230 993 -230 c 256
 937 -230 894 -177 894 -104 c 256
 894 -49 918 6 928 31 c 257
 863 -9 817 -51 817 -116 c 256
 817 -175 852 -200 887 -206 c 257
 887 -228 l 257
 883 -229 873 -230 868 -230 c 256
 806 -230 758 -198 758 -132 c 256
 758 -79 797 -41 844 1 c 257
 831 -1 817 -1 811 -1 c 256
 673 -1 603 69 603 169 c 260
307 273 m 257
 290 258 270 235 254 212 c 256
 225 171 206 132 195 95 c 257
 201 98 207 100 214 100 c 256
 243 100 267 71 324 71 c 256
 375 71 406 102 406 162 c 256
 406 164 406 161 406 163 c 257
 432 163 l 257
 432 162 432 163 432 162 c 256
 432 97 459 71 517 71 c 256
 579 71 599 123 599 159 c 256
 599 242 526 291 423 291 c 256
 366 291 328 282 307 273 c 257
146 22 m 257
 154 91 199 184 234 232 c 256
 260 268 275 282 293 301 c 257
 305 314 318 330 318 352 c 256
 318 374 308 392 283 392 c 256
 269 392 247 384 241 363 c 256
 234 340 238 340 231 323 c 256
 224 305 209 297 194 297 c 256
 160 297 154 328 154 340 c 256
 154 394 204 433 261 433 c 256
 311 433 345 402 345 356 c 256
 345 351 345 346 344 341 c 257
 372 362 409 388 480 412 c 256
 551 436 608 442 689 442 c 256
 716 442 784 439 828 427 c 257
 725 414 l 257
 714 415 693 415 683 415 c 256
 634 415 596 411 564 405 c 256
 481 390 419 365 344 308 c 257
 368 314 400 316 427 316 c 256
 547 316 640 251 640 126 c 256
 640 68 607 -1 522 -1 c 256
 476 -1 442 20 421 63 c 257
 404 22 371 -1 329 -1 c 256
 242 -1 245 73 212 73 c 256
 190 73 175 51 172 11 c 257
 146 22 l 257
27 221 m 256
 27 353 100 434 239 434 c 256
 248 434 271 434 293 428 c 257
 272 417 194 406 177 400 c 257
 102 382 56 319 56 218 c 256
 56 137 83 75 135 30 c 257
 135 0 l 257
 69 33 27 120 27 221 c 256
EndSplineSet
EndChar

StartChar: si_NyAee
Encoding: 173 -1 5
GlifName: N_ameM_e.564
Width: 1018
VWidth: 0
Flags: HW
LayerCount: 2
Back
Fore
SplineSet
603 169 m 260
 603 274 676 317 795 317 c 258
 915 317 l 257
 905 363 854 396 810 396 c 256
 791 396 775 384 766 366 c 256
 756 344 739 336 724 336 c 256
 699 336 686 351 686 372 c 256
 686 408 727 433 782 433 c 256
 868 433 933 389 951 294 c 257
 814 294 l 258
 726 294 680 257 680 173 c 256
 680 89 746 26 831 26 c 256
 881 26 916 46 956 92 c 257
 975 76 l 257
 975 69 926 28 926 28 c 257
 998 28 l 257
 998 5 l 257
 934 -36 l 257
 996 -36 l 257
 996 -58 l 257
 974 -66 950 -92 950 -136 c 256
 950 -176 969 -204 1004 -204 c 257
 1004 -228 l 257
 1001 -229 997 -230 993 -230 c 256
 937 -230 895 -187 895 -142 c 256
 895 -103 921 -74 952 -60 c 257
 884 -60 l 257
 884 -40 l 257
 907 -26 931 -10 955 4 c 257
 953 4 886 4 886 4 c 257
 867 -12 817 -51 817 -116 c 256
 817 -175 852 -200 887 -206 c 257
 887 -228 l 257
 883 -229 873 -230 868 -230 c 256
 806 -230 758 -198 758 -132 c 256
 758 -79 797 -41 844 1 c 257
 831 -1 817 -1 811 -1 c 256
 673 -1 603 69 603 169 c 260
307 273 m 257
 290 258 270 235 254 212 c 256
 225 171 206 132 195 95 c 257
 201 98 207 100 214 100 c 256
 243 100 267 71 324 71 c 256
 375 71 406 102 406 162 c 256
 406 164 406 161 406 163 c 257
 432 163 l 257
 432 162 432 163 432 162 c 256
 432 97 459 71 517 71 c 256
 579 71 599 123 599 159 c 256
 599 242 526 291 423 291 c 256
 366 291 328 282 307 273 c 257
146 22 m 257
 154 91 199 184 234 232 c 256
 260 268 275 282 293 301 c 257
 305 314 318 330 318 352 c 256
 318 374 308 392 283 392 c 256
 269 392 247 384 241 363 c 256
 234 340 238 340 231 323 c 256
 224 305 209 297 194 297 c 256
 160 297 154 328 154 340 c 256
 154 394 204 433 261 433 c 256
 311 433 345 402 345 356 c 256
 345 351 345 346 344 341 c 257
 372 362 409 388 480 412 c 256
 551 436 608 442 689 442 c 256
 716 442 784 439 828 427 c 257
 725 414 l 257
 714 415 693 415 683 415 c 256
 634 415 596 411 564 405 c 256
 481 390 419 365 344 308 c 257
 368 314 400 316 427 316 c 256
 547 316 640 251 640 126 c 256
 640 68 607 -1 522 -1 c 256
 476 -1 442 20 421 63 c 257
 404 22 371 -1 329 -1 c 256
 242 -1 245 73 212 73 c 256
 190 73 175 51 172 11 c 257
 146 22 l 257
27 221 m 256
 27 353 100 434 239 434 c 256
 248 434 271 434 293 428 c 257
 272 417 194 406 177 400 c 257
 102 382 56 319 56 218 c 256
 56 137 83 75 135 30 c 257
 135 0 l 257
 69 33 27 120 27 221 c 256
EndSplineSet
EndChar

StartChar: zwj
Encoding: 83 8205 6
GlifName: zwj
Width: 0
VWidth: 0
Flags: HW
LayerCount: 2
Back
Fore
SplineSet
27 655 m 257
 151 532 l 257
 124 505 l 257
 20 610 l 257
 20 10 l 257
 -20 10 l 257
 -20 610 l 257
 -124 505 l 257
 -151 532 l 257
 -27 655 l 257
 -151 777 l 257
 -124 803 l 257
 -0 679 l 257
 124 803 l 257
 151 777 l 257
 27 655 l 257
EndSplineSet
EndChar

StartChar: zwnj
Encoding: 82 8204 7
GlifName: zwnj
Width: 0
VWidth: 0
Flags: HW
LayerCount: 2
Back
Fore
SplineSet
-20 9 m 257
 -20 761 l 257
 20 761 l 257
 20 9 l 257
 -20 9 l 257
EndSplineSet
EndChar

StartChar: si_B.halant
Encoding: 314 -1 8
GlifName: si_B_.halant
Width: 619
VWidth: 0
Flags: HW
LayerCount: 2
Back
Fore
SplineSet
101 76 m 256
 101 50 124 27 150 27 c 256
 176 27 199 50 199 76 c 256
 199 102 176 125 150 125 c 256
 124 125 101 102 101 76 c 256
137 543 m 256
 137 531 161 526 161 515 c 256
 161 513 160 510 158 508 c 257
 191 514 231 519 277 519 c 256
 385 519 477 485 525 422 c 257
 492 537 398 590 282 590 c 256
 210 590 137 567 137 543 c 256
33 187 m 256
 33 314 120 396 247 396 c 256
 339 396 423 345 423 257 c 256
 423 126 304 167 304 101 c 256
 304 76 320 64 351 64 c 256
 465 64 533 189 533 289 c 256
 533 428 424 494 269 494 c 256
 233 494 198 490 162 483 c 256
 123 475 83 462 40 442 c 257
 40 473 l 257
 72 485 124 499 124 508 c 256
 124 520 96 524 96 546 c 256
 96 583 161 629 276 629 c 256
 484 629 555 490 567 356 c 256
 570 343 575 300 575 267 c 256
 574 138 517 -2 381 -2 c 256
 321 -2 273 35 273 94 c 256
 273 186 388 156 388 237 c 256
 388 296 309 320 237 320 c 256
 146 320 64 267 64 162 c 256
 64 136 69 106 77 91 c 257
 81 126 109 153 150 153 c 256
 193 153 229 119 229 77 c 256
 229 29 190 -1 150 -1 c 256
 68 -1 33 91 33 187 c 256
EndSplineSet
EndChar

StartChar: si_BI
Encoding: 315 -1 9
GlifName: si_B_I_
Width: 619
VWidth: 0
Flags: HW
LayerCount: 2
Back
Fore
SplineSet
67 562 m 256
 67 652 198 670 298 670 c 256
 434 670 544 639 544 554 c 256
 544 502 490 480 456 474 c 257
 406 490 l 257
 442 491 497 506 497 544 c 256
 497 600 406 611 298 611 c 256
 222 611 109 606 109 554 c 256
 109 508 174 508 276 504 c 256
 341 501 435 499 490 459 c 256
 539 423 575 356 575 274 c 257
 536 297 l 257
 536 338 525 384 497 414 c 256
 444 472 378 472 277 478 c 256
 188 483 67 476 67 562 c 256
101 76 m 256
 101 50 124 27 150 27 c 256
 176 27 199 50 199 76 c 256
 199 102 176 125 150 125 c 256
 124 125 101 102 101 76 c 256
33 187 m 256
 33 314 120 396 247 396 c 256
 339 396 423 345 423 257 c 256
 423 126 304 167 304 101 c 256
 304 76 320 64 351 64 c 256
 462 64 536 190 536 301 c 257
 554 293 560 282 575 278 c 257
 575 140 518 -2 381 -2 c 256
 321 -2 273 35 273 94 c 256
 273 186 388 156 388 237 c 256
 388 296 309 320 237 320 c 256
 146 320 64 267 64 162 c 256
 64 136 69 106 77 91 c 257
 81 126 109 153 150 153 c 256
 193 153 229 119 229 77 c 256
 229 29 190 -1 150 -1 c 256
 68 -1 33 91 33 187 c 256
EndSplineSet
EndChar

StartChar: si_BIi
Encoding: 316 -1 10
GlifName: si_B_I_i
Width: 619
VWidth: 0
Flags: HW
LayerCount: 2
Back
Fore
SplineSet
391 555 m 256
 391 525 419 501 452 501 c 256
 485 501 512 525 512 555 c 256
 512 585 485 609 452 609 c 256
 419 609 391 585 391 555 c 256
67 562 m 256
 67 652 198 670 298 670 c 256
 434 670 544 639 544 558 c 256
 544 505 496 474 452 474 c 256
 408 474 360 505 360 558 c 256
 360 583 373 600 379 608 c 257
 372 609 340 611 298 611 c 256
 222 611 109 606 109 554 c 256
 109 508 174 508 276 504 c 256
 341 501 435 499 490 459 c 256
 539 423 575 359 575 274 c 257
 575 274 544 281 536 296 c 257
 536 338 525 384 497 414 c 256
 444 472 378 472 277 478 c 256
 188 483 67 476 67 562 c 256
101 76 m 256
 101 50 124 27 150 27 c 256
 176 27 199 50 199 76 c 256
 199 102 176 125 150 125 c 256
 124 125 101 102 101 76 c 256
33 187 m 256
 33 314 120 396 247 396 c 256
 339 396 423 345 423 257 c 256
 423 126 304 167 304 101 c 256
 304 76 320 64 351 64 c 256
 462 64 536 190 536 301 c 257
 554 293 560 282 575 278 c 257
 575 140 518 -2 381 -2 c 256
 321 -2 273 35 273 94 c 256
 273 186 388 156 388 237 c 256
 388 296 309 320 237 320 c 256
 146 320 64 267 64 162 c 256
 64 136 69 106 77 91 c 257
 81 126 109 153 150 153 c 256
 193 153 229 119 229 77 c 256
 229 29 190 -1 150 -1 c 256
 68 -1 33 91 33 187 c 256
EndSplineSet
EndChar

StartChar: si_BRI
Encoding: 321 -1 11
GlifName: si_B_R_I_
Width: 619
VWidth: 0
Flags: HW
LayerCount: 2
Back
Fore
SplineSet
58 -44 m 257
 87 -44 l 257
 121 -119 186 -157 288 -157 c 256
 427 -157 538 -87 538 50 c 256
 538 71 533 93 526 102 c 257
 542 133 l 257
 559 106 568 75 568 38 c 256
 568 -124 444 -219 304 -219 c 256
 175 -219 94 -153 58 -44 c 257
EndSplineSet
Refer: 9 -1 N 1 0 0 1 0 0 2
EndChar

StartChar: si_BRIi
Encoding: 322 -1 12
GlifName: si_B_R_I_i
Width: 619
VWidth: 0
Flags: HW
LayerCount: 2
Back
Fore
SplineSet
58 -44 m 257
 87 -44 l 257
 121 -119 186 -157 288 -157 c 256
 427 -157 538 -87 538 50 c 256
 538 71 533 93 526 102 c 257
 542 133 l 257
 559 106 568 75 568 38 c 256
 568 -124 444 -219 304 -219 c 256
 175 -219 94 -153 58 -44 c 257
EndSplineSet
Refer: 10 -1 N 1 0 0 1 0 0 2
EndChar

StartChar: si_BRa
Encoding: 320 -1 13
GlifName: si_B_R_a
Width: 619
VWidth: 0
Flags: HW
LayerCount: 2
Back
Fore
SplineSet
58 -44 m 257
 87 -44 l 257
 121 -119 186 -157 288 -157 c 256
 427 -157 538 -87 538 50 c 256
 538 71 533 93 526 102 c 257
 542 133 l 257
 559 106 568 75 568 38 c 256
 568 -124 444 -219 304 -219 c 256
 175 -219 94 -153 58 -44 c 257
EndSplineSet
Refer: 466 3510 N 1 0 0 1 0 0 2
EndChar

StartChar: si_BU
Encoding: 317 -1 14
GlifName: si_B_U_
Width: 619
VWidth: 0
Flags: HW
LayerCount: 2
Back
Fore
SplineSet
49 -142 m 256
 49 -90 96 -50 151 -50 c 256
 193 -50 230 -74 245 -110 c 257
 215 -122 l 257
 208 -102 184 -80 151 -80 c 256
 114 -80 83 -106 83 -142 c 256
 83 -171 106 -199 172 -199 c 258
 532 -199 l 257
 532 128 l 257
 566 219 l 257
 566 -235 l 257
 155 -235 l 258
 86 -235 49 -186 49 -142 c 256
EndSplineSet
Refer: 466 3510 N 1 0 0 1 0 0 2
EndChar

StartChar: si_BUu
Encoding: 318 -1 15
GlifName: si_B_U_u
Width: 619
VWidth: 0
Flags: HW
LayerCount: 2
Back
Fore
SplineSet
49 -138 m 256
 49 -80 98 -40 151 -40 c 256
 193 -40 225 -55 248 -91 c 257
 218 -102 l 257
 206 -83 185 -68 156 -68 c 256
 117 -68 85 -92 85 -129 c 256
 85 -166 116 -191 159 -191 c 256
 243 -191 318 -117 413 -117 c 256
 456 -117 505 -136 532 -168 c 257
 532 152 l 257
 565 212 l 257
 565 -231 l 257
 542 -231 l 257
 527 -195 484 -144 416 -144 c 256
 325 -144 258 -237 160 -237 c 256
 105 -237 49 -206 49 -138 c 256
EndSplineSet
Refer: 466 3510 N 1 0 0 1 0 0 2
EndChar

StartChar: si_Bh.halant
Encoding: 323 -1 17
GlifName: si_B_h.halant
Width: 670
VWidth: 0
Flags: HW
LayerCount: 2
Back
Fore
SplineSet
468 387 m 257
 468 681 l 257
 522 639 618 634 618 542 c 256
 618 498 583 468 540 468 c 256
 525 468 510 471 495 478 c 257
 495 370 l 257
 468 387 l 257
495 503 m 257
 504 498 515 496 528 496 c 256
 566 496 581 521 581 545 c 256
 581 587 542 607 495 638 c 257
 495 503 l 257
EndSplineSet
Refer: 467 3511 N 1 0 0 1 0 0 2
EndChar

StartChar: si_BhI
Encoding: 324 -1 18
GlifName: si_B_hI_
Width: 670
VWidth: 0
Flags: HW
LayerCount: 2
Back
Fore
SplineSet
178 537 m 256
 178 628 277 667 379 667 c 256
 484 667 587 618 587 523 c 256
 587 461 548 415 467 409 c 257
 449 431 l 257
 452 431 454 431 457 431 c 256
 515 431 558 462 558 512 c 256
 558 577 459 598 379 598 c 256
 298 598 219 568 219 516 c 256
 219 456 353 431 439 431 c 256
 440 431 440 432 441 432 c 257
 425 410 l 257
 265 413 178 462 178 537 c 256
EndSplineSet
Refer: 467 3511 N 1 0 0 1 0 0 2
EndChar

StartChar: si_BhIi
Encoding: 325 -1 19
GlifName: si_B_hI_i
Width: 670
VWidth: 0
Flags: HW
LayerCount: 2
Back
Fore
SplineSet
419 520 m 256
 419 486 450 458 488 458 c 256
 526 458 558 486 558 520 c 256
 558 554 526 582 488 582 c 256
 450 582 419 554 419 520 c 256
178 537 m 256
 178 628 277 667 379 667 c 256
 484 667 587 618 587 525 c 256
 587 456 529 431 486 431 c 256
 442 431 389 464 389 519 c 256
 389 565 423 591 439 594 c 257
 417 597 403 598 379 598 c 256
 298 598 219 568 219 516 c 256
 219 456 353 431 439 431 c 256
 440 431 440 432 441 432 c 257
 425 409 l 257
 265 412 178 462 178 537 c 256
EndSplineSet
Refer: 467 3511 N 1 0 0 1 0 0 2
EndChar

StartChar: si_BhRI
Encoding: 330 -1 20
GlifName: si_B_hR_I_
Width: 670
VWidth: 0
Flags: HW
LayerCount: 2
Back
Fore
SplineSet
76 -44 m 257
 103 -44 l 257
 138 -119 208 -157 313 -157 c 256
 456 -157 574 -90 574 50 c 256
 574 71 569 93 562 102 c 257
 575 133 l 257
 593 106 602 75 602 38 c 256
 602 -124 473 -219 329 -219 c 256
 196 -219 113 -153 76 -44 c 257
EndSplineSet
Refer: 18 -1 N 1 0 0 1 0 0 2
EndChar

StartChar: si_BhRIi
Encoding: 331 -1 21
GlifName: si_B_hR_I_i
Width: 670
VWidth: 0
Flags: HW
LayerCount: 2
Back
Fore
SplineSet
418 520 m 256
 418 485 449 457 488 457 c 256
 527 457 559 485 559 520 c 256
 559 555 527 583 488 583 c 256
 449 583 418 555 418 520 c 256
178 537 m 256
 178 628 277 667 379 667 c 256
 484 667 587 618 587 525 c 256
 587 456 529 431 486 431 c 256
 442 431 389 464 389 519 c 256
 389 565 423 591 439 594 c 257
 417 597 403 598 379 598 c 256
 298 598 219 568 219 516 c 256
 219 456 353 431 439 431 c 256
 440 431 440 432 441 432 c 257
 425 408 l 257
 265 411 178 462 178 537 c 256
76 -44 m 257
 103 -44 l 257
 138 -119 208 -157 313 -157 c 256
 456 -157 574 -90 574 50 c 256
 574 71 569 93 562 102 c 257
 575 133 l 257
 593 106 602 75 602 38 c 256
 602 -124 473 -219 329 -219 c 256
 196 -219 113 -153 76 -44 c 257
EndSplineSet
Refer: 467 3511 N 1 0 0 1 0 0 2
EndChar

StartChar: si_BhRa
Encoding: 329 -1 22
GlifName: si_B_hR_a
Width: 670
VWidth: 0
Flags: HW
LayerCount: 2
Back
Fore
SplineSet
76 -44 m 257
 103 -44 l 257
 138 -119 208 -157 313 -157 c 256
 456 -157 574 -90 574 50 c 256
 574 71 569 93 562 102 c 257
 575 133 l 257
 593 106 602 75 602 38 c 256
 602 -124 473 -219 329 -219 c 256
 196 -219 113 -153 76 -44 c 257
EndSplineSet
Refer: 467 3511 N 1 0 0 1 0 0 2
EndChar

StartChar: si_BhU
Encoding: 326 -1 23
GlifName: si_B_hU_
Width: 670
VWidth: 0
Flags: HW
LayerCount: 2
Back
Fore
SplineSet
6 271 m 257
 6 303 l 257
 212 303 l 257
 171 278 l 257
 140 278 l 258
 69 277 22 274 6 271 c 257
49 364 m 256
 49 394 77 432 134 432 c 256
 213 432 254 360 255 278 c 257
 243 280 233 280 229 280 c 256
 163 280 86 245 86 175 c 256
 86 105 150 72 224 72 c 256
 290 72 346 100 346 164 c 256
 346 195 331 212 311 212 c 256
 298 212 284 203 277 182 c 257
 255 192 l 257
 264 317 345 432 446 432 c 256
 558 432 621 329 621 211 c 256
 621 97 541 0 461 0 c 256
 451 0 429 -2 415 -8 c 257
 405 18 l 257
 424 26 442 27 450 27 c 256
 513 27 573 99 573 193 c 256
 573 288 521 362 430 362 c 256
 357 362 309 318 287 229 c 257
 297 235 307 237 316 237 c 256
 354 237 382 199 382 145 c 256
 382 53 311 -1 217 -1 c 256
 119 -1 49 61 49 155 c 256
 49 253 148 303 218 303 c 256
 222 303 218 303 222 303 c 257
 222 345 198 383 160 383 c 256
 139 383 128 371 122 356 c 256
 116 340 103 327 82 327 c 256
 62 327 49 341 49 364 c 256
341 -80 m 256
 341 -30 371 9 414 21 c 257
 420 -6 l 257
 398 -14 379 -34 379 -63 c 256
 379 -109 429 -132 480 -132 c 256
 541 -132 588 -94 588 -45 c 256
 588 -42 588 -39 588 -36 c 257
 618 -36 l 257
 620 -45 620 -61 620 -70 c 256
 620 -123 577 -192 476 -192 c 256
 409 -192 341 -149 341 -80 c 256
EndSplineSet
EndChar

StartChar: si_BhUu
Encoding: 327 -1 24
GlifName: si_B_hU_u
Width: 670
VWidth: 0
Flags: HW
LayerCount: 2
Back
Fore
SplineSet
373 -129 m 256
 373 -93 405 -72 437 -67 c 257
 382 -39 l 257
 469 -14 l 257
 376 1 l 257
 424 13 l 257
 544 -7 l 257
 439 -44 l 257
 498 -76 l 257
 470 -83 413 -85 413 -115 c 256
 413 -146 455 -155 497 -155 c 256
 551 -155 597 -131 597 -82 c 256
 597 -77 596 -69 591 -59 c 257
 624 -59 l 257
 628 -71 628 -83 628 -94 c 256
 628 -161 577 -205 495 -205 c 256
 437 -205 373 -187 373 -129 c 256
EndSplineSet
Refer: 467 3511 N 1 0 0 1 0 0 2
EndChar

StartChar: si_Bha.reph
Encoding: 328 -1 25
GlifName: si_B_ha.reph
Width: 670
VWidth: 0
Flags: HW
LayerCount: 2
Back
Fore
SplineSet
296 511 m 256
 296 490 315 474 337 474 c 256
 359 474 378 490 378 511 c 256
 378 532 359 548 337 548 c 256
 315 548 296 532 296 511 c 256
194 530 m 256
 194 594 252 631 334 631 c 256
 411 631 475 588 475 517 c 256
 475 493 467 471 450 452 c 257
 416 452 l 257
 429 464 445 489 445 516 c 256
 445 573 394 604 333 604 c 256
 280 604 225 583 225 530 c 256
 225 491 267 472 290 470 c 257
 282 476 269 491 269 512 c 256
 269 547 300 572 336 572 c 256
 377 572 405 545 405 510 c 256
 405 471 370 445 312 445 c 256
 253 445 194 474 194 530 c 256
EndSplineSet
Refer: 467 3511 N 1 0 0 1 0 0 2
EndChar

StartChar: si_C.halant
Encoding: 136 -1 26
GlifName: si_C_.halant
Width: 621
VWidth: 0
Flags: HW
LayerCount: 2
Back
Fore
SplineSet
139 543 m 256
 139 531 163 526 163 515 c 256
 163 513 162 510 160 508 c 257
 193 514 233 519 279 519 c 256
 387 519 479 485 527 422 c 257
 494 537 400 590 284 590 c 256
 212 590 139 567 139 543 c 256
42 442 m 257
 42 473 l 257
 74 485 126 499 126 508 c 256
 126 520 98 524 98 546 c 256
 98 583 163 629 278 629 c 256
 486 629 557 490 569 356 c 257
 572 343 577 301 577 267 c 257
 539 279 l 257
 539 287 539 294 539 298 c 256
 539 413 446 494 271 494 c 256
 195 494 123 480 42 442 c 257
64 165 m 256
 64 196 74 228 97 248 c 256
 113 262 132 273 158 278 c 257
 192 290 233 302 270 302 c 258
 287 302 l 257
 287 304 287 306 287 308 c 256
 287 362 254 395 215 395 c 256
 169 395 163 371 158 355 c 256
 152 336 142 323 120 323 c 256
 104 323 83 334 83 360 c 256
 83 405 133 432 188 432 c 256
 276 432 319 376 319 290 c 256
 319 287 319 280 319 277 c 257
 250 277 l 258
 206 277 166 265 141 249 c 256
 114 232 101 206 101 180 c 256
 101 94 208 71 298 71 c 256
 451 71 539 156 539 304 c 257
 577 274 l 257
 577 114 478 0 295 0 c 256
 174 0 64 46 64 165 c 256
14 270 m 257
 14 302 l 257
 285 302 l 257
 315 277 l 257
 148 277 l 258
 77 276 30 273 14 270 c 257
EndSplineSet
EndChar

StartChar: si_CI
Encoding: 137 -1 27
GlifName: si_C_I_
Width: 621
VWidth: 0
Flags: HW
LayerCount: 2
Back
Fore
SplineSet
69 562 m 256
 69 652 200 670 300 670 c 256
 436 670 546 639 546 554 c 256
 546 502 492 480 458 474 c 257
 408 490 l 257
 444 491 499 506 499 544 c 256
 499 600 408 611 300 611 c 256
 224 611 111 606 111 554 c 256
 111 508 176 508 278 504 c 256
 343 501 437 499 492 459 c 256
 541 423 577 356 577 274 c 257
 538 297 l 257
 538 338 527 384 499 414 c 256
 446 472 380 472 279 478 c 256
 190 483 69 476 69 562 c 256
64 165 m 256
 64 196 74 228 97 248 c 256
 113 262 132 273 158 278 c 257
 192 290 233 302 270 302 c 258
 287 302 l 257
 287 304 287 306 287 308 c 256
 287 362 254 395 215 395 c 256
 169 395 163 371 158 355 c 256
 152 336 142 323 120 323 c 256
 104 323 83 334 83 360 c 256
 83 405 133 432 188 432 c 256
 276 432 319 376 319 290 c 256
 319 287 319 280 319 277 c 257
 250 277 l 258
 206 277 166 265 141 249 c 256
 114 232 101 206 101 180 c 256
 101 94 208 71 298 71 c 256
 451 71 538 156 538 304 c 257
 577 274 l 257
 577 114 478 0 295 0 c 256
 174 0 64 46 64 165 c 256
14 270 m 257
 14 302 l 257
 285 302 l 257
 315 277 l 257
 148 277 l 258
 77 276 30 273 14 270 c 257
EndSplineSet
EndChar

StartChar: si_CIi
Encoding: 138 -1 28
GlifName: si_C_I_i
Width: 621
VWidth: 0
Flags: HW
LayerCount: 2
Back
Fore
SplineSet
394 555 m 256
 394 525 421 501 454 501 c 256
 487 501 514 525 514 555 c 256
 514 585 487 609 454 609 c 256
 421 609 394 585 394 555 c 256
69 562 m 256
 69 652 200 670 300 670 c 256
 436 670 546 639 546 558 c 256
 546 505 498 474 454 474 c 256
 410 474 362 505 362 558 c 256
 362 583 375 600 381 608 c 257
 374 609 342 611 300 611 c 256
 224 611 111 606 111 554 c 256
 111 508 176 508 278 504 c 256
 343 501 437 499 492 459 c 256
 541 423 577 359 577 274 c 257
 538 286 l 257
 538 333 527 384 499 414 c 256
 446 472 380 472 279 478 c 256
 190 483 69 476 69 562 c 256
64 165 m 256
 64 196 74 228 97 248 c 256
 113 262 132 273 158 278 c 257
 192 290 233 302 270 302 c 258
 287 302 l 257
 287 304 287 306 287 308 c 256
 287 362 254 395 215 395 c 256
 169 395 163 371 158 355 c 256
 152 336 142 323 120 323 c 256
 104 323 83 334 83 360 c 256
 83 405 133 432 188 432 c 256
 276 432 319 376 319 290 c 256
 319 287 319 280 319 277 c 257
 250 277 l 258
 206 277 166 265 141 249 c 256
 114 232 101 206 101 180 c 256
 101 94 208 71 298 71 c 256
 451 71 538 156 538 304 c 257
 577 274 l 257
 577 114 478 0 295 0 c 256
 174 0 64 46 64 165 c 256
14 270 m 257
 14 302 l 257
 285 302 l 257
 315 277 l 257
 148 277 l 258
 77 276 30 273 14 270 c 257
EndSplineSet
EndChar

StartChar: si_CRI
Encoding: 143 -1 29
GlifName: si_C_R_I_
Width: 621
VWidth: 0
Flags: HW
LayerCount: 2
Back
Fore
SplineSet
56 -44 m 257
 84 -44 l 257
 119 -119 187 -157 292 -157 c 256
 435 -157 548 -90 548 50 c 256
 548 71 542 99 529 112 c 257
 545 140 l 257
 568 107 576 75 576 38 c 256
 576 -124 452 -219 308 -219 c 256
 175 -219 93 -153 56 -44 c 257
EndSplineSet
Refer: 27 -1 N 1 0 0 1 0 0 2
EndChar

StartChar: si_CRIi
Encoding: 144 -1 30
GlifName: si_C_R_I_i
Width: 621
VWidth: 0
Flags: HW
LayerCount: 2
Back
Fore
SplineSet
56 -44 m 257
 84 -44 l 257
 119 -119 187 -157 292 -157 c 256
 435 -157 548 -90 548 50 c 256
 548 71 542 99 529 112 c 257
 545 140 l 257
 568 107 576 75 576 38 c 256
 576 -124 452 -219 308 -219 c 256
 175 -219 93 -153 56 -44 c 257
EndSplineSet
Refer: 28 -1 N 1 0 0 1 0 0 2
EndChar

StartChar: si_CRa
Encoding: 142 -1 31
GlifName: si_C_R_a
Width: 597
VWidth: 0
Flags: HW
LayerCount: 2
Back
Fore
SplineSet
56 -44 m 257
 84 -44 l 257
 119 -119 187 -157 292 -157 c 256
 435 -157 548 -90 548 50 c 256
 548 71 542 99 529 112 c 257
 545 140 l 257
 568 107 576 75 576 38 c 256
 576 -124 452 -219 308 -219 c 256
 175 -219 93 -153 56 -44 c 257
EndSplineSet
Refer: 445 3488 N 1 0 0 1 0 0 2
EndChar

StartChar: si_CU
Encoding: 139 -1 32
GlifName: si_C_U_
Width: 597
VWidth: 0
Flags: HW
LayerCount: 2
Back
Fore
SplineSet
70 -142 m 256
 70 -90 117 -50 172 -50 c 256
 214 -50 251 -74 266 -110 c 257
 236 -122 l 257
 229 -102 205 -80 172 -80 c 256
 135 -80 104 -106 104 -142 c 256
 104 -171 127 -199 193 -199 c 258
 533 -199 l 257
 533 128 l 257
 566 219 l 257
 566 -235 l 257
 176 -235 l 258
 107 -235 70 -186 70 -142 c 256
EndSplineSet
Refer: 445 3488 N 1 0 0 1 0 0 2
EndChar

StartChar: si_CUu
Encoding: 140 -1 33
GlifName: si_C_U_u
Width: 597
VWidth: 0
Flags: HW
LayerCount: 2
Back
Fore
SplineSet
70 -138 m 256
 70 -80 119 -40 172 -40 c 256
 214 -40 247 -55 270 -91 c 257
 240 -102 l 257
 228 -83 207 -68 178 -68 c 256
 139 -68 106 -92 106 -129 c 256
 106 -166 137 -191 180 -191 c 256
 264 -191 328 -117 423 -117 c 256
 471 -117 506 -136 533 -168 c 257
 533 152 l 257
 566 212 l 257
 566 -231 l 257
 543 -231 l 257
 528 -195 491 -144 426 -144 c 256
 335 -144 280 -237 182 -237 c 256
 127 -237 70 -206 70 -138 c 256
EndSplineSet
Refer: 445 3488 N 1 0 0 1 0 0 2
EndChar

StartChar: si_Ca.reph
Encoding: 141 -1 34
GlifName: si_C_a.reph
Width: 597
VWidth: 0
Flags: HW
LayerCount: 2
Back
Fore
SplineSet
274 628 m 256
 274 607 292 590 314 590 c 256
 336 590 355 607 355 628 c 256
 355 649 336 665 314 665 c 256
 292 665 274 649 274 628 c 256
172 646 m 256
 172 710 230 748 312 748 c 256
 389 748 452 705 452 634 c 256
 452 610 445 587 428 568 c 257
 394 568 l 257
 407 580 422 605 422 632 c 256
 422 689 371 720 310 720 c 256
 257 720 203 699 203 646 c 256
 203 607 244 589 267 587 c 257
 259 593 246 607 246 628 c 256
 246 663 278 688 314 688 c 256
 355 688 382 661 382 626 c 256
 382 587 348 562 290 562 c 256
 231 562 172 590 172 646 c 256
EndSplineSet
Refer: 445 3488 N 1 0 0 1 0 0 2
EndChar

StartChar: si_Ch.halant
Encoding: 145 -1 35
GlifName: si_C_h.halant
Width: 598
VWidth: 0
Flags: HW
LayerCount: 2
Back
Fore
SplineSet
289 356 m 257
 289 756 l 257
 346 709 436 704 436 626 c 256
 436 580 402 550 359 550 c 256
 345 550 330 551 315 556 c 257
 315 400 l 257
 289 356 l 257
315 581 m 257
 325 577 337 575 352 575 c 256
 385 575 399 599 399 622 c 256
 399 672 352 687 315 712 c 257
 315 581 l 257
EndSplineSet
Refer: 446 3489 N 1 0 0 1 0 0 2
EndChar

StartChar: si_ChI
Encoding: 146 -1 36
GlifName: si_C_hI_
Width: 598
VWidth: 0
Flags: HW
LayerCount: 2
Back
Fore
SplineSet
233 490 m 256
 233 577 303 657 382 657 c 256
 429 657 461 626 461 583 c 256
 461 579 460 576 460 572 c 257
 430 544 l 257
 434 550 436 565 436 576 c 256
 436 605 424 622 393 622 c 256
 336 622 276 550 276 486 c 256
 276 454 291 429 332 429 c 256
 346 429 357 431 374 436 c 257
 370 425 l 257
 357 417 329 408 327 407 c 257
 326 407 324 407 323 407 c 256
 260 407 233 440 233 490 c 256
EndSplineSet
Refer: 446 3489 N 1 0 0 1 0 0 2
EndChar

StartChar: si_ChIi
Encoding: 147 -1 37
GlifName: si_C_hI_i
Width: 598
VWidth: 0
Flags: HW
LayerCount: 2
Back
Fore
SplineSet
338 579 m 256
 338 552 359 530 386 530 c 256
 413 530 435 552 435 579 c 256
 435 606 413 628 386 628 c 256
 359 628 338 606 338 579 c 256
233 490 m 256
 233 577 304 656 387 656 c 256
 432 656 464 619 464 579 c 256
 464 541 434 502 387 502 c 256
 339 502 312 540 312 574 c 256
 312 574 312 576 312 577 c 257
 293 552 276 520 276 486 c 256
 276 454 291 429 332 429 c 256
 346 429 357 431 374 436 c 257
 370 425 l 257
 357 417 329 408 327 407 c 257
 326 407 324 407 323 407 c 256
 260 407 233 440 233 490 c 256
EndSplineSet
Refer: 446 3489 N 1 0 0 1 0 0 2
EndChar

StartChar: si_ChU
Encoding: 148 -1 38
GlifName: si_C_hU_
Width: 598
VWidth: 0
Flags: HW
LayerCount: 2
Back
Fore
SplineSet
39 -142 m 256
 39 -90 85 -50 140 -50 c 256
 182 -50 219 -74 234 -110 c 257
 204 -122 l 257
 197 -102 173 -80 140 -80 c 256
 103 -80 72 -106 72 -142 c 256
 72 -171 95 -199 161 -199 c 258
 508 -199 l 257
 508 128 l 257
 540 198 l 257
 540 -235 l 257
 144 -235 l 258
 75 -235 39 -186 39 -142 c 256
EndSplineSet
Refer: 446 3489 N 1 0 0 1 0 0 2
EndChar

StartChar: si_ChUu
Encoding: 149 -1 39
GlifName: si_C_hU_u
Width: 598
VWidth: 0
Flags: HW
LayerCount: 2
Back
Fore
SplineSet
39 -138 m 256
 39 -80 88 -40 141 -40 c 256
 183 -40 215 -55 238 -91 c 257
 208 -102 l 257
 196 -83 175 -68 146 -68 c 256
 107 -68 75 -92 75 -129 c 256
 75 -166 106 -191 149 -191 c 256
 233 -191 300 -117 395 -117 c 256
 443 -117 483 -138 508 -168 c 257
 508 141 l 257
 541 201 l 257
 541 -231 l 257
 518 -231 l 257
 503 -195 463 -144 398 -144 c 256
 307 -144 248 -237 150 -237 c 256
 95 -237 39 -206 39 -138 c 256
EndSplineSet
Refer: 446 3489 N 1 0 0 1 0 0 2
EndChar

StartChar: si_D.halant
Encoding: 254 -1 40
GlifName: si_D_.halant
Width: 456
VWidth: 0
Flags: HW
LayerCount: 2
Back
Fore
SplineSet
264 413 m 257
 264 680 l 257
 318 638 414 633 414 541 c 256
 414 497 379 467 336 467 c 256
 321 467 307 470 292 477 c 257
 292 396 l 257
 264 413 l 257
292 502 m 257
 301 497 311 495 324 495 c 256
 362 495 378 520 378 544 c 256
 378 586 339 606 292 637 c 257
 292 502 l 257
EndSplineSet
Refer: 460 3503 N 1 0 0 1 0 0 2
EndChar

StartChar: si_DAa
Encoding: 255 -1 41
GlifName: si_D_A_a
Width: 456
VWidth: 0
Flags: HW
LayerCount: 2
Back
Fore
SplineSet
31 169 m 256
 31 274 104 317 223 317 c 258
 343 317 l 257
 333 363 304 396 260 396 c 256
 241 396 225 384 216 366 c 256
 206 344 190 336 175 336 c 256
 150 336 137 351 137 372 c 256
 137 408 177 433 232 433 c 256
 318 433 361 389 379 294 c 257
 242 294 l 258
 154 294 108 257 108 173 c 256
 108 89 173 26 258 26 c 256
 308 26 350 46 390 92 c 257
 412 75 l 257
 392 58 376 41 361 33 c 257
 364 34 362 34 366 34 c 256
 414 34 447 -18 447 -87 c 256
 447 -175 407 -212 348 -212 c 256
 299 -212 282 -187 282 -166 c 257
 310 -166 l 257
 310 -176 319 -187 338 -187 c 256
 380 -187 390 -148 390 -87 c 256
 390 -42 376 0 345 0 c 256
 316 0 304 -29 304 -45 c 257
 277 -45 l 257
 277 -29 286 -6 299 4 c 257
 271 -1 255 -1 234 -1 c 256
 103 -1 31 69 31 169 c 256
EndSplineSet
EndChar

StartChar: si_DAa.halant
Encoding: 264 -1 42
GlifName: si_D_A_a.halant
Width: 609
VWidth: 0
Flags: HW
LayerCount: 2
Back
Fore
SplineSet
31 169 m 256
 31 274 104 317 223 317 c 258
 343 317 l 257
 333 363 304 396 260 396 c 256
 241 396 225 384 216 366 c 256
 206 344 190 336 175 336 c 256
 150 336 137 351 137 372 c 256
 137 408 177 433 232 433 c 256
 318 433 361 389 379 294 c 257
 242 294 l 258
 154 294 108 257 108 173 c 256
 108 89 173 26 258 26 c 256
 308 26 350 46 390 92 c 257
 412 75 l 257
 392 58 376 41 361 33 c 257
 364 34 362 34 366 34 c 256
 414 34 447 -18 447 -87 c 256
 447 -175 407 -212 348 -212 c 256
 299 -212 282 -187 282 -166 c 257
 310 -166 l 257
 310 -176 319 -187 338 -187 c 256
 380 -187 390 -148 390 -87 c 256
 390 -42 376 0 345 0 c 256
 316 0 304 -29 304 -45 c 257
 277 -45 l 257
 277 -29 286 -6 299 4 c 257
 271 -1 255 -1 234 -1 c 256
 103 -1 31 69 31 169 c 256
419 -53 m 257
 419 680 l 257
 473 638 569 633 569 541 c 256
 569 497 534 467 491 467 c 256
 476 467 461 470 446 477 c 257
 446 -101 l 257
 419 -53 l 257
446 502 m 257
 455 497 466 495 479 495 c 256
 517 495 532 520 532 544 c 256
 532 586 493 606 446 637 c 257
 446 502 l 257
EndSplineSet
EndChar

StartChar: si_DAae
Encoding: 257 -1 43
GlifName: si_D_A_ae
Width: 461
VWidth: 0
Flags: HW
LayerCount: 2
Back
Fore
SplineSet
31 169 m 256
 31 274 104 317 223 317 c 258
 343 317 l 257
 333 363 304 396 260 396 c 256
 241 396 225 384 216 366 c 256
 206 344 190 336 175 336 c 256
 150 336 137 351 137 372 c 256
 137 408 177 433 232 433 c 256
 318 433 361 389 379 294 c 257
 242 294 l 258
 154 294 108 257 108 173 c 256
 108 89 174 26 259 26 c 256
 309 26 344 46 384 92 c 257
 403 76 l 257
 403 69 354 28 354 28 c 257
 426 28 l 257
 426 5 l 257
 362 -36 l 257
 424 -36 l 257
 424 -58 l 257
 402 -66 378 -92 378 -136 c 256
 378 -176 397 -204 432 -204 c 257
 432 -228 l 257
 429 -229 425 -230 421 -230 c 256
 365 -230 323 -187 323 -142 c 256
 323 -103 349 -74 380 -60 c 257
 312 -60 l 257
 312 -40 l 257
 335 -26 359 -10 383 4 c 257
 381 4 314 4 314 4 c 257
 295 -12 245 -51 245 -116 c 256
 245 -175 280 -200 315 -206 c 257
 315 -228 l 257
 311 -229 301 -230 296 -230 c 256
 234 -230 186 -198 186 -132 c 256
 186 -79 225 -41 272 1 c 257
 259 -1 245 -1 239 -1 c 256
 101 -1 31 69 31 169 c 256
EndSplineSet
EndChar

StartChar: si_DAe
Encoding: 256 -1 44
GlifName: si_D_A_e
Width: 456
VWidth: 0
Flags: HW
LayerCount: 2
Back
Fore
SplineSet
31 169 m 256
 31 274 104 317 223 317 c 258
 343 317 l 257
 333 363 304 396 260 396 c 256
 241 396 225 384 216 366 c 256
 206 344 190 336 175 336 c 256
 150 336 137 351 137 372 c 256
 137 408 177 433 232 433 c 256
 318 433 361 389 379 294 c 257
 242 294 l 258
 154 294 108 257 108 173 c 256
 108 89 174 26 259 26 c 256
 309 26 344 46 384 92 c 257
 407 75 l 257
 380 45 370 6 370 -59 c 256
 370 -127 397 -204 432 -204 c 257
 432 -228 l 257
 429 -229 425 -230 421 -230 c 256
 365 -230 322 -177 322 -104 c 256
 322 -49 346 6 356 31 c 257
 291 -9 245 -51 245 -116 c 256
 245 -175 280 -200 315 -206 c 257
 315 -228 l 257
 311 -229 301 -230 296 -230 c 256
 234 -230 186 -198 186 -132 c 256
 186 -79 225 -41 272 1 c 257
 259 -1 245 -1 239 -1 c 256
 101 -1 31 69 31 169 c 256
EndSplineSet
EndChar

StartChar: si_DDdh.halant
Encoding: 487 -1 45
GlifName: si_D_D_dh.halant
Width: 729
VWidth: 0
Flags: HW
LayerCount: 2
Back
Fore
SplineSet
231 543 m 256
 231 531 255 526 255 515 c 256
 255 513 254 510 252 508 c 257
 285 514 325 519 371 519 c 256
 479 519 564 490 622 422 c 257
 589 537 492 590 376 590 c 256
 304 590 231 567 231 543 c 256
125 195 m 256
 125 288 178 364 244 387 c 256
 265 394 288 398 313 398 c 257
 313 373 l 258
 310 373 306 373 303 373 c 256
 224 373 159 301 159 212 c 256
 159 136 207 71 280 71 c 256
 331 71 382 92 382 156 c 258
 382 196 l 257
 410 196 l 257
 410 156 l 258
 410 92 460 71 509 71 c 256
 609 71 646 188 646 266 c 256
 646 413 535 494 374 494 c 256
 298 494 215 478 134 453 c 257
 134 484 l 257
 166 492 218 502 218 508 c 256
 218 520 190 524 190 546 c 256
 190 583 255 629 370 629 c 256
 578 629 652 490 664 356 c 257
 673 331 682 287 682 245 c 256
 682 134 640 0 514 0 c 256
 465 0 425 20 395 59 c 257
 364 20 327 0 282 0 c 256
 180 0 125 96 125 195 c 256
27 212 m 256
 27 344 101 433 220 433 c 256
 246 433 289 427 313 398 c 257
 300 396 279 394 275 394 c 257
 267 402 244 407 226 407 c 256
 92 407 56 295 56 208 c 256
 56 131 83 75 135 30 c 257
 135 0 l 257
 69 33 27 111 27 212 c 256
EndSplineSet
EndChar

StartChar: si_DDhI
Encoding: 488 -1 46
GlifName: si_D_D_hI_
Width: 729
VWidth: 0
Flags: HW
LayerCount: 2
Back
Fore
SplineSet
27 212 m 256
 27 344 101 433 220 433 c 256
 246 433 289 427 313 398 c 257
 300 396 279 394 275 394 c 257
 267 402 244 407 226 407 c 256
 92 407 56 295 56 208 c 256
 56 131 83 75 135 30 c 257
 135 0 l 257
 69 33 27 111 27 212 c 256
EndSplineSet
Refer: 85 -1 N 1 0 0 1 92 0 2
EndChar

StartChar: si_DDhIi
Encoding: 489 -1 47
GlifName: si_D_D_hI_i
Width: 729
VWidth: 0
Flags: HW
LayerCount: 2
Back
Fore
SplineSet
27 212 m 256
 27 344 101 433 220 433 c 256
 246 433 289 427 313 398 c 257
 300 396 279 394 275 394 c 257
 267 402 244 407 226 407 c 256
 92 407 56 295 56 208 c 256
 56 131 83 75 135 30 c 257
 135 0 l 257
 69 33 27 111 27 212 c 256
EndSplineSet
Refer: 86 -1 N 1 0 0 1 92 0 2
EndChar

StartChar: si_DDhU
Encoding: 490 -1 48
GlifName: si_D_D_hU_
Width: 729
VWidth: 0
Flags: HW
LayerCount: 2
Back
Fore
SplineSet
144 -142 m 256
 144 -90 190 -50 245 -50 c 256
 287 -50 324 -74 339 -110 c 257
 309 -122 l 257
 302 -102 278 -80 245 -80 c 256
 208 -80 177 -106 177 -142 c 256
 177 -171 200 -199 266 -199 c 258
 634 -199 l 257
 634 128 l 257
 667 219 l 257
 667 -235 l 257
 249 -235 l 258
 180 -235 144 -186 144 -142 c 256
EndSplineSet
Refer: 50 -1 N 1 0 0 1 0 0 2
EndChar

StartChar: si_DDhUu
Encoding: 491 -1 49
GlifName: si_D_D_hU_u
Width: 729
VWidth: 0
Flags: HW
LayerCount: 2
Back
Fore
SplineSet
143 -138 m 256
 143 -80 192 -40 245 -40 c 256
 287 -40 319 -55 342 -91 c 257
 312 -102 l 257
 300 -83 279 -68 250 -68 c 256
 211 -68 179 -92 179 -129 c 256
 179 -166 210 -191 253 -191 c 256
 337 -191 420 -117 515 -117 c 256
 558 -117 607 -136 634 -168 c 257
 634 152 l 257
 667 212 l 257
 667 -231 l 257
 644 -231 l 257
 629 -195 586 -144 518 -144 c 256
 427 -144 352 -237 254 -237 c 256
 199 -237 143 -206 143 -138 c 256
EndSplineSet
Refer: 50 -1 N 1 0 0 1 0 0 2
EndChar

StartChar: si_DDha
Encoding: 438 -1 50
GlifName: si_D_D_ha
Width: 729
VWidth: 0
Flags: HW
LayerCount: 2
Back
Fore
SplineSet
27 212 m 256
 27 344 101 433 220 433 c 256
 246 433 289 427 313 398 c 257
 275 394 l 257
 267 402 244 407 226 407 c 256
 92 407 56 295 56 208 c 256
 56 131 83 75 135 30 c 257
 135 0 l 257
 69 33 27 111 27 212 c 256
EndSplineSet
Refer: 461 3504 N 1 0 0 1 92 0 2
EndChar

StartChar: si_DI
Encoding: 258 -1 51
GlifName: si_D_I_
Width: 456
VWidth: 0
Flags: HW
LayerCount: 2
Back
Fore
SplineSet
35 518 m 256
 35 619 126 671 223 671 c 256
 320 671 411 617 411 518 c 256
 411 443 347 406 295 405 c 257
 283 426 l 257
 337 426 381 462 381 509 c 256
 381 571 295 598 223 598 c 256
 151 598 66 573 66 509 c 256
 66 461 109 425 194 425 c 257
 151 405 l 257
 85 415 35 451 35 518 c 256
EndSplineSet
Refer: 460 3503 N 1 0 0 1 0 0 2
EndChar

StartChar: si_DIi
Encoding: 259 -1 52
GlifName: si_D_I_i
Width: 456
VWidth: 0
Flags: HW
LayerCount: 2
Back
Fore
SplineSet
247 514 m 256
 247 483 277 458 313 458 c 256
 349 458 379 483 379 514 c 256
 379 545 349 570 313 570 c 256
 277 570 247 545 247 514 c 256
35 518 m 256
 35 619 126 671 223 671 c 256
 320 671 411 615 411 523 c 256
 411 464 363 429 312 429 c 256
 252 429 215 470 215 515 c 256
 215 560 251 587 278 592 c 257
 267 595 237 598 223 598 c 256
 151 598 66 573 66 509 c 256
 66 461 109 425 194 425 c 257
 151 405 l 257
 85 415 35 451 35 518 c 256
EndSplineSet
Refer: 460 3503 N 1 0 0 1 0 0 2
EndChar

StartChar: si_DRI
Encoding: 267 -1 53
GlifName: si_D_R_I_
Width: 456
VWidth: 0
Flags: HW
LayerCount: 2
Back
Fore
SplineSet
35 518 m 256
 35 619 126 671 223 671 c 256
 320 671 411 617 411 518 c 256
 411 443 347 406 295 405 c 257
 283 426 l 257
 337 426 381 462 381 509 c 256
 381 571 295 598 223 598 c 256
 151 598 66 573 66 509 c 256
 66 461 109 425 194 425 c 257
 151 405 l 257
 85 415 35 451 35 518 c 256
34 -43 m 257
 59 -43 l 257
 81 -112 126 -142 203 -142 c 256
 307 -142 382 -72 382 51 c 256
 382 72 382 66 381 74 c 257
 407 79 l 257
 407 59 407 76 407 39 c 256
 407 -109 320 -204 215 -204 c 256
 110 -204 54 -145 34 -43 c 257
31 169 m 256
 31 274 104 317 223 317 c 258
 343 317 l 257
 333 363 304 396 260 396 c 256
 241 396 225 384 216 366 c 256
 206 344 190 336 175 336 c 256
 150 336 137 351 137 372 c 256
 137 408 177 433 232 433 c 256
 318 433 361 389 379 294 c 257
 242 294 l 258
 154 294 108 257 108 173 c 256
 108 89 178 27 261 27 c 256
 307 27 351 50 384 92 c 257
 407 79 l 257
 367 34 328 -1 234 -1 c 256
 103 -1 31 69 31 169 c 256
EndSplineSet
EndChar

StartChar: si_DRIi
Encoding: 268 -1 54
GlifName: si_D_R_I_i
Width: 456
VWidth: 0
Flags: HW
LayerCount: 2
Back
Fore
SplineSet
247 514 m 256
 247 483 277 458 313 458 c 256
 349 458 379 483 379 514 c 256
 379 545 349 570 313 570 c 256
 277 570 247 545 247 514 c 256
35 518 m 256
 35 619 126 671 223 671 c 256
 320 671 411 615 411 523 c 256
 411 464 363 429 312 429 c 256
 252 429 215 470 215 515 c 256
 215 560 251 587 278 592 c 257
 267 595 237 598 223 598 c 256
 151 598 66 573 66 509 c 256
 66 461 109 425 194 425 c 257
 151 405 l 257
 85 415 35 451 35 518 c 256
34 -43 m 257
 59 -43 l 257
 81 -112 126 -142 203 -142 c 256
 307 -142 382 -72 382 51 c 256
 382 72 382 66 381 74 c 257
 407 79 l 257
 407 59 407 76 407 39 c 256
 407 -109 320 -204 215 -204 c 256
 110 -204 54 -145 34 -43 c 257
31 169 m 256
 31 274 104 317 223 317 c 258
 343 317 l 257
 333 363 304 396 260 396 c 256
 241 396 225 384 216 366 c 256
 206 344 190 336 175 336 c 256
 150 336 137 351 137 372 c 256
 137 408 177 433 232 433 c 256
 318 433 361 389 379 294 c 257
 242 294 l 258
 154 294 108 257 108 173 c 256
 108 89 178 27 261 27 c 256
 307 27 351 50 384 92 c 257
 407 79 l 257
 367 34 328 -1 234 -1 c 256
 103 -1 31 69 31 169 c 256
EndSplineSet
EndChar

StartChar: si_DRa
Encoding: 266 -1 55
GlifName: si_D_R_a
Width: 456
VWidth: 0
Flags: HW
LayerCount: 2
Back
Fore
SplineSet
34 -43 m 257
 59 -43 l 257
 81 -112 126 -142 203 -142 c 256
 307 -142 382 -72 382 51 c 256
 382 72 382 66 381 74 c 257
 407 79 l 257
 407 59 407 76 407 39 c 256
 407 -109 320 -204 215 -204 c 256
 110 -204 54 -145 34 -43 c 257
31 169 m 256
 31 274 104 317 223 317 c 258
 343 317 l 257
 333 363 304 396 260 396 c 256
 241 396 225 384 216 366 c 256
 206 344 190 336 175 336 c 256
 150 336 137 351 137 372 c 256
 137 408 177 433 232 433 c 256
 318 433 361 389 379 294 c 257
 242 294 l 258
 154 294 108 257 108 173 c 256
 108 89 178 27 261 27 c 256
 307 27 351 50 384 92 c 257
 407 79 l 257
 367 34 328 -1 234 -1 c 256
 103 -1 31 69 31 169 c 256
EndSplineSet
EndChar

StartChar: si_DU
Encoding: 260 -1 56
GlifName: si_D_U_
Width: 456
VWidth: 0
Flags: HW
LayerCount: 2
Back
Fore
SplineSet
33 -142 m 256
 33 -90 79 -50 134 -50 c 256
 176 -50 213 -74 228 -110 c 257
 198 -122 l 257
 191 -102 167 -80 134 -80 c 256
 97 -80 66 -106 66 -142 c 256
 66 -171 89 -199 155 -199 c 258
 374 -199 l 257
 374 69 l 257
 407 79 l 257
 407 -235 l 257
 138 -235 l 258
 69 -235 33 -186 33 -142 c 256
31 169 m 256
 31 274 104 317 223 317 c 258
 343 317 l 257
 333 363 304 396 260 396 c 256
 241 396 225 384 216 366 c 256
 206 344 190 336 175 336 c 256
 150 336 137 351 137 372 c 256
 137 408 177 433 232 433 c 256
 318 433 361 389 379 294 c 257
 242 294 l 258
 154 294 108 257 108 173 c 256
 108 89 178 27 261 27 c 256
 307 27 351 50 384 92 c 257
 407 79 l 257
 367 34 328 -1 234 -1 c 256
 103 -1 31 69 31 169 c 256
EndSplineSet
EndChar

StartChar: si_DUu
Encoding: 261 -1 57
GlifName: si_D_U_u
Width: 456
VWidth: 0
Flags: HW
LayerCount: 2
Back
Fore
SplineSet
33 -139 m 256
 33 -81 82 -41 135 -41 c 256
 177 -41 209 -56 232 -92 c 257
 202 -103 l 257
 190 -84 169 -69 140 -69 c 256
 101 -69 69 -93 69 -130 c 256
 69 -167 97 -192 140 -192 c 256
 195 -192 222 -128 300 -128 c 256
 325 -128 355 -136 374 -160 c 257
 374 72 l 257
 407 79 l 257
 407 -232 l 257
 384 -232 l 257
 370 -194 351 -154 306 -154 c 256
 229 -154 208 -238 132 -238 c 256
 84 -238 33 -207 33 -139 c 256
31 169 m 256
 31 274 104 317 223 317 c 258
 343 317 l 257
 333 363 304 396 260 396 c 256
 241 396 225 384 216 366 c 256
 206 344 190 336 175 336 c 256
 150 336 137 351 137 372 c 256
 137 408 177 433 232 433 c 256
 318 433 361 389 379 294 c 257
 242 294 l 258
 154 294 108 257 108 173 c 256
 108 89 178 27 261 27 c 256
 307 27 351 50 384 92 c 257
 407 79 l 257
 367 34 328 -1 234 -1 c 256
 103 -1 31 69 31 169 c 256
EndSplineSet
EndChar

StartChar: si_DV.halant
Encoding: 492 -1 58
GlifName: si_D_V_.halant
Width: 688
VWidth: 0
Flags: HW
LayerCount: 2
Back
Fore
SplineSet
126 165 m 256
 126 250 191 304 292 304 c 258
 353 304 l 258
 353 306 353 306 353 308 c 256
 353 362 319 395 282 395 c 256
 237 395 230 371 224 355 c 256
 217 336 208 323 186 323 c 256
 170 323 149 333 149 359 c 256
 149 404 199 432 254 432 c 256
 342 432 385 376 385 290 c 256
 385 287 385 283 385 280 c 258
 295 280 l 258
 221 280 161 245 161 180 c 256
 161 94 273 71 363 71 c 256
 512 71 603 154 607 290 c 257
 607 408 513 494 358 494 c 256
 282 494 212 480 132 447 c 257
 132 478 l 257
 164 488 214 500 214 508 c 256
 214 520 186 524 186 546 c 256
 186 583 249 629 364 629 c 256
 559 629 621 490 633 356 c 256
 638 332 641 305 641 274 c 257
 641 113 542 0 360 0 c 256
 239 0 126 46 126 165 c 256
228 543 m 256
 228 531 252 526 252 515 c 256
 252 513 250 510 248 508 c 257
 281 514 320 519 366 519 c 256
 455 519 543 487 591 422 c 257
 558 537 476 590 370 590 c 256
 298 590 228 567 228 543 c 256
27 221 m 256
 27 353 100 433 239 433 c 256
 248 433 271 433 293 427 c 257
 272 416 194 406 177 400 c 257
 102 382 56 319 56 218 c 256
 56 137 83 75 135 30 c 257
 135 0 l 257
 69 33 27 120 27 221 c 256
EndSplineSet
EndChar

StartChar: si_DVI
Encoding: 493 -1 59
GlifName: si_D_V_I_
Width: 688
VWidth: 0
Flags: HW
LayerCount: 2
Back
Fore
SplineSet
138 562 m 256
 138 652 266 670 366 670 c 256
 502 670 609 639 609 554 c 256
 609 502 555 480 521 474 c 257
 471 490 l 257
 507 491 562 506 562 544 c 256
 562 600 474 611 366 611 c 256
 290 611 180 606 180 554 c 256
 180 508 242 508 344 504 c 256
 409 501 500 499 555 459 c 256
 604 423 640 356 640 272 c 257
 606 294 l 257
 606 335 590 384 562 414 c 256
 509 472 447 472 346 478 c 256
 257 483 138 476 138 562 c 256
125 165 m 256
 125 250 190 304 291 304 c 258
 352 304 l 257
 352 306 352 306 352 308 c 256
 352 362 318 395 281 395 c 256
 236 395 228 371 222 355 c 256
 215 336 206 323 184 323 c 256
 168 323 148 333 148 359 c 256
 148 404 198 432 253 432 c 256
 341 432 384 376 384 290 c 256
 384 287 384 283 384 280 c 257
 294 280 l 258
 220 280 160 245 160 180 c 256
 160 94 272 71 362 71 c 256
 515 71 606 158 606 300 c 257
 618 289 625 282 640 274 c 257
 640 114 542 0 359 0 c 256
 238 0 125 46 125 165 c 256
27 221 m 256
 27 353 100 433 239 433 c 256
 248 433 271 433 293 427 c 257
 272 416 194 406 177 400 c 257
 102 382 56 319 56 218 c 256
 56 137 83 75 135 30 c 257
 135 0 l 257
 69 33 27 120 27 221 c 256
EndSplineSet
EndChar

StartChar: si_DVIi
Encoding: 494 -1 60
GlifName: si_D_V_I_i
Width: 688
VWidth: 0
Flags: HW
LayerCount: 2
Back
Fore
SplineSet
457 555 m 256
 457 525 484 501 517 501 c 256
 550 501 577 525 577 555 c 256
 577 585 550 609 517 609 c 256
 484 609 457 585 457 555 c 256
139 562 m 256
 139 652 266 670 366 670 c 256
 502 670 609 639 609 558 c 256
 609 505 561 474 517 474 c 256
 473 474 425 505 425 558 c 256
 425 583 438 600 444 608 c 257
 437 609 408 611 366 611 c 256
 290 611 181 606 181 554 c 256
 181 508 242 508 344 504 c 256
 409 501 500 499 555 459 c 256
 604 423 640 359 640 274 c 257
 606 286 l 257
 606 337 590 384 562 414 c 256
 509 472 446 472 345 478 c 256
 256 483 139 476 139 562 c 256
125 165 m 256
 125 250 190 304 291 304 c 258
 352 304 l 257
 352 306 352 306 352 308 c 256
 352 362 318 395 281 395 c 256
 236 395 228 371 222 355 c 256
 215 336 206 323 184 323 c 256
 168 323 148 333 148 359 c 256
 148 404 198 432 253 432 c 256
 341 432 384 376 384 290 c 256
 384 287 384 283 384 280 c 257
 294 280 l 258
 220 280 160 245 160 180 c 256
 160 94 272 71 362 71 c 256
 515 71 606 158 606 300 c 257
 618 289 625 282 640 274 c 257
 640 114 542 0 359 0 c 256
 238 0 125 46 125 165 c 256
27 221 m 256
 27 353 100 433 239 433 c 256
 248 433 271 433 293 427 c 257
 272 416 194 406 177 400 c 257
 102 382 56 319 56 218 c 256
 56 137 83 75 135 30 c 257
 135 0 l 257
 69 33 27 120 27 221 c 256
EndSplineSet
EndChar

StartChar: si_DVU
Encoding: 495 -1 61
GlifName: si_D_V_U_
Width: 688
VWidth: 0
Flags: HW
LayerCount: 2
Back
Fore
SplineSet
136 -142 m 256
 136 -90 183 -50 238 -50 c 256
 280 -50 317 -74 332 -110 c 257
 302 -122 l 257
 295 -102 271 -80 238 -80 c 256
 201 -80 170 -106 170 -142 c 256
 170 -171 192 -199 258 -199 c 258
 597 -199 l 257
 597 128 l 257
 630 219 l 257
 630 -235 l 257
 242 -235 l 258
 173 -235 136 -186 136 -142 c 256
125 165 m 256
 125 250 190 304 291 304 c 258
 352 304 l 257
 352 306 352 306 352 308 c 256
 352 362 318 395 281 395 c 256
 236 395 228 371 222 355 c 256
 215 336 207 323 185 323 c 256
 169 323 148 333 148 360 c 256
 148 403 198 432 253 432 c 256
 341 432 384 376 384 290 c 256
 384 287 384 283 384 280 c 257
 294 280 l 258
 220 280 160 245 160 180 c 256
 160 94 272 71 362 71 c 256
 515 71 606 158 606 300 c 256
 606 442 502 553 368 553 c 256
 289 553 226 525 181 470 c 257
 149 470 l 257
 198 540 270 577 368 577 c 256
 528 577 640 443 640 274 c 256
 640 114 542 0 359 0 c 256
 238 0 125 46 125 165 c 256
27 221 m 256
 27 353 100 433 239 433 c 256
 248 433 271 433 293 427 c 257
 272 416 194 406 177 400 c 257
 102 382 56 319 56 218 c 256
 56 137 83 75 135 30 c 257
 135 0 l 257
 69 33 27 120 27 221 c 256
EndSplineSet
EndChar

StartChar: si_DVUu
Encoding: 496 -1 62
GlifName: si_D_V_U_u
Width: 688
VWidth: 0
Flags: HW
LayerCount: 2
Back
Fore
SplineSet
138 -138 m 256
 138 -80 187 -40 240 -40 c 256
 282 -40 314 -55 337 -91 c 257
 307 -102 l 257
 295 -83 274 -68 245 -68 c 256
 206 -68 174 -92 174 -129 c 256
 174 -166 205 -191 248 -191 c 256
 332 -191 399 -117 494 -117 c 256
 542 -117 573 -134 597 -160 c 257
 597 152 l 257
 630 212 l 257
 630 -231 l 257
 607 -231 l 257
 592 -195 562 -144 497 -144 c 256
 406 -144 347 -237 249 -237 c 256
 194 -237 138 -206 138 -138 c 256
125 165 m 256
 125 250 190 304 291 304 c 258
 352 304 l 257
 352 306 352 306 352 308 c 256
 352 362 318 395 281 395 c 256
 236 395 228 371 222 355 c 256
 215 336 207 323 185 323 c 256
 169 323 148 333 148 360 c 256
 148 403 198 432 253 432 c 256
 341 432 384 376 384 290 c 256
 384 287 384 283 384 280 c 257
 294 280 l 258
 220 280 160 245 160 180 c 256
 160 94 272 71 362 71 c 256
 515 71 606 158 606 300 c 256
 606 442 502 553 368 553 c 256
 289 553 226 525 181 470 c 257
 149 470 l 257
 198 540 270 577 368 577 c 256
 528 577 640 443 640 274 c 256
 640 114 542 0 359 0 c 256
 238 0 125 46 125 165 c 256
27 221 m 256
 27 353 100 433 239 433 c 256
 248 433 271 433 293 427 c 257
 272 416 194 406 177 400 c 257
 102 382 56 319 56 218 c 256
 56 137 83 75 135 30 c 257
 135 0 l 257
 69 33 27 120 27 221 c 256
EndSplineSet
EndChar

StartChar: si_DVa
Encoding: 439 -1 63
GlifName: si_D_V_a
Width: 688
VWidth: 0
Flags: HW
LayerCount: 2
Back
Fore
SplineSet
125 165 m 256
 125 250 190 304 291 304 c 258
 352 304 l 257
 352 306 352 306 352 308 c 256
 352 362 318 395 281 395 c 256
 236 395 228 371 222 355 c 256
 215 336 207 323 185 323 c 256
 169 323 148 333 148 360 c 256
 148 403 198 432 253 432 c 256
 341 432 384 376 384 290 c 256
 384 287 384 283 384 280 c 257
 294 280 l 258
 220 280 160 245 160 180 c 256
 160 94 272 71 362 71 c 256
 515 71 606 158 606 300 c 256
 606 442 502 553 368 553 c 256
 289 553 226 525 181 470 c 257
 149 470 l 257
 198 540 270 577 368 577 c 256
 528 577 640 443 640 274 c 256
 640 114 542 0 359 0 c 256
 238 0 125 46 125 165 c 256
27 221 m 256
 27 353 100 433 239 433 c 256
 248 433 271 433 293 427 c 257
 272 416 194 406 177 400 c 257
 102 382 56 319 56 218 c 256
 56 137 83 75 135 30 c 257
 135 0 l 257
 69 33 27 120 27 221 c 256
EndSplineSet
EndChar

StartChar: si_DYAa.post
Encoding: 270 -1 64
GlifName: si_D_Y_A_a.post
Width: 787
VWidth: 0
Flags: HW
LayerCount: 2
Back
Fore
SplineSet
592 -31 m 257
 619 -31 l 257
 619 -7 631 19 660 19 c 256
 691 19 706 -28 706 -73 c 256
 706 -134 695 -173 653 -173 c 256
 634 -173 624 -162 624 -152 c 257
 598 -152 l 257
 598 -173 614 -198 663 -198 c 256
 722 -198 762 -161 762 -73 c 256
 762 -4 728 48 674 48 c 256
 615 48 592 7 592 -31 c 257
340 46 m 257
 349 48 354 50 364 50 c 256
 389 50 424 10 424 -42 c 256
 424 -77 417 -103 400 -134 c 257
 424 -149 454 -153 476 -153 c 256
 513 -153 558 -136 558 -94 c 256
 558 -57 527 -43 490 -43 c 256
 471 -43 444 -35 444 4 c 256
 444 34 472 54 508 54 c 256
 543 54 571 34 571 -1 c 256
 571 -5 571 -9 570 -13 c 257
 544 -13 l 257
 545 -9 546 -6 546 -2 c 256
 546 19 534 32 508 32 c 256
 486 32 470 21 470 4 c 256
 470 -18 485 -22 508 -22 c 256
 543 -22 593 -46 593 -107 c 256
 593 -166 540 -205 488 -205 c 256
 441 -205 412 -193 383 -156 c 257
 364 -177 338 -197 312 -205 c 257
 297 -184 l 257
 352 -161 398 -120 398 -44 c 256
 398 -2 374 30 350 30 c 256
 341 30 335 29 328 28 c 257
 340 46 l 257
234 -1 m 256
 103 -1 31 69 31 169 c 256
 31 274 104 317 223 317 c 258
 343 317 l 257
 333 363 304 396 260 396 c 256
 241 396 225 384 216 366 c 256
 206 344 190 336 175 336 c 256
 150 336 137 351 137 372 c 256
 137 408 177 433 232 433 c 256
 318 433 361 389 379 294 c 257
 242 294 l 258
 154 294 108 257 108 173 c 256
 108 89 173 26 258 26 c 256
 308 26 350 46 390 92 c 257
 412 75 l 257
 372 42 345 -1 234 -1 c 256
EndSplineSet
EndChar

StartChar: si_DYOo.post
Encoding: 273 -1 65
GlifName: si_D_Y_O_o.post
Width: 895
VWidth: 0
Flags: HW
LayerCount: 2
Back
Fore
SplineSet
731 -53 m 257
 731 680 l 257
 785 638 881 633 881 541 c 256
 881 497 846 467 803 467 c 256
 788 467 773 470 758 477 c 257
 758 -101 l 257
 731 -53 l 257
758 637 m 257
 758 502 l 257
 767 497 778 495 791 495 c 256
 829 495 844 520 844 544 c 256
 844 586 805 606 758 637 c 257
592 -31 m 257
 592 7 615 48 674 48 c 256
 728 48 762 -4 762 -73 c 256
 762 -161 722 -198 663 -198 c 256
 614 -198 598 -173 598 -152 c 257
 624 -152 l 257
 624 -162 634 -173 653 -173 c 256
 695 -173 706 -134 706 -73 c 256
 706 -28 691 19 660 19 c 256
 631 19 619 -7 619 -31 c 257
 592 -31 l 257
340 46 m 257
 349 48 354 50 364 50 c 256
 389 50 424 10 424 -42 c 256
 424 -77 417 -103 400 -134 c 257
 424 -149 454 -153 476 -153 c 256
 513 -153 558 -136 558 -94 c 256
 558 -57 527 -43 490 -43 c 256
 471 -43 444 -35 444 4 c 256
 444 34 472 54 508 54 c 256
 543 54 571 34 571 -1 c 256
 571 -5 571 -9 570 -13 c 257
 544 -13 l 257
 545 -9 546 -6 546 -2 c 256
 546 19 534 32 508 32 c 256
 486 32 470 21 470 4 c 256
 470 -18 485 -22 508 -22 c 256
 543 -22 593 -46 593 -107 c 256
 593 -166 540 -205 488 -205 c 256
 441 -205 412 -193 383 -156 c 257
 364 -177 338 -197 312 -205 c 257
 297 -184 l 257
 352 -161 398 -120 398 -44 c 256
 398 -2 374 30 350 30 c 256
 341 30 335 29 328 28 c 257
 340 46 l 257
234 -1 m 256
 103 -1 31 69 31 169 c 256
 31 274 104 317 223 317 c 258
 343 317 l 257
 333 363 304 396 260 396 c 256
 241 396 225 384 216 366 c 256
 206 344 190 336 175 336 c 256
 150 336 137 351 137 372 c 256
 137 408 177 433 232 433 c 256
 318 433 361 389 379 294 c 257
 242 294 l 258
 154 294 108 257 108 173 c 256
 108 89 173 26 258 26 c 256
 308 26 350 46 390 92 c 257
 412 75 l 257
 372 42 345 -1 234 -1 c 256
EndSplineSet
EndChar

StartChar: si_DYUu.post
Encoding: 272 -1 66
GlifName: si_D_Y_U_u.post
Width: 614
VWidth: 0
Flags: HW
LayerCount: 2
Back
Fore
SplineSet
340 46 m 257
 349 48 354 50 364 50 c 256
 389 50 424 10 424 -42 c 256
 424 -77 417 -103 400 -134 c 257
 424 -149 454 -153 476 -153 c 256
 513 -153 558 -136 558 -94 c 256
 558 -57 527 -43 490 -43 c 256
 471 -43 444 -35 444 4 c 256
 444 34 472 54 508 54 c 256
 543 54 571 34 571 -1 c 256
 571 -5 571 -9 570 -13 c 257
 544 -13 l 257
 545 -9 546 -6 546 -2 c 256
 546 19 534 32 508 32 c 256
 486 32 470 21 470 4 c 256
 470 -18 485 -22 508 -22 c 256
 543 -22 593 -46 593 -107 c 256
 593 -166 540 -205 488 -205 c 256
 441 -205 412 -193 383 -156 c 257
 364 -177 338 -197 312 -205 c 257
 297 -184 l 257
 352 -161 398 -120 398 -44 c 256
 398 -2 374 28 350 28 c 256
 341 28 335 27 328 26 c 257
 340 46 l 257
234 -1 m 256
 103 -1 31 69 31 169 c 256
 31 274 104 317 223 317 c 258
 343 317 l 257
 333 363 304 396 260 396 c 256
 241 396 225 384 216 366 c 256
 206 344 190 336 175 336 c 256
 150 336 137 351 137 372 c 256
 137 408 177 433 232 433 c 256
 318 433 361 389 379 294 c 257
 242 294 l 258
 154 294 108 257 108 173 c 256
 108 89 173 26 258 26 c 256
 308 26 350 46 390 92 c 257
 412 75 l 257
 372 42 345 -1 234 -1 c 256
586 -139 m 257
 586 -344 l 257
 586 -344 570 -344 562 -343 c 257
 554 -327 533 -314 500 -314 c 256
 453 -314 432 -348 377 -348 c 256
 338 -348 307 -323 307 -282 c 256
 307 -244 334 -220 373 -220 c 256
 404 -220 421 -235 431 -257 c 257
 409 -268 l 257
 402 -251 387 -242 371 -242 c 256
 350 -242 334 -255 334 -276 c 256
 334 -303 355 -314 381 -314 c 256
 431 -314 454 -292 504 -292 c 256
 542 -292 559 -308 559 -308 c 257
 559 -176 l 257
 586 -139 l 257
EndSplineSet
EndChar

StartChar: si_DYa.post
Encoding: 269 -1 67
GlifName: si_D_Y_a.post
Width: 614
VWidth: 0
Flags: HW
LayerCount: 2
Back
Fore
SplineSet
340 46 m 257
 349 48 354 50 364 50 c 256
 389 50 424 10 424 -42 c 256
 424 -77 417 -103 400 -134 c 257
 424 -149 454 -153 476 -153 c 256
 513 -153 558 -136 558 -94 c 256
 558 -57 527 -43 490 -43 c 256
 471 -43 444 -35 444 4 c 256
 444 34 472 54 508 54 c 256
 543 54 571 34 571 -1 c 256
 571 -5 571 -9 570 -13 c 257
 544 -13 l 257
 545 -9 546 -6 546 -2 c 256
 546 19 534 32 508 32 c 256
 486 32 470 21 470 4 c 256
 470 -18 485 -22 508 -22 c 256
 543 -22 593 -46 593 -107 c 256
 593 -166 540 -205 488 -205 c 256
 441 -205 412 -193 383 -156 c 257
 364 -177 338 -197 312 -205 c 257
 297 -184 l 257
 352 -161 398 -120 398 -44 c 256
 398 -2 374 30 350 30 c 256
 341 30 335 29 328 28 c 257
 340 46 l 257
234 -1 m 256
 103 -1 31 69 31 169 c 256
 31 274 104 317 223 317 c 258
 343 317 l 257
 333 363 304 396 260 396 c 256
 241 396 225 384 216 366 c 256
 206 344 190 336 175 336 c 256
 150 336 137 351 137 372 c 256
 137 408 177 433 232 433 c 256
 318 433 361 389 379 294 c 257
 242 294 l 258
 154 294 108 257 108 173 c 256
 108 89 173 26 258 26 c 256
 308 26 350 46 390 92 c 257
 412 75 l 257
 372 42 345 -1 234 -1 c 256
EndSplineSet
EndChar

StartChar: si_DYu.post
Encoding: 271 -1 68
GlifName: si_D_Y_u.post
Width: 614
VWidth: 0
Flags: HW
LayerCount: 2
Back
Fore
SplineSet
340 46 m 257
 349 48 354 50 364 50 c 256
 389 50 424 10 424 -42 c 256
 424 -77 417 -103 400 -134 c 257
 424 -149 454 -153 476 -153 c 256
 513 -153 558 -136 558 -94 c 256
 558 -57 527 -43 490 -43 c 256
 471 -43 444 -35 444 4 c 256
 444 34 472 54 508 54 c 256
 543 54 571 34 571 -1 c 256
 571 -5 571 -9 570 -13 c 257
 544 -13 l 257
 545 -9 546 -6 546 -2 c 256
 546 19 534 32 508 32 c 256
 486 32 470 21 470 4 c 256
 470 -18 485 -22 508 -22 c 256
 543 -22 593 -46 593 -107 c 256
 593 -166 540 -205 488 -205 c 256
 441 -205 412 -193 383 -156 c 257
 364 -177 338 -197 312 -205 c 257
 297 -184 l 257
 352 -161 398 -120 398 -44 c 256
 398 -2 374 28 350 28 c 256
 341 28 335 27 328 26 c 257
 340 46 l 257
234 -1 m 256
 103 -1 31 69 31 169 c 256
 31 274 104 317 223 317 c 258
 343 317 l 257
 333 363 304 396 260 396 c 256
 241 396 225 384 216 366 c 256
 206 344 190 336 175 336 c 256
 150 336 137 351 137 372 c 256
 137 408 177 433 232 433 c 256
 318 433 361 389 379 294 c 257
 242 294 l 258
 154 294 108 257 108 173 c 256
 108 89 173 26 258 26 c 256
 308 26 350 46 390 92 c 257
 412 75 l 257
 372 42 345 -1 234 -1 c 256
586 -139 m 257
 586 -348 l 257
 389 -348 l 258
 334 -348 307 -318 307 -280 c 256
 307 -245 334 -220 373 -220 c 256
 404 -220 421 -235 431 -257 c 257
 409 -268 l 257
 402 -251 387 -242 371 -242 c 256
 350 -242 334 -257 334 -274 c 256
 334 -293 342 -313 402 -313 c 258
 559 -313 l 257
 559 -176 l 257
 586 -139 l 257
EndSplineSet
EndChar

StartChar: si_Da.reph
Encoding: 265 -1 69
GlifName: si_D_a.reph
Width: 456
VWidth: 0
Flags: HW
LayerCount: 2
Back
Fore
SplineSet
199 511 m 256
 199 490 218 474 240 474 c 256
 262 474 280 490 280 511 c 256
 280 532 262 548 240 548 c 256
 218 548 199 532 199 511 c 256
96 530 m 256
 96 594 154 631 236 631 c 256
 313 631 378 588 378 517 c 256
 378 493 369 471 352 452 c 257
 319 452 l 257
 332 464 347 489 347 516 c 256
 347 573 297 604 236 604 c 256
 183 604 128 583 128 530 c 256
 128 491 169 472 192 470 c 257
 184 476 172 491 172 512 c 256
 172 547 202 572 238 572 c 256
 279 572 308 545 308 510 c 256
 308 471 272 445 214 445 c 256
 155 445 96 474 96 530 c 256
EndSplineSet
Refer: 460 3503 N 1 0 0 1 0 0 2
EndChar

StartChar: si_Dd.halant
Encoding: 214 -1 70
GlifName: si_D_d.halant
Width: 647
VWidth: 0
Flags: HW
LayerCount: 2
Back
Fore
SplineSet
147 543 m 256
 147 531 171 526 171 515 c 256
 171 513 170 510 168 508 c 257
 201 514 241 519 287 519 c 256
 395 519 480 490 538 422 c 257
 505 537 408 590 292 590 c 256
 220 590 147 567 147 543 c 256
50 442 m 257
 50 473 l 257
 82 485 134 499 134 508 c 256
 134 520 106 524 106 546 c 256
 106 583 171 629 286 629 c 256
 494 629 568 490 580 356 c 257
 591 329 598 296 598 254 c 257
 561 250 l 257
 561 253 562 267 562 272 c 256
 562 409 451 493 290 493 c 256
 214 493 131 480 50 442 c 257
15 288 m 257
 15 315 l 257
 261 315 l 257
 258 358 228 391 198 391 c 256
 180 391 165 387 151 363 c 256
 140 344 127 339 113 339 c 256
 93 339 76 353 76 374 c 256
 76 414 123 432 165 432 c 256
 249 432 294 374 295 288 c 257
 220 288 l 258
 127 288 83 230 83 174 c 256
 83 122 123 71 198 71 c 256
 247 71 299 95 299 143 c 258
 299 178 l 257
 326 178 l 257
 326 143 l 258
 326 97 374 71 424 71 c 256
 520 71 562 167 562 273 c 257
 577 270 591 262 598 258 c 257
 598 126 547 0 428 -0 c 256
 363 0 335 29 313 59 c 257
 283 22 250 0 199 0 c 256
 98 0 46 81 46 162 c 256
 46 212 71 264 125 288 c 257
 15 288 l 257
EndSplineSet
EndChar

StartChar: si_DdI
Encoding: 215 -1 71
GlifName: si_D_dI_
Width: 647
VWidth: 0
Flags: HW
LayerCount: 2
Back
Fore
SplineSet
79 562 m 256
 79 652 215 670 315 670 c 256
 451 670 566 639 566 554 c 256
 566 502 512 480 478 474 c 257
 428 490 l 257
 464 491 519 506 519 544 c 256
 519 600 423 611 315 611 c 256
 239 611 121 606 121 554 c 256
 121 508 191 508 293 504 c 256
 358 501 457 499 512 459 c 256
 561 423 598 344 598 255 c 257
 562 268 l 257
 562 327 547 384 519 414 c 256
 466 472 395 472 294 478 c 256
 205 483 79 476 79 562 c 256
15 288 m 257
 15 315 l 257
 261 315 l 257
 258 358 228 391 198 391 c 256
 180 391 165 387 151 363 c 256
 140 344 127 339 113 339 c 256
 93 339 76 353 76 374 c 256
 76 414 123 432 165 432 c 256
 249 432 294 374 295 288 c 257
 220 288 l 258
 127 288 83 230 83 174 c 256
 83 122 123 71 198 71 c 256
 247 71 299 95 299 143 c 258
 299 178 l 257
 326 178 l 257
 326 143 l 258
 326 97 374 71 424 71 c 256
 520 71 562 167 562 273 c 257
 577 270 591 262 598 258 c 257
 598 126 547 0 428 -0 c 256
 363 0 335 29 313 59 c 257
 283 22 250 0 199 0 c 256
 98 0 46 81 46 162 c 256
 46 212 71 264 125 288 c 257
 15 288 l 257
EndSplineSet
EndChar

StartChar: si_DdIi
Encoding: 216 -1 72
GlifName: si_D_dI_i
Width: 647
VWidth: 0
Flags: HW
LayerCount: 2
Back
Fore
SplineSet
414 555 m 256
 414 525 442 501 475 501 c 256
 508 501 535 525 535 555 c 256
 535 585 508 609 475 609 c 256
 442 609 414 585 414 555 c 256
80 562 m 256
 80 652 215 670 315 670 c 256
 451 670 567 643 567 558 c 256
 567 505 519 474 475 474 c 256
 431 474 383 505 383 558 c 256
 383 583 396 600 402 608 c 257
 395 609 357 611 315 611 c 256
 239 611 122 606 122 554 c 256
 122 508 191 508 293 504 c 256
 358 501 458 499 513 459 c 256
 562 423 598 348 598 254 c 257
 562 270 l 257
 562 333 548 384 520 414 c 256
 467 472 395 472 294 478 c 256
 205 483 80 476 80 562 c 256
15 288 m 257
 15 315 l 257
 261 315 l 257
 258 358 228 391 198 391 c 256
 180 391 165 387 151 363 c 256
 140 344 127 339 113 339 c 256
 93 339 76 353 76 374 c 256
 76 414 123 432 165 432 c 256
 249 432 294 374 295 288 c 257
 220 288 l 258
 127 288 83 230 83 174 c 256
 83 122 123 71 198 71 c 256
 247 71 299 95 299 143 c 258
 299 178 l 257
 326 178 l 257
 326 143 l 258
 326 97 374 71 424 71 c 256
 520 71 562 167 562 273 c 257
 577 270 591 262 598 258 c 257
 598 126 547 0 428 -0 c 256
 363 0 335 29 313 59 c 257
 283 22 250 0 199 0 c 256
 98 0 46 81 46 162 c 256
 46 212 71 264 125 288 c 257
 15 288 l 257
EndSplineSet
EndChar

StartChar: si_DdRI
Encoding: 221 -1 73
GlifName: si_D_dR_I_
Width: 647
VWidth: 0
Flags: HW
LayerCount: 2
Back
Fore
SplineSet
56 -44 m 257
 83 -44 l 257
 118 -119 188 -157 293 -157 c 256
 436 -157 554 -90 554 50 c 256
 554 71 549 93 542 102 c 257
 555 133 l 257
 573 106 582 75 582 38 c 256
 582 -124 453 -219 309 -219 c 256
 176 -219 93 -153 56 -44 c 257
EndSplineSet
Refer: 71 -1 N 1 0 0 1 0 0 2
EndChar

StartChar: si_DdRIi
Encoding: 222 -1 74
GlifName: si_D_dR_I_i
Width: 647
VWidth: 0
Flags: HW
LayerCount: 2
Back
Fore
SplineSet
56 -44 m 257
 83 -44 l 257
 118 -119 188 -157 293 -157 c 256
 436 -157 554 -90 554 50 c 256
 554 71 549 93 542 102 c 257
 555 133 l 257
 573 106 582 75 582 38 c 256
 582 -124 453 -219 309 -219 c 256
 176 -219 93 -153 56 -44 c 257
EndSplineSet
Refer: 72 -1 N 1 0 0 1 0 0 2
EndChar

StartChar: si_DdRa
Encoding: 220 -1 75
GlifName: si_D_dR_a
Width: 647
VWidth: 0
Flags: HW
LayerCount: 2
Back
Fore
SplineSet
56 -44 m 257
 83 -44 l 257
 118 -119 188 -157 293 -157 c 256
 436 -157 554 -90 554 50 c 256
 554 71 549 93 542 102 c 257
 555 133 l 257
 573 106 582 75 582 38 c 256
 582 -124 453 -219 309 -219 c 256
 176 -219 93 -153 56 -44 c 257
EndSplineSet
Refer: 454 3497 N 1 0 0 1 0 0 2
EndChar

StartChar: si_DdU
Encoding: 217 -1 76
GlifName: si_D_dU_
Width: 647
VWidth: 0
Flags: HW
LayerCount: 2
Back
Fore
SplineSet
52 -142 m 256
 52 -90 98 -50 153 -50 c 256
 195 -50 232 -74 247 -110 c 257
 217 -122 l 257
 210 -102 186 -80 153 -80 c 256
 116 -80 85 -106 85 -142 c 256
 85 -171 108 -199 174 -199 c 258
 552 -199 l 257
 552 128 l 257
 585 219 l 257
 585 -235 l 257
 157 -235 l 258
 88 -235 52 -186 52 -142 c 256
EndSplineSet
Refer: 454 3497 N 1 0 0 1 0 0 2
EndChar

StartChar: si_DdUu
Encoding: 218 -1 77
GlifName: si_D_dU_u
Width: 647
VWidth: 0
Flags: HW
LayerCount: 2
Back
Fore
SplineSet
51 -138 m 256
 51 -80 100 -40 153 -40 c 256
 195 -40 227 -55 250 -91 c 257
 220 -102 l 257
 208 -83 187 -68 158 -68 c 256
 119 -68 87 -92 87 -129 c 256
 87 -166 118 -191 161 -191 c 256
 245 -191 331 -117 426 -117 c 256
 476 -117 526 -136 553 -168 c 257
 553 152 l 257
 586 212 l 257
 586 -231 l 257
 563 -231 l 257
 543 -193 501 -145 430 -145 c 256
 339 -145 260 -237 162 -237 c 256
 107 -237 51 -206 51 -138 c 256
EndSplineSet
Refer: 454 3497 N 1 0 0 1 0 0 2
EndChar

StartChar: si_Dda.reph
Encoding: 219 -1 78
GlifName: si_D_da.reph
Width: 647
VWidth: 0
Flags: HW
LayerCount: 2
Back
Fore
SplineSet
277 622 m 256
 277 601 296 585 318 585 c 256
 340 585 359 601 359 622 c 256
 359 643 340 659 318 659 c 256
 296 659 277 643 277 622 c 256
175 641 m 256
 175 705 233 742 315 742 c 256
 392 742 456 699 456 628 c 256
 456 604 448 582 431 563 c 257
 398 563 l 257
 411 575 426 600 426 627 c 256
 426 684 375 715 314 715 c 256
 261 715 206 694 206 641 c 256
 206 602 248 583 271 581 c 257
 263 587 250 602 250 623 c 256
 250 658 281 683 317 683 c 256
 358 683 386 656 386 621 c 256
 386 582 351 556 293 556 c 256
 234 556 175 585 175 641 c 256
EndSplineSet
Refer: 454 3497 N 1 0 0 1 0 0 2
EndChar

StartChar: si_Ddh.halant
Encoding: 223 -1 79
GlifName: si_D_dh.halant
Width: 647
VWidth: 0
Flags: HW
LayerCount: 2
Back
Fore
SplineSet
477 519 m 257
 483 516 499 513 510 513 c 256
 540 513 563 526 563 562 c 256
 563 618 498 635 477 652 c 257
 477 519 l 257
449 483 m 257
 449 697 l 257
 505 650 604 654 604 561 c 256
 604 521 574 488 527 488 c 256
 503 488 486 493 477 496 c 257
 477 453 l 257
 449 483 l 257
330 480 m 256
 330 431 351 391 408 391 c 256
 432 391 462 401 477 436 c 257
 448 476 390 528 352 556 c 257
 342 541 330 515 330 480 c 256
15 288 m 257
 15 315 l 257
 258 315 l 257
 255 358 225 391 195 391 c 256
 177 391 162 387 148 363 c 256
 137 344 124 339 110 339 c 256
 90 339 73 353 73 374 c 256
 73 414 120 432 162 432 c 256
 246 432 291 374 292 288 c 257
 220 288 l 258
 127 288 83 230 83 174 c 256
 83 122 123 71 198 71 c 256
 247 71 299 95 299 143 c 258
 299 178 l 257
 326 178 l 257
 326 143 l 258
 326 97 374 71 424 71 c 256
 520 71 559 166 559 232 c 256
 559 318 517 376 496 408 c 257
 475 373 443 355 400 355 c 256
 337 355 300 410 300 476 c 256
 300 526 317 561 342 593 c 257
 403 560 476 486 518 428 c 256
 561 368 597 292 597 217 c 256
 597 128 553 0 426 0 c 256
 364 0 335 29 313 59 c 257
 283 22 250 0 199 0 c 256
 98 0 46 81 46 162 c 256
 46 212 71 264 125 288 c 257
 15 288 l 257
EndSplineSet
EndChar

StartChar: si_DdhI
Encoding: 224 -1 80
GlifName: si_D_dhI_
Width: 647
VWidth: 0
Flags: HW
LayerCount: 2
Back
Fore
SplineSet
342 480 m 256
 342 431 361 391 418 391 c 256
 442 391 473 401 489 436 c 257
 460 476 400 528 362 556 c 257
 352 541 342 515 342 480 c 256
15 288 m 257
 15 315 l 257
 258 315 l 257
 255 358 225 391 195 391 c 256
 177 391 162 387 148 363 c 256
 137 344 124 339 110 339 c 256
 90 339 73 353 73 374 c 256
 73 414 120 432 162 432 c 256
 246 432 291 374 292 288 c 257
 220 288 l 258
 127 288 83 230 83 174 c 256
 83 122 123 71 198 71 c 256
 247 71 299 95 299 143 c 258
 299 178 l 257
 326 178 l 257
 326 143 l 258
 326 97 374 71 424 71 c 256
 520 71 559 166 559 232 c 256
 559 318 530 378 509 408 c 257
 488 373 456 355 412 355 c 256
 349 355 312 410 312 476 c 256
 312 526 329 561 354 593 c 257
 415 561 485 493 529 434 c 256
 577 369 597 295 597 217 c 256
 597 128 553 0 426 0 c 256
 364 0 335 29 313 59 c 257
 283 22 250 0 199 0 c 256
 98 0 46 81 46 162 c 256
 46 212 71 264 125 288 c 257
 15 288 l 257
112 574 m 256
 112 666 226 700 334 700 c 256
 436 700 556 664 556 573 c 256
 556 526 519 499 464 499 c 257
 458 504 451 513 447 521 c 257
 460 522 520 520 520 565 c 256
 520 622 411 635 337 635 c 256
 218 635 151 611 151 566 c 256
 151 527 194 514 228 514 c 256
 273 514 307 527 324 535 c 257
 323 529 324 521 320 505 c 257
 295 497 269 489 226 489 c 256
 166 489 112 516 112 574 c 256
EndSplineSet
EndChar

StartChar: si_DdhIi
Encoding: 225 -1 81
GlifName: si_D_dhI_i
Width: 647
VWidth: 0
Flags: HW
LayerCount: 2
Back
Fore
SplineSet
342 480 m 256
 342 431 361 391 418 391 c 256
 442 391 473 401 489 436 c 257
 460 476 400 528 362 556 c 257
 352 541 342 515 342 480 c 256
15 288 m 257
 15 315 l 257
 258 315 l 257
 255 358 225 391 195 391 c 256
 177 391 162 387 148 363 c 256
 137 344 124 339 110 339 c 256
 90 339 73 353 73 374 c 256
 73 414 120 432 162 432 c 256
 246 432 291 374 292 288 c 257
 220 288 l 258
 127 288 83 230 83 174 c 256
 83 122 123 71 198 71 c 256
 247 71 299 95 299 143 c 258
 299 178 l 257
 326 178 l 257
 326 143 l 258
 326 97 374 71 424 71 c 256
 520 71 559 166 559 232 c 256
 559 318 530 378 509 408 c 257
 488 373 456 355 412 355 c 256
 349 355 312 410 312 476 c 256
 312 526 329 561 354 593 c 257
 415 561 485 493 529 434 c 256
 577 369 597 295 597 217 c 256
 597 128 553 0 426 0 c 256
 364 0 335 29 313 59 c 257
 283 22 250 0 199 0 c 256
 98 0 46 81 46 162 c 256
 46 212 71 264 125 288 c 257
 15 288 l 257
448 576 m 256
 448 547 470 524 499 524 c 256
 528 524 550 547 550 576 c 256
 550 605 528 627 499 627 c 256
 470 627 448 605 448 576 c 256
112 574 m 256
 112 666 226 700 335 700 c 256
 502 700 580 651 580 575 c 256
 580 535 549 495 499 495 c 256
 451 495 418 534 418 574 c 256
 418 588 424 612 441 629 c 257
 419 634 379 638 330 638 c 256
 216 638 151 611 151 566 c 256
 151 527 194 514 228 514 c 256
 273 514 307 527 324 535 c 257
 323 529 324 521 320 505 c 257
 295 497 269 489 226 489 c 256
 166 489 112 516 112 574 c 256
EndSplineSet
EndChar

StartChar: si_DdhU
Encoding: 226 -1 82
GlifName: si_D_dhU_
Width: 647
VWidth: 0
Flags: HW
LayerCount: 2
Back
Fore
SplineSet
52 -142 m 256
 52 -90 98 -50 153 -50 c 256
 195 -50 232 -74 247 -110 c 257
 217 -122 l 257
 210 -102 186 -80 153 -80 c 256
 116 -80 85 -106 85 -142 c 256
 85 -171 108 -199 174 -199 c 258
 552 -199 l 257
 552 128 l 257
 585 219 l 257
 585 -235 l 257
 157 -235 l 258
 88 -235 52 -186 52 -142 c 256
EndSplineSet
Refer: 455 3498 N 1 0 0 1 0 0 2
EndChar

StartChar: si_DdhUu
Encoding: 227 -1 83
GlifName: si_D_dhU_u
Width: 647
VWidth: 0
Flags: HW
LayerCount: 2
Back
Fore
SplineSet
51 -138 m 256
 51 -80 100 -40 153 -40 c 256
 195 -40 227 -55 250 -91 c 257
 220 -102 l 257
 208 -83 187 -68 158 -68 c 256
 119 -68 87 -92 87 -129 c 256
 87 -166 118 -191 161 -191 c 256
 245 -191 331 -117 426 -117 c 256
 476 -117 526 -136 553 -168 c 257
 553 152 l 257
 586 212 l 257
 586 -231 l 257
 563 -231 l 257
 543 -193 501 -145 430 -145 c 256
 339 -145 260 -237 162 -237 c 256
 107 -237 51 -206 51 -138 c 256
EndSplineSet
Refer: 455 3498 N 1 0 0 1 0 0 2
EndChar

StartChar: si_Dh.halant
Encoding: 274 -1 84
GlifName: si_D_h.halant
Width: 638
VWidth: 0
Flags: HW
LayerCount: 2
Back
Fore
SplineSet
139 543 m 256
 139 531 163 526 163 515 c 256
 163 513 162 510 160 508 c 257
 193 514 233 519 279 519 c 256
 387 519 472 490 530 422 c 257
 497 537 400 590 284 590 c 256
 212 590 139 567 139 543 c 256
33 195 m 256
 33 288 86 364 152 387 c 256
 173 394 196 398 221 398 c 257
 221 373 l 258
 218 373 214 373 211 373 c 256
 132 373 67 301 67 212 c 256
 67 136 115 71 188 71 c 256
 239 71 290 92 290 156 c 258
 290 196 l 257
 318 196 l 257
 318 156 l 258
 318 92 368 71 417 71 c 256
 517 71 554 188 554 266 c 256
 554 413 443 494 282 494 c 256
 206 494 123 480 42 442 c 257
 42 473 l 257
 74 485 126 499 126 508 c 256
 126 520 98 524 98 546 c 256
 98 583 163 629 278 629 c 256
 486 629 560 490 572 356 c 257
 581 331 590 287 590 245 c 256
 590 134 548 0 422 0 c 256
 373 0 333 20 303 59 c 257
 272 20 235 0 190 0 c 256
 88 0 33 96 33 195 c 256
EndSplineSet
EndChar

StartChar: si_DhI
Encoding: 275 -1 85
GlifName: si_D_hI_
Width: 638
VWidth: 0
Flags: HW
LayerCount: 2
Back
Fore
SplineSet
33 195 m 256
 33 288 86 364 152 387 c 256
 173 394 196 398 221 398 c 257
 221 373 l 258
 218 373 214 373 211 373 c 256
 132 373 67 300 67 208 c 256
 67 132 115 71 188 71 c 256
 239 71 290 92 290 156 c 258
 290 196 l 257
 318 196 l 257
 318 156 l 258
 318 92 368 71 417 71 c 256
 499 71 553 159 553 263 c 256
 553 302 544 371 505 414 c 256
 452 472 386 472 285 478 c 256
 196 483 75 476 75 562 c 256
 75 652 206 670 306 670 c 256
 442 670 552 639 552 554 c 256
 552 505 504 482 470 475 c 257
 480 470 489 465 498 459 c 256
 546 424 588 353 590 248 c 256
 590 136 547 0 422 0 c 256
 373 0 333 20 303 59 c 257
 272 20 235 0 190 0 c 256
 88 0 33 96 33 195 c 256
117 554 m 256
 117 508 182 508 284 504 c 256
 324 502 376 500 422 490 c 257
 458 493 505 509 505 544 c 256
 505 600 414 611 306 611 c 256
 230 611 117 606 117 554 c 256
EndSplineSet
EndChar

StartChar: si_DhIi
Encoding: 276 -1 86
GlifName: si_D_hI_i
Width: 638
VWidth: 0
Flags: HW
LayerCount: 2
Back
Fore
SplineSet
33 195 m 256
 33 288 86 364 152 387 c 256
 173 394 196 398 221 398 c 257
 221 373 l 258
 218 373 214 373 211 373 c 256
 132 373 67 300 67 208 c 256
 67 132 115 71 188 71 c 256
 239 71 290 92 290 156 c 258
 290 196 l 257
 318 196 l 257
 318 156 l 258
 318 92 368 71 417 71 c 256
 499 71 553 159 553 263 c 256
 553 318 542 374 505 414 c 256
 452 472 386 472 285 478 c 256
 196 483 75 476 75 562 c 256
 75 652 206 670 306 670 c 256
 442 670 552 639 552 558 c 256
 552 509 512 480 471 475 c 257
 481 471 490 465 498 459 c 256
 553 417 590 344 590 241 c 256
 590 131 545 0 422 0 c 256
 373 0 333 20 303 59 c 257
 272 20 235 0 190 0 c 256
 88 0 33 96 33 195 c 256
400 555 m 256
 400 525 427 501 460 501 c 256
 493 501 520 525 520 555 c 256
 520 585 493 609 460 609 c 256
 427 609 400 585 400 555 c 256
399 495 m 257
 381 509 368 531 368 558 c 256
 368 583 381 600 387 608 c 257
 380 609 348 611 306 611 c 256
 230 611 117 606 117 554 c 256
 117 508 182 508 284 504 c 256
 318 503 359 502 399 495 c 257
EndSplineSet
EndChar

StartChar: si_DhRI
Encoding: 281 -1 87
GlifName: si_D_hR_I_
Width: 638
VWidth: 0
Flags: HW
LayerCount: 2
Back
Fore
SplineSet
56 -44 m 257
 83 -44 l 257
 118 -119 188 -157 293 -157 c 256
 436 -157 554 -90 554 50 c 256
 554 71 549 93 542 102 c 257
 555 133 l 257
 573 106 582 75 582 38 c 256
 582 -124 453 -219 309 -219 c 256
 176 -219 93 -153 56 -44 c 257
EndSplineSet
Refer: 85 -1 N 1 0 0 1 0 0 2
EndChar

StartChar: si_DhRIi
Encoding: 282 -1 88
GlifName: si_D_hR_I_i
Width: 638
VWidth: 0
Flags: HW
LayerCount: 2
Back
Fore
SplineSet
56 -44 m 257
 83 -44 l 257
 118 -119 188 -157 293 -157 c 256
 436 -157 554 -90 554 50 c 256
 554 71 549 93 542 102 c 257
 555 133 l 257
 573 106 582 75 582 38 c 256
 582 -124 453 -219 309 -219 c 256
 176 -219 93 -153 56 -44 c 257
EndSplineSet
Refer: 86 -1 N 1 0 0 1 0 0 2
EndChar

StartChar: si_DhRa
Encoding: 280 -1 89
GlifName: si_D_hR_a
Width: 638
VWidth: 0
Flags: HW
LayerCount: 2
Back
Fore
SplineSet
56 -44 m 257
 83 -44 l 257
 118 -119 188 -157 293 -157 c 256
 436 -157 554 -90 554 50 c 256
 554 71 549 93 542 102 c 257
 555 133 l 257
 573 106 582 75 582 38 c 256
 582 -124 453 -219 309 -219 c 256
 176 -219 93 -153 56 -44 c 257
EndSplineSet
Refer: 461 3504 N 1 0 0 1 0 0 2
EndChar

StartChar: si_DhU
Encoding: 277 -1 90
GlifName: si_D_hU_
Width: 638
VWidth: 0
Flags: HW
LayerCount: 2
Back
Fore
SplineSet
52 -142 m 256
 52 -90 98 -50 153 -50 c 256
 195 -50 232 -74 247 -110 c 257
 217 -122 l 257
 210 -102 186 -80 153 -80 c 256
 116 -80 85 -106 85 -142 c 256
 85 -171 108 -199 174 -199 c 258
 542 -199 l 257
 542 128 l 257
 575 219 l 257
 575 -235 l 257
 157 -235 l 258
 88 -235 52 -186 52 -142 c 256
EndSplineSet
Refer: 461 3504 N 1 0 0 1 0 0 2
EndChar

StartChar: si_DhUu
Encoding: 278 -1 91
GlifName: si_D_hU_u
Width: 638
VWidth: 0
Flags: HW
LayerCount: 2
Back
Fore
SplineSet
51 -138 m 256
 51 -80 100 -40 153 -40 c 256
 195 -40 227 -55 250 -91 c 257
 220 -102 l 257
 208 -83 187 -68 158 -68 c 256
 119 -68 87 -92 87 -129 c 256
 87 -166 118 -191 161 -191 c 256
 245 -191 328 -117 423 -117 c 256
 466 -117 515 -136 542 -168 c 257
 542 152 l 257
 575 212 l 257
 575 -231 l 257
 552 -231 l 257
 537 -195 494 -144 426 -144 c 256
 335 -144 260 -237 162 -237 c 256
 107 -237 51 -206 51 -138 c 256
EndSplineSet
Refer: 461 3504 N 1 0 0 1 0 0 2
EndChar

StartChar: si_Dha.reph
Encoding: 279 -1 92
GlifName: si_D_ha.reph
Width: 638
VWidth: 0
Flags: HW
LayerCount: 2
Back
Fore
SplineSet
274 622 m 256
 274 643 292 659 314 659 c 256
 336 659 355 643 355 622 c 256
 355 601 336 585 314 585 c 256
 292 585 274 601 274 622 c 256
172 641 m 256
 172 585 231 556 290 556 c 256
 348 556 382 582 382 621 c 256
 382 656 355 683 314 683 c 256
 278 683 246 658 246 623 c 256
 246 602 259 587 267 581 c 257
 244 583 203 602 203 641 c 256
 203 694 257 715 310 715 c 256
 371 715 422 684 422 627 c 256
 422 600 407 575 394 563 c 257
 428 563 l 257
 445 582 452 604 452 628 c 256
 452 699 389 742 312 742 c 256
 230 742 172 705 172 641 c 256
EndSplineSet
Refer: 461 3504 N 1 0 0 1 0 0 2
EndChar

StartChar: si_DvocR
Encoding: 262 -1 93
GlifName: si_D_vocR_
Width: 703
VWidth: 0
Flags: HW
LayerCount: 2
Back
Fore
SplineSet
426 249 m 256
 426 329 462 393 536 393 c 256
 623 393 657 298 657 203 c 256
 657 144 640 52 640 23 c 256
 640 16 640 9 641 3 c 257
 611 3 l 257
 608 12 603 17 596 17 c 256
 584 17 558 -1 524 -1 c 256
 465 -1 426 49 426 106 c 256
 426 153 448 186 492 205 c 256
 518 216 559 222 596 222 c 257
 596 312 569 358 526 358 c 256
 474 358 451 308 451 246 c 256
 451 244 451 244 451 242 c 257
 426 242 l 257
 426 245 426 246 426 249 c 256
456 107 m 256
 456 65 485 28 526 28 c 256
 552 28 579 43 589 43 c 256
 592 43 595 42 598 40 c 257
 596 53 595 78 595 116 c 256
 595 147 596 168 596 186 c 256
 596 189 596 193 596 195 c 257
 581 195 545 194 516 185 c 256
 480 174 456 151 456 107 c 256
EndSplineSet
Refer: 460 3503 N 1 0 0 1 0 0 2
EndChar

StartChar: si_DvocRr
Encoding: 263 -1 94
GlifName: si_D_vocR_r
Width: 962
VWidth: 0
Flags: HW
LayerCount: 2
Back
Fore
SplineSet
682 249 m 256
 682 329 718 393 792 393 c 256
 879 393 913 298 913 203 c 256
 913 144 896 52 896 23 c 256
 896 16 896 9 897 3 c 257
 867 3 l 257
 864 12 859 17 852 17 c 256
 840 17 814 -1 780 -1 c 256
 721 -1 682 49 682 106 c 256
 682 153 704 186 748 205 c 256
 774 216 815 222 852 222 c 257
 852 312 825 358 782 358 c 256
 730 358 707 308 707 246 c 256
 707 244 707 244 707 242 c 257
 682 242 l 257
 682 245 682 246 682 249 c 256
712 107 m 256
 712 65 741 28 782 28 c 256
 808 28 835 43 845 43 c 256
 848 43 851 42 854 40 c 257
 852 53 851 78 851 116 c 256
 851 147 852 168 852 186 c 256
 852 189 852 193 852 195 c 257
 837 195 801 194 772 185 c 256
 736 174 712 151 712 107 c 256
426 249 m 256
 426 329 462 393 536 393 c 256
 623 393 657 298 657 203 c 256
 657 144 640 52 640 23 c 256
 640 16 640 9 641 3 c 257
 611 3 l 257
 608 12 603 17 596 17 c 256
 584 17 558 -1 524 -1 c 256
 465 -1 426 49 426 106 c 256
 426 153 448 186 492 205 c 256
 518 216 559 222 596 222 c 257
 596 312 569 358 526 358 c 256
 474 358 451 308 451 246 c 256
 451 244 451 244 451 242 c 257
 426 242 l 257
 426 245 426 246 426 249 c 256
456 107 m 256
 456 65 485 28 526 28 c 256
 552 28 579 43 589 43 c 256
 592 43 595 42 598 40 c 257
 596 53 595 78 595 116 c 256
 595 147 596 168 596 186 c 256
 596 189 596 193 596 195 c 257
 581 195 545 194 516 185 c 256
 480 174 456 151 456 107 c 256
EndSplineSet
Refer: 460 3503 N 1 0 0 1 0 0 2
EndChar

StartChar: si_F.halant
Encoding: 420 -1 95
GlifName: si_F_.halant
Width: 607
VWidth: 0
Flags: HW
LayerCount: 2
Back
Fore
SplineSet
405 413 m 257
 405 680 l 257
 459 638 555 633 555 541 c 256
 555 497 520 467 477 467 c 256
 462 467 447 470 432 477 c 257
 432 410 l 257
 405 413 l 257
432 502 m 257
 441 497 452 495 465 495 c 256
 503 495 518 520 518 544 c 256
 518 586 479 606 432 637 c 257
 432 502 l 257
EndSplineSet
Refer: 479 3526 N 1 0 0 1 0 0 2
EndChar

StartChar: si_FI
Encoding: 421 -1 96
GlifName: si_F_I_
Width: 607
VWidth: 0
Flags: HW
LayerCount: 2
Back
Fore
SplineSet
64 518 m 256
 64 626 177 671 296 671 c 256
 415 671 528 626 528 518 c 256
 528 443 462 408 385 405 c 257
 385 426 l 257
 439 429 494 454 494 509 c 256
 494 580 385 598 296 598 c 256
 207 598 98 580 98 509 c 256
 98 454 153 429 207 426 c 257
 207 405 l 257
 130 408 64 443 64 518 c 256
EndSplineSet
Refer: 479 3526 N 1 0 0 1 0 0 2
EndChar

StartChar: si_FIi
Encoding: 422 -1 97
GlifName: si_F_I_i
Width: 607
VWidth: 0
Flags: HW
LayerCount: 2
Back
Fore
SplineSet
376 514 m 256
 376 483 406 458 442 458 c 256
 478 458 508 483 508 514 c 256
 508 545 478 570 442 570 c 256
 406 570 376 545 376 514 c 256
48 517 m 256
 48 620 165 671 292 671 c 256
 409 671 543 627 543 524 c 256
 543 469 498 429 442 429 c 256
 384 429 344 470 344 515 c 256
 344 560 376 582 395 591 c 257
 384 594 347 600 293 600 c 256
 199 600 85 574 85 499 c 256
 85 460 112 435 150 426 c 257
 138 406 l 257
 84 414 48 456 48 517 c 256
EndSplineSet
Refer: 479 3526 N 1 0 0 1 0 0 2
EndChar

StartChar: si_FRI
Encoding: 427 -1 98
GlifName: si_F_R_I_
Width: 607
VWidth: 0
Flags: HW
LayerCount: 2
Back
Fore
SplineSet
64 518 m 256
 64 626 177 671 296 671 c 256
 415 671 528 626 528 518 c 256
 528 443 462 408 385 405 c 257
 385 426 l 257
 439 429 494 454 494 509 c 256
 494 580 385 598 296 598 c 256
 207 598 98 580 98 509 c 256
 98 454 153 429 207 426 c 257
 207 405 l 257
 130 408 64 443 64 518 c 256
60 -44 m 257
 88 -44 l 257
 122 -119 182 -157 282 -157 c 256
 418 -157 521 -90 521 50 c 256
 521 71 518 90 510 102 c 257
 523 142 l 257
 545 109 550 75 550 38 c 256
 550 -124 435 -219 298 -219 c 256
 172 -219 95 -153 60 -44 c 257
EndSplineSet
Refer: 479 3526 N 1 0 0 1 0 0 2
EndChar

StartChar: si_FRIi
Encoding: 428 -1 99
GlifName: si_F_R_I_i
Width: 607
VWidth: 0
Flags: HW
LayerCount: 2
Back
Fore
SplineSet
376 514 m 256
 376 483 406 458 442 458 c 256
 478 458 508 483 508 514 c 256
 508 545 478 570 442 570 c 256
 406 570 376 545 376 514 c 256
48 517 m 256
 48 620 165 671 292 671 c 256
 409 671 543 627 543 524 c 256
 543 469 498 429 442 429 c 256
 384 429 344 470 344 515 c 256
 344 560 376 582 395 591 c 257
 384 594 347 600 293 600 c 256
 199 600 85 574 85 499 c 256
 85 460 112 435 150 426 c 257
 138 406 l 257
 84 414 48 456 48 517 c 256
60 -44 m 257
 88 -44 l 257
 122 -119 182 -157 282 -157 c 256
 418 -157 521 -90 521 50 c 256
 521 71 518 90 510 102 c 257
 523 142 l 257
 545 109 550 75 550 38 c 256
 550 -124 435 -219 298 -219 c 256
 172 -219 95 -153 60 -44 c 257
EndSplineSet
Refer: 479 3526 N 1 0 0 1 0 0 2
EndChar

StartChar: si_FRa
Encoding: 426 -1 100
GlifName: si_F_R_a
Width: 607
VWidth: 0
Flags: HW
LayerCount: 2
Back
Fore
SplineSet
60 -44 m 257
 88 -44 l 257
 122 -119 182 -157 282 -157 c 256
 418 -157 521 -90 521 50 c 256
 521 71 518 90 510 102 c 257
 523 142 l 257
 545 109 550 75 550 38 c 256
 550 -124 435 -219 298 -219 c 256
 172 -219 95 -153 60 -44 c 257
EndSplineSet
Refer: 479 3526 N 1 0 0 1 0 0 2
EndChar

StartChar: si_FU
Encoding: 423 -1 101
GlifName: si_F_U_
Width: 607
VWidth: 0
Flags: HW
LayerCount: 2
Back
Fore
SplineSet
54 -142 m 256
 54 -90 100 -50 155 -50 c 256
 197 -50 234 -74 249 -110 c 257
 219 -122 l 257
 212 -102 188 -80 155 -80 c 256
 118 -80 87 -106 87 -142 c 256
 87 -171 110 -199 176 -199 c 258
 513 -199 l 257
 513 111 l 257
 546 181 l 257
 546 -235 l 257
 159 -235 l 258
 90 -235 54 -186 54 -142 c 256
EndSplineSet
Refer: 479 3526 N 1 0 0 1 0 0 2
EndChar

StartChar: si_FUu
Encoding: 424 -1 102
GlifName: si_F_U_u
Width: 607
VWidth: 0
Flags: HW
LayerCount: 2
Back
Fore
SplineSet
53 -138 m 256
 53 -80 102 -40 155 -40 c 256
 197 -40 229 -55 252 -91 c 257
 222 -102 l 257
 210 -83 189 -68 160 -68 c 256
 121 -68 89 -92 89 -129 c 256
 89 -166 120 -191 163 -191 c 256
 247 -191 311 -117 406 -117 c 256
 454 -117 488 -132 513 -162 c 257
 513 99 l 257
 546 201 l 257
 546 -231 l 257
 523 -231 l 257
 508 -195 475 -144 410 -144 c 256
 319 -144 262 -237 164 -237 c 256
 109 -237 53 -206 53 -138 c 256
EndSplineSet
Refer: 479 3526 N 1 0 0 1 0 0 2
EndChar

StartChar: si_Fa.reph
Encoding: 425 -1 103
GlifName: si_F_a.reph
Width: 607
VWidth: 0
Flags: HW
LayerCount: 2
Back
Fore
SplineSet
259 511 m 256
 259 490 278 474 300 474 c 256
 322 474 341 490 341 511 c 256
 341 532 322 548 300 548 c 256
 278 548 259 532 259 511 c 256
157 530 m 256
 157 594 215 631 297 631 c 256
 374 631 438 588 438 517 c 256
 438 493 430 471 413 452 c 257
 379 452 l 257
 392 464 408 489 408 516 c 256
 408 573 357 604 296 604 c 256
 243 604 188 583 188 530 c 256
 188 491 229 472 252 470 c 257
 244 476 232 491 232 512 c 256
 232 547 263 572 299 572 c 256
 340 572 368 545 368 510 c 256
 368 471 333 445 275 445 c 256
 216 445 157 474 157 530 c 256
EndSplineSet
Refer: 479 3526 N 1 0 0 1 0 0 2
EndChar

StartChar: si_G.halant
Encoding: 109 -1 104
GlifName: si_G_.halant
Width: 636
VWidth: 0
Flags: HW
LayerCount: 2
Back
Fore
SplineSet
436 387 m 257
 436 681 l 257
 490 639 586 634 586 542 c 256
 586 498 551 468 508 468 c 256
 493 468 478 471 463 478 c 257
 463 370 l 257
 436 387 l 257
463 503 m 257
 472 498 483 496 496 496 c 256
 534 496 549 521 549 545 c 256
 549 587 510 607 463 638 c 257
 463 503 l 257
EndSplineSet
Refer: 441 3484 N 1 0 0 1 0 0 2
EndChar

StartChar: si_GDha
Encoding: 437 -1 105
GlifName: si_G_D_ha
Width: 942
VWidth: 0
Flags: HW
LayerCount: 2
Back
Fore
SplineSet
34 207 m 256
 34 330 109 432 220 432 c 256
 224 432 229 431 233 431 c 257
 233 408 l 257
 230 408 225 408 222 408 c 256
 136 408 69 332 69 230 c 256
 69 147 117 71 206 71 c 256
 265 71 318 99 318 158 c 256
 318 196 298 217 267 217 c 256
 260 217 251 215 244 210 c 257
 243 204 242 195 242 192 c 257
 216 192 l 257
 226 317 288 432 410 432 c 256
 467 432 492 421 528 398 c 257
 515 391 494 395 482 392 c 257
 458 402 431 404 414 404 c 256
 309 404 266 320 248 236 c 257
 256 240 263 241 270 241 c 256
 318 241 352 202 352 136 c 256
 352 56 295 -2 208 -2 c 256
 97 -2 34 96 34 207 c 256
EndSplineSet
Refer: 461 3504 N 1 0 0 1 307 0 2
EndChar

StartChar: si_GI
Encoding: 110 -1 106
GlifName: si_G_I_
Width: 636
VWidth: 0
Flags: HW
LayerCount: 2
Back
Fore
SplineSet
150 537 m 256
 150 628 249 667 351 667 c 256
 456 667 559 618 559 523 c 256
 559 461 520 415 439 409 c 257
 421 431 l 257
 424 431 426 431 429 431 c 256
 487 431 530 462 530 512 c 256
 530 577 431 598 351 598 c 256
 270 598 191 568 191 516 c 256
 191 456 325 431 411 431 c 256
 412 431 412 432 413 432 c 257
 397 412 l 257
 237 415 150 462 150 537 c 256
34 207 m 256
 34 330 110 432 207 432 c 256
 211 432 208 431 212 431 c 257
 212 408 l 257
 209 408 211 408 208 408 c 256
 136 408 69 332 69 230 c 256
 69 147 117 71 206 71 c 256
 265 71 318 99 318 158 c 256
 318 196 298 217 267 217 c 256
 260 217 250 215 243 210 c 257
 242 204 241 195 241 192 c 257
 216 192 l 257
 226 317 288 432 410 432 c 256
 522 432 586 332 586 217 c 256
 586 95 500 -1 369 -1 c 256
 359 -1 349 0 338 1 c 257
 338 26 l 257
 346 25 354 24 362 24 c 256
 469 24 543 100 543 200 c 256
 543 301 484 371 393 371 c 256
 316 371 263 313 247 236 c 257
 255 240 263 241 270 241 c 256
 318 241 352 202 352 136 c 256
 352 56 295 -2 208 -2 c 256
 97 -2 34 96 34 207 c 256
EndSplineSet
EndChar

StartChar: si_GIi
Encoding: 111 -1 107
GlifName: si_G_I_i
Width: 636
VWidth: 0
Flags: HW
LayerCount: 2
Back
Fore
SplineSet
34 207 m 256
 34 330 110 432 207 432 c 256
 211 432 208 431 212 431 c 257
 212 408 l 258
 209 408 211 408 208 408 c 256
 136 408 69 332 69 230 c 256
 69 147 117 71 206 71 c 256
 265 71 318 99 318 158 c 256
 318 196 298 217 267 217 c 256
 260 217 250 215 243 210 c 257
 242 204 241 195 241 192 c 258
 216 192 l 257
 224 289 263 380 337 416 c 257
 215 429 150 472 150 537 c 256
 150 628 249 667 351 667 c 256
 456 667 559 618 559 525 c 256
 559 456 501 431 458 431 c 256
 414 431 361 464 361 519 c 256
 361 565 395 591 411 594 c 257
 389 597 375 598 351 598 c 256
 270 598 191 568 191 516 c 256
 191 455 326 431 413 431 c 257
 523 429 586 331 586 217 c 256
 586 95 500 -1 369 -1 c 256
 359 -1 349 0 338 1 c 257
 338 26 l 257
 346 25 354 24 362 24 c 256
 469 24 543 100 543 200 c 256
 543 301 484 371 393 371 c 256
 316 371 263 313 247 236 c 257
 255 240 263 241 270 241 c 256
 318 241 352 202 352 136 c 256
 352 56 295 -2 208 -2 c 256
 97 -2 34 96 34 207 c 256
389 520 m 256
 389 485 421 457 460 457 c 256
 499 457 531 485 531 520 c 256
 531 555 499 583 460 583 c 256
 421 583 389 555 389 520 c 256
EndSplineSet
EndChar

StartChar: si_GR.halant
Encoding: 116 -1 108
GlifName: si_G_R_.halant
Width: 636
VWidth: 0
Flags: HW
LayerCount: 2
Back
Fore
SplineSet
56 -44 m 257
 83 -44 l 257
 118 -119 188 -157 293 -157 c 256
 436 -157 554 -90 554 50 c 256
 554 71 549 93 542 102 c 257
 555 133 l 257
 573 106 582 75 582 38 c 256
 582 -124 453 -219 309 -219 c 256
 176 -219 93 -153 56 -44 c 257
EndSplineSet
Refer: 104 -1 N 1 0 0 1 0 0 2
EndChar

StartChar: si_GRI
Encoding: 117 -1 109
GlifName: si_G_R_I_
Width: 636
VWidth: 0
Flags: HW
LayerCount: 2
Back
Fore
SplineSet
56 -44 m 257
 83 -44 l 257
 118 -119 188 -157 293 -157 c 256
 436 -157 554 -90 554 50 c 256
 554 71 549 93 542 102 c 257
 555 133 l 257
 573 106 582 75 582 38 c 256
 582 -124 453 -219 309 -219 c 256
 176 -219 93 -153 56 -44 c 257
EndSplineSet
Refer: 106 -1 N 1 0 0 1 0 0 2
EndChar

StartChar: si_GRIi
Encoding: 118 -1 110
GlifName: si_G_R_I_i
Width: 636
VWidth: 0
Flags: HW
LayerCount: 2
Back
Fore
SplineSet
56 -44 m 257
 83 -44 l 257
 118 -119 188 -157 293 -157 c 256
 436 -157 554 -90 554 50 c 256
 554 71 549 93 542 102 c 257
 555 133 l 257
 573 106 582 75 582 38 c 256
 582 -124 453 -219 309 -219 c 256
 176 -219 93 -153 56 -44 c 257
EndSplineSet
Refer: 107 -1 N 1 0 0 1 0 0 2
EndChar

StartChar: si_GRa
Encoding: 115 -1 111
GlifName: si_G_R_a
Width: 636
VWidth: 0
Flags: HW
LayerCount: 2
Back
Fore
SplineSet
56 -44 m 257
 83 -44 l 257
 118 -119 188 -157 293 -157 c 256
 436 -157 554 -90 554 50 c 256
 554 71 549 93 542 102 c 257
 555 133 l 257
 573 106 582 75 582 38 c 256
 582 -124 453 -219 309 -219 c 256
 176 -219 93 -153 56 -44 c 257
EndSplineSet
Refer: 441 3484 N 1 0 0 1 0 0 2
EndChar

StartChar: si_GU
Encoding: 112 -1 112
GlifName: si_G_U_
Width: 636
VWidth: 0
Flags: HW
LayerCount: 2
Back
Fore
SplineSet
306 -80 m 256
 306 -30 336 9 379 21 c 257
 385 -6 l 257
 363 -14 344 -34 344 -63 c 256
 344 -109 395 -132 446 -132 c 256
 507 -132 554 -94 554 -45 c 256
 554 -42 553 -39 553 -36 c 257
 583 -36 l 257
 585 -45 585 -61 585 -70 c 256
 585 -123 542 -192 441 -192 c 256
 378 -192 306 -149 306 -80 c 256
34 207 m 256
 34 330 109 432 220 432 c 256
 224 432 229 431 233 431 c 257
 233 408 l 257
 230 408 225 408 222 408 c 256
 136 408 69 332 69 230 c 256
 69 147 117 71 206 71 c 256
 265 71 318 99 318 158 c 256
 318 196 298 217 267 217 c 256
 260 217 250 215 243 210 c 257
 242 204 241 195 241 192 c 257
 216 192 l 257
 226 317 288 432 410 432 c 256
 522 432 586 332 586 217 c 256
 586 95 506 0 426 0 c 256
 416 0 394 -2 380 -8 c 257
 370 18 l 257
 389 26 407 27 415 27 c 256
 478 27 543 100 543 200 c 256
 543 301 484 371 393 371 c 256
 316 371 263 313 247 236 c 257
 255 240 263 241 270 241 c 256
 318 241 352 202 352 136 c 256
 352 56 295 -2 208 -2 c 256
 97 -2 34 96 34 207 c 256
EndSplineSet
EndChar

StartChar: si_GUu
Encoding: 113 -1 113
GlifName: si_G_U_u
Width: 636
VWidth: 0
Flags: HW
LayerCount: 2
Back
Fore
SplineSet
336 -129 m 256
 336 -93 368 -72 400 -67 c 257
 345 -39 l 257
 432 -14 l 257
 338 1 l 257
 387 13 l 257
 506 -7 l 257
 402 -44 l 257
 461 -76 l 257
 433 -83 376 -85 376 -115 c 256
 376 -146 418 -155 460 -155 c 256
 514 -155 560 -131 560 -82 c 256
 560 -77 559 -69 554 -59 c 257
 587 -59 l 257
 591 -71 591 -83 591 -94 c 256
 591 -161 540 -205 458 -205 c 256
 400 -205 336 -187 336 -129 c 256
EndSplineSet
Refer: 441 3484 N 1 0 0 1 0 0 2
EndChar

StartChar: si_Gh.halant
Encoding: 119 -1 115
GlifName: si_G_h.halant
Width: 677
VWidth: 0
Flags: HW
LayerCount: 2
Back
Fore
SplineSet
478 413 m 257
 478 680 l 257
 532 638 628 633 628 541 c 256
 628 497 593 467 550 467 c 256
 535 467 520 470 505 477 c 257
 505 396 l 257
 478 413 l 257
505 502 m 257
 514 497 525 495 538 495 c 256
 576 495 591 520 591 544 c 256
 591 586 552 606 505 637 c 257
 505 502 l 257
EndSplineSet
Refer: 442 3485 N 1 0 0 1 0 0 2
EndChar

StartChar: si_GhI
Encoding: 120 -1 116
GlifName: si_G_hI_
Width: 677
VWidth: 0
Flags: HW
LayerCount: 2
Back
Fore
SplineSet
102 517 m 256
 102 625 215 670 334 670 c 256
 453 670 566 625 566 517 c 256
 566 442 501 407 424 404 c 257
 452 430 l 257
 476 432 532 453 532 508 c 256
 532 579 423 597 334 597 c 256
 245 597 136 579 136 508 c 256
 136 453 190 434 216 429 c 257
 246 404 l 257
 169 407 102 442 102 517 c 256
EndSplineSet
Refer: 442 3485 N 1 0 0 1 0 0 2
EndChar

StartChar: si_GhIi
Encoding: 121 -1 117
GlifName: si_G_hI_i
Width: 677
VWidth: 0
Flags: HW
LayerCount: 2
Back
Fore
SplineSet
422 514 m 256
 422 483 452 458 488 458 c 256
 524 458 554 483 554 514 c 256
 554 545 524 570 488 570 c 256
 452 570 422 545 422 514 c 256
86 517 m 256
 86 624 209 671 336 671 c 256
 453 671 590 627 590 524 c 256
 590 469 544 429 488 429 c 256
 430 429 390 470 390 515 c 256
 390 560 423 582 442 591 c 257
 431 594 392 600 338 600 c 256
 244 600 122 578 122 499 c 256
 122 460 144 435 182 426 c 257
 176 406 l 257
 123 411 86 456 86 517 c 256
EndSplineSet
Refer: 442 3485 N 1 0 0 1 0 0 2
EndChar

StartChar: si_GhRI
Encoding: 125 -1 118
GlifName: si_G_hR_I_
Width: 677
VWidth: 0
Flags: HW
LayerCount: 2
Back
Fore
SplineSet
64 -44 m 257
 90 -44 l 257
 125 -119 212 -157 317 -157 c 256
 460 -157 602 -90 602 50 c 256
 602 71 597 93 590 102 c 257
 600 133 l 257
 618 106 628 75 628 38 c 256
 628 -124 484 -219 333 -219 c 256
 192 -219 101 -153 64 -44 c 257
EndSplineSet
Refer: 116 -1 N 1 0 0 1 0 0 2
EndChar

StartChar: si_GhRIi
Encoding: 126 -1 119
GlifName: si_G_hR_I_i
Width: 677
VWidth: 0
Flags: HW
LayerCount: 2
Back
Fore
SplineSet
64 -44 m 257
 90 -44 l 257
 125 -119 212 -157 317 -157 c 256
 460 -157 602 -90 602 50 c 256
 602 71 597 93 590 102 c 257
 600 133 l 257
 618 106 628 75 628 38 c 256
 628 -124 484 -219 333 -219 c 256
 192 -219 101 -153 64 -44 c 257
EndSplineSet
Refer: 117 -1 N 1 0 0 1 0 0 2
EndChar

StartChar: si_GhRa
Encoding: 127 -1 120
GlifName: si_G_hR_a
Width: 677
VWidth: 0
Flags: HW
LayerCount: 2
Back
Fore
SplineSet
64 -44 m 257
 90 -44 l 257
 125 -119 212 -157 317 -157 c 256
 460 -157 602 -90 602 50 c 256
 602 71 597 93 590 102 c 257
 600 133 l 257
 618 106 628 75 628 38 c 256
 628 -124 484 -219 333 -219 c 256
 192 -219 101 -153 64 -44 c 257
EndSplineSet
Refer: 442 3485 N 1 0 0 1 0 0 2
EndChar

StartChar: si_GhU
Encoding: 122 -1 121
GlifName: si_G_hU_
Width: 677
VWidth: 0
Flags: HW
LayerCount: 2
Back
Fore
SplineSet
66 -142 m 256
 66 -90 113 -50 168 -50 c 256
 210 -50 247 -74 262 -110 c 257
 232 -122 l 257
 225 -102 201 -80 168 -80 c 256
 131 -80 100 -106 100 -142 c 256
 100 -171 123 -199 189 -199 c 258
 583 -199 l 257
 583 128 l 257
 616 219 l 257
 616 -235 l 257
 172 -235 l 258
 103 -235 66 -186 66 -142 c 256
EndSplineSet
Refer: 442 3485 N 1 0 0 1 0 0 2
EndChar

StartChar: si_GhUu
Encoding: 123 -1 122
GlifName: si_G_hU_u
Width: 677
VWidth: 0
Flags: HW
LayerCount: 2
Back
Fore
SplineSet
68 -138 m 256
 68 -80 117 -40 170 -40 c 256
 212 -40 243 -55 266 -91 c 257
 236 -102 l 257
 224 -83 203 -68 174 -68 c 256
 135 -68 104 -92 104 -129 c 256
 104 -166 135 -191 178 -191 c 256
 262 -191 360 -117 455 -117 c 256
 498 -117 557 -136 584 -168 c 257
 584 122 l 257
 616 212 l 257
 616 -231 l 257
 594 -231 l 257
 579 -195 526 -144 458 -144 c 256
 367 -144 276 -237 178 -237 c 256
 123 -237 68 -206 68 -138 c 256
EndSplineSet
Refer: 442 3485 N 1 0 0 1 0 0 2
EndChar

StartChar: si_Gha.reph
Encoding: 124 -1 123
GlifName: si_G_ha.reph
Width: 677
VWidth: 0
Flags: HW
LayerCount: 2
Back
Fore
SplineSet
296 491 m 256
 296 470 315 454 337 454 c 256
 359 454 378 470 378 491 c 256
 378 512 359 528 337 528 c 256
 315 528 296 512 296 491 c 256
194 510 m 256
 194 574 252 611 334 611 c 256
 411 611 475 568 475 497 c 256
 475 473 467 451 450 432 c 257
 416 432 l 257
 429 444 445 469 445 496 c 256
 445 553 394 584 333 584 c 256
 280 584 225 563 225 510 c 256
 225 471 267 452 290 450 c 257
 282 456 269 471 269 492 c 256
 269 527 300 552 336 552 c 256
 377 552 405 525 405 490 c 256
 405 451 370 425 312 425 c 256
 253 425 194 454 194 510 c 256
EndSplineSet
Refer: 442 3485 N 1 0 0 1 0 0 2
EndChar

StartChar: si_H.halant
Encoding: 407 -1 124
GlifName: si_H_.halant
Width: 653
VWidth: 0
Flags: HW
LayerCount: 2
Back
Fore
SplineSet
453 387 m 257
 453 681 l 257
 507 639 603 634 603 542 c 256
 603 498 568 468 525 468 c 256
 510 468 495 471 480 478 c 257
 480 370 l 257
 453 387 l 257
480 503 m 257
 489 498 500 496 513 496 c 256
 551 496 566 521 566 545 c 256
 566 587 527 607 480 638 c 257
 480 503 l 257
EndSplineSet
Refer: 477 3524 N 1 0 0 1 0 0 2
EndChar

StartChar: si_HI
Encoding: 408 -1 125
GlifName: si_H_I_
Width: 653
VWidth: 0
Flags: HW
LayerCount: 2
Back
Fore
SplineSet
150 537 m 256
 150 628 249 667 351 667 c 256
 456 667 559 618 559 523 c 256
 559 461 520 415 439 409 c 257
 421 431 l 257
 424 431 426 431 429 431 c 256
 487 431 530 462 530 512 c 256
 530 577 431 598 351 598 c 256
 270 598 191 568 191 516 c 256
 191 456 325 431 411 431 c 256
 412 431 412 432 413 432 c 257
 397 412 l 257
 237 415 150 462 150 537 c 256
EndSplineSet
Refer: 477 3524 N 1 0 0 1 0 0 2
EndChar

StartChar: si_HIi
Encoding: 409 -1 126
GlifName: si_H_I_i
Width: 653
VWidth: 0
Flags: HW
LayerCount: 2
Back
Fore
SplineSet
389 520 m 256
 389 485 421 457 460 457 c 256
 499 457 531 485 531 520 c 256
 531 555 499 583 460 583 c 256
 421 583 389 555 389 520 c 256
150 537 m 256
 150 628 249 667 351 667 c 256
 456 667 559 618 559 525 c 256
 559 456 501 431 458 431 c 256
 414 431 361 464 361 519 c 256
 361 565 395 591 411 594 c 257
 389 597 375 598 351 598 c 256
 270 598 191 568 191 516 c 256
 191 456 325 431 411 431 c 256
 412 431 412 432 413 432 c 257
 397 412 l 257
 237 415 150 462 150 537 c 256
EndSplineSet
Refer: 477 3524 N 1 0 0 1 0 0 2
EndChar

StartChar: si_HRIi
Encoding: 414 -1 127
GlifName: si_H_R_I_i
Width: 653
VWidth: 0
Flags: HW
LayerCount: 2
Back
Fore
SplineSet
389 520 m 256
 389 485 421 457 460 457 c 256
 499 457 531 485 531 520 c 256
 531 555 499 583 460 583 c 256
 421 583 389 555 389 520 c 256
150 537 m 256
 150 628 249 667 351 667 c 256
 456 667 559 618 559 525 c 256
 559 456 501 431 458 431 c 256
 414 431 361 464 361 519 c 256
 361 565 395 591 411 594 c 257
 389 597 375 598 351 598 c 256
 270 598 191 568 191 516 c 256
 191 456 325 431 411 431 c 256
 412 431 412 432 413 432 c 257
 397 412 l 257
 237 415 150 462 150 537 c 256
61 -44 m 257
 88 -44 l 257
 124 -119 197 -157 305 -157 c 256
 452 -157 575 -90 575 50 c 256
 575 71 569 93 562 102 c 257
 575 133 l 257
 594 106 603 75 603 38 c 256
 603 -124 470 -219 322 -219 c 256
 185 -219 99 -153 61 -44 c 257
EndSplineSet
Refer: 477 3524 N 1 0 0 1 0 0 2
EndChar

StartChar: si_HRa
Encoding: 413 -1 128
GlifName: si_H_R_a
Width: 653
VWidth: 0
Flags: HW
LayerCount: 2
Back
Fore
SplineSet
61 -44 m 257
 88 -44 l 257
 124 -119 197 -157 305 -157 c 256
 452 -157 575 -90 575 50 c 256
 575 71 569 93 562 102 c 257
 575 133 l 257
 594 106 603 75 603 38 c 256
 603 -124 470 -219 322 -219 c 256
 185 -219 99 -153 61 -44 c 257
EndSplineSet
Refer: 477 3524 N 1 0 0 1 0 0 2
EndChar

StartChar: si_HU
Encoding: 410 -1 129
GlifName: si_H_U_
Width: 653
VWidth: 0
Flags: HW
LayerCount: 2
Back
Fore
SplineSet
45 -142 m 256
 45 -90 92 -50 147 -50 c 256
 189 -50 226 -74 241 -110 c 257
 211 -122 l 257
 204 -102 180 -80 147 -80 c 256
 110 -80 79 -106 79 -142 c 256
 79 -171 102 -199 168 -199 c 258
 565 -199 l 257
 565 128 l 257
 598 198 l 257
 598 -235 l 257
 151 -235 l 258
 82 -235 45 -186 45 -142 c 256
EndSplineSet
Refer: 477 3524 N 1 0 0 1 0 0 2
EndChar

StartChar: si_HUu
Encoding: 411 -1 130
GlifName: si_H_U_u
Width: 653
VWidth: 0
Flags: HW
LayerCount: 2
Back
Fore
SplineSet
45 -138 m 256
 45 -80 94 -40 147 -40 c 256
 189 -40 221 -55 244 -91 c 257
 214 -102 l 257
 202 -83 181 -68 152 -68 c 256
 113 -68 81 -92 81 -129 c 256
 81 -166 119 -191 162 -191 c 256
 268 -191 351 -117 446 -117 c 256
 489 -117 538 -136 565 -168 c 257
 565 152 l 257
 598 212 l 257
 598 -231 l 257
 575 -231 l 257
 560 -195 517 -144 449 -144 c 256
 358 -144 280 -237 162 -237 c 256
 107 -237 45 -206 45 -138 c 256
EndSplineSet
Refer: 477 3524 N 1 0 0 1 0 0 2
EndChar

StartChar: si_Ha.reph
Encoding: 412 -1 131
GlifName: si_H_a.reph
Width: 653
VWidth: 0
Flags: HW
LayerCount: 2
Back
Fore
SplineSet
270 511 m 256
 270 490 289 474 311 474 c 256
 333 474 352 490 352 511 c 256
 352 532 333 548 311 548 c 256
 289 548 270 532 270 511 c 256
168 530 m 256
 168 594 226 631 308 631 c 256
 385 631 449 588 449 517 c 256
 449 493 441 471 424 452 c 257
 390 452 l 257
 403 464 419 489 419 516 c 256
 419 573 368 604 307 604 c 256
 254 604 200 583 200 530 c 256
 200 491 241 472 264 470 c 257
 256 476 243 491 243 512 c 256
 243 547 274 572 310 572 c 256
 351 572 379 545 379 510 c 256
 379 471 344 445 286 445 c 256
 227 445 168 474 168 530 c 256
EndSplineSet
Refer: 477 3524 N 1 0 0 1 0 0 2
EndChar

StartChar: si_J.halant
Encoding: 150 -1 132
GlifName: si_J_.halant
Width: 598
VWidth: 0
Flags: HW
LayerCount: 2
Back
Fore
SplineSet
300 356 m 257
 300 756 l 257
 357 709 447 704 447 626 c 256
 447 580 413 550 370 550 c 256
 356 550 341 551 326 556 c 257
 326 400 l 257
 300 356 l 257
326 581 m 257
 336 577 348 575 363 575 c 256
 396 575 410 599 410 622 c 256
 410 672 363 687 326 712 c 257
 326 581 l 257
EndSplineSet
Refer: 447 3490 N 1 0 0 1 0 0 2
EndChar

StartChar: si_JI
Encoding: 151 -1 133
GlifName: si_J_I_
Width: 598
VWidth: 0
Flags: HW
LayerCount: 2
Back
Fore
SplineSet
233 490 m 256
 233 577 303 657 382 657 c 256
 429 657 461 626 461 583 c 256
 461 579 460 576 460 572 c 257
 430 544 l 257
 434 550 436 565 436 576 c 256
 436 605 424 622 393 622 c 256
 336 622 276 550 276 486 c 256
 276 454 291 429 332 429 c 256
 346 429 357 431 374 436 c 257
 370 425 l 257
 357 417 329 408 327 407 c 257
 326 407 324 407 323 407 c 256
 260 407 233 440 233 490 c 256
EndSplineSet
Refer: 447 3490 N 1 0 0 1 0 0 2
EndChar

StartChar: si_JIi
Encoding: 152 -1 134
GlifName: si_J_I_i
Width: 598
VWidth: 0
Flags: HW
LayerCount: 2
Back
Fore
SplineSet
338 579 m 256
 338 552 359 530 386 530 c 256
 413 530 435 552 435 579 c 256
 435 606 413 628 386 628 c 256
 359 628 338 606 338 579 c 256
233 490 m 256
 233 577 304 656 387 656 c 256
 432 656 464 619 464 579 c 256
 464 541 434 502 387 502 c 256
 339 502 312 540 312 574 c 256
 312 574 312 576 312 577 c 257
 293 552 276 520 276 486 c 256
 276 454 291 429 332 429 c 256
 346 429 357 431 374 436 c 257
 370 425 l 257
 357 417 329 408 327 407 c 257
 326 407 324 407 323 407 c 256
 260 407 233 440 233 490 c 256
EndSplineSet
Refer: 447 3490 N 1 0 0 1 0 0 2
EndChar

StartChar: si_JRI
Encoding: 157 -1 135
GlifName: si_J_R_I_
Width: 598
VWidth: 0
Flags: HW
LayerCount: 2
Back
Fore
SplineSet
40 -44 m 257
 68 -44 l 257
 103 -119 168 -157 273 -157 c 256
 416 -157 523 -90 523 50 c 256
 523 71 517 99 504 112 c 257
 520 140 l 257
 543 107 551 75 551 38 c 256
 551 -124 433 -219 289 -219 c 256
 156 -219 77 -153 40 -44 c 257
233 490 m 256
 233 577 303 657 382 657 c 256
 429 657 461 626 461 583 c 256
 461 579 460 576 460 572 c 257
 430 544 l 257
 434 550 436 565 436 576 c 256
 436 605 424 622 393 622 c 256
 336 622 276 550 276 486 c 256
 276 454 291 429 332 429 c 256
 346 429 357 431 374 436 c 257
 370 425 l 257
 357 417 329 408 327 407 c 257
 326 407 324 407 323 407 c 256
 260 407 233 440 233 490 c 256
EndSplineSet
Refer: 447 3490 N 1 0 0 1 0 0 2
EndChar

StartChar: si_JRIi
Encoding: 158 -1 136
GlifName: si_J_R_I_i
Width: 598
VWidth: 0
Flags: HW
LayerCount: 2
Back
Fore
SplineSet
40 -44 m 257
 68 -44 l 257
 103 -119 168 -157 273 -157 c 256
 416 -157 523 -90 523 50 c 256
 523 71 517 99 504 112 c 257
 520 140 l 257
 543 107 551 75 551 38 c 256
 551 -124 433 -219 289 -219 c 256
 156 -219 77 -153 40 -44 c 257
338 579 m 256
 338 552 359 530 386 530 c 256
 413 530 435 552 435 579 c 256
 435 606 413 628 386 628 c 256
 359 628 338 606 338 579 c 256
233 490 m 256
 233 577 304 656 387 656 c 256
 432 656 464 619 464 579 c 256
 464 541 434 502 387 502 c 256
 339 502 312 540 312 574 c 256
 312 574 312 576 312 577 c 257
 293 552 276 520 276 486 c 256
 276 454 291 429 332 429 c 256
 346 429 357 431 374 436 c 257
 370 425 l 257
 327 407 l 257
 326 407 324 407 323 407 c 256
 260 407 233 440 233 490 c 256
EndSplineSet
Refer: 447 3490 N 1 0 0 1 0 0 2
EndChar

StartChar: si_JRa
Encoding: 156 -1 137
GlifName: si_J_R_a
Width: 598
VWidth: 0
Flags: HW
LayerCount: 2
Back
Fore
SplineSet
40 -44 m 257
 68 -44 l 257
 103 -119 168 -157 273 -157 c 256
 416 -157 523 -90 523 50 c 256
 523 71 517 99 504 112 c 257
 520 140 l 257
 543 107 551 75 551 38 c 256
 551 -124 433 -219 289 -219 c 256
 156 -219 77 -153 40 -44 c 257
EndSplineSet
Refer: 447 3490 N 1 0 0 1 0 0 2
EndChar

StartChar: si_JU
Encoding: 153 -1 138
GlifName: si_J_U_
Width: 598
VWidth: 0
Flags: HW
LayerCount: 2
Back
Fore
SplineSet
39 -142 m 256
 39 -90 85 -50 140 -50 c 256
 182 -50 219 -74 234 -110 c 257
 204 -122 l 257
 197 -102 173 -80 140 -80 c 256
 103 -80 72 -106 72 -142 c 256
 72 -171 95 -199 161 -199 c 258
 508 -199 l 257
 508 128 l 257
 540 198 l 257
 540 -235 l 257
 144 -235 l 258
 75 -235 39 -186 39 -142 c 256
EndSplineSet
Refer: 447 3490 N 1 0 0 1 0 0 2
EndChar

StartChar: si_JUu
Encoding: 154 -1 139
GlifName: si_J_U_u
Width: 598
VWidth: 0
Flags: HW
LayerCount: 2
Back
Fore
SplineSet
39 -138 m 256
 39 -80 88 -40 141 -40 c 256
 183 -40 215 -55 238 -91 c 257
 208 -102 l 257
 196 -83 175 -68 146 -68 c 256
 107 -68 75 -92 75 -129 c 256
 75 -166 106 -191 149 -191 c 256
 233 -191 300 -117 395 -117 c 256
 443 -117 483 -138 508 -168 c 257
 508 141 l 257
 541 201 l 257
 541 -231 l 257
 518 -231 l 257
 503 -195 463 -144 398 -144 c 256
 307 -144 248 -237 150 -237 c 256
 95 -237 39 -206 39 -138 c 256
EndSplineSet
Refer: 447 3490 N 1 0 0 1 0 0 2
EndChar

StartChar: si_Ja.reph
Encoding: 155 -1 140
GlifName: si_J_a.reph
Width: 598
VWidth: 0
Flags: HW
LayerCount: 2
Back
Fore
SplineSet
202 491 m 256
 202 470 221 454 243 454 c 256
 265 454 284 470 284 491 c 256
 284 512 265 528 243 528 c 256
 221 528 202 512 202 491 c 256
100 510 m 256
 100 574 158 611 240 611 c 256
 317 611 381 568 381 497 c 256
 381 473 373 451 356 432 c 257
 322 432 l 257
 335 444 351 469 351 496 c 256
 351 553 300 584 239 584 c 256
 186 584 132 563 132 510 c 256
 132 471 173 452 196 450 c 257
 188 456 175 471 175 492 c 256
 175 527 206 552 242 552 c 256
 283 552 311 525 311 490 c 256
 311 451 276 425 218 425 c 256
 159 425 100 454 100 510 c 256
EndSplineSet
Refer: 447 3490 N 1 0 0 1 0 0 2
EndChar

StartChar: si_Jh.halant
Encoding: 159 -1 141
GlifName: si_J_h.halant
Width: 1087
VWidth: 0
Flags: HW
LayerCount: 2
Back
Fore
SplineSet
70 95 m 257
 76 98 82 100 89 100 c 256
 118 100 142 71 199 71 c 256
 250 71 281 102 281 162 c 256
 281 164 281 161 281 163 c 257
 307 163 l 257
 307 162 307 163 307 162 c 256
 307 97 334 71 392 71 c 256
 454 71 474 123 474 159 c 256
 474 242 401 291 298 291 c 256
 241 291 203 282 182 273 c 257
 165 258 145 235 129 212 c 256
 100 171 81 132 70 95 c 257
21 22 m 257
 29 91 74 184 109 232 c 256
 135 268 150 282 168 301 c 257
 180 314 193 330 193 352 c 256
 193 374 183 392 158 392 c 256
 144 392 122 384 116 363 c 256
 109 340 113 340 106 323 c 256
 99 305 84 297 69 297 c 256
 35 297 29 328 29 340 c 256
 29 394 79 433 136 433 c 256
 186 433 220 402 220 356 c 256
 220 351 220 346 219 341 c 257
 280 397 371 434 475 434 c 256
 575 434 642 414 671 398 c 257
 614 390 l 257
 570 402 518 406 474 406 c 256
 342 406 267 350 219 308 c 257
 243 314 275 316 302 316 c 256
 422 316 515 251 515 126 c 256
 515 68 482 -1 397 -1 c 256
 351 -1 317 20 296 63 c 257
 279 22 246 -1 204 -1 c 256
 117 -1 120 73 87 73 c 256
 65 73 50 51 47 11 c 257
 21 22 l 257
589 543 m 256
 589 531 613 526 613 515 c 256
 613 513 612 510 610 508 c 257
 643 514 683 519 729 519 c 256
 837 519 922 490 980 422 c 257
 947 537 850 590 734 590 c 256
 662 590 589 567 589 543 c 256
483 195 m 256
 483 288 536 364 602 387 c 256
 623 394 646 398 671 398 c 257
 671 373 l 258
 668 373 664 373 661 373 c 256
 582 373 517 301 517 212 c 256
 517 136 565 71 638 71 c 256
 689 71 740 92 740 156 c 258
 740 196 l 257
 768 196 l 257
 768 156 l 258
 768 92 818 71 867 71 c 256
 967 71 1004 188 1004 266 c 256
 1004 413 893 494 732 494 c 256
 656 494 586 479 509 456 c 257
 509 485 l 257
 537 489 576 499 576 508 c 256
 576 520 548 524 548 546 c 256
 548 583 613 629 728 629 c 256
 936 629 1010 490 1022 356 c 257
 1031 331 1040 287 1040 245 c 256
 1040 134 998 0 872 0 c 256
 823 0 783 20 753 59 c 257
 722 20 685 0 640 0 c 256
 538 0 483 96 483 195 c 256
EndSplineSet
EndChar

StartChar: si_JhI
Encoding: 160 -1 142
GlifName: si_J_hI_
Width: 1087
VWidth: 0
Flags: HW
LayerCount: 2
Back
Fore
SplineSet
70 95 m 257
 76 98 82 100 89 100 c 256
 118 100 142 71 199 71 c 256
 250 71 281 102 281 162 c 256
 281 164 281 161 281 163 c 257
 307 163 l 257
 307 162 307 163 307 162 c 256
 307 97 334 71 392 71 c 256
 454 71 474 123 474 159 c 256
 474 242 401 291 298 291 c 256
 241 291 203 282 182 273 c 257
 165 258 145 235 129 212 c 256
 100 171 81 132 70 95 c 257
21 22 m 257
 29 91 74 184 109 232 c 256
 135 268 150 282 168 301 c 257
 180 314 193 330 193 352 c 256
 193 374 183 392 158 392 c 256
 144 392 122 384 116 363 c 256
 109 340 113 340 106 323 c 256
 99 305 84 297 69 297 c 256
 35 297 29 328 29 340 c 256
 29 394 79 433 136 433 c 256
 186 433 220 402 220 356 c 256
 220 351 220 346 219 341 c 257
 280 397 371 434 475 434 c 256
 575 434 642 414 671 398 c 257
 614 390 l 257
 570 402 518 406 474 406 c 256
 342 406 267 350 219 308 c 257
 243 314 275 316 302 316 c 256
 422 316 515 251 515 126 c 256
 515 68 482 -1 397 -1 c 256
 351 -1 317 20 296 63 c 257
 279 22 246 -1 204 -1 c 256
 117 -1 120 73 87 73 c 256
 65 73 50 51 47 11 c 257
 21 22 l 257
EndSplineSet
Refer: 85 -1 N 1 0 0 1 450 0 2
EndChar

StartChar: si_JhIi
Encoding: 161 -1 143
GlifName: si_J_hI_i
Width: 1087
VWidth: 0
Flags: HW
LayerCount: 2
Back
Fore
SplineSet
70 95 m 257
 76 98 82 100 89 100 c 256
 118 100 142 71 199 71 c 256
 250 71 281 102 281 162 c 256
 281 164 281 161 281 163 c 257
 307 163 l 257
 307 162 307 163 307 162 c 256
 307 97 334 71 392 71 c 256
 454 71 474 123 474 159 c 256
 474 242 401 291 298 291 c 256
 241 291 203 282 182 273 c 257
 165 258 145 235 129 212 c 256
 100 171 81 132 70 95 c 257
21 22 m 257
 29 91 74 184 109 232 c 256
 135 268 150 282 168 301 c 257
 180 314 193 330 193 352 c 256
 193 374 183 392 158 392 c 256
 144 392 122 384 116 363 c 256
 109 340 113 340 106 323 c 256
 99 305 84 297 69 297 c 256
 35 297 29 328 29 340 c 256
 29 394 79 433 136 433 c 256
 186 433 220 402 220 356 c 256
 220 351 220 346 219 341 c 257
 280 397 371 434 475 434 c 256
 575 434 642 414 671 398 c 257
 614 390 l 257
 570 402 518 406 474 406 c 256
 342 406 267 350 219 308 c 257
 243 314 275 316 302 316 c 256
 422 316 515 251 515 126 c 256
 515 68 482 -1 397 -1 c 256
 351 -1 317 20 296 63 c 257
 279 22 246 -1 204 -1 c 256
 117 -1 120 73 87 73 c 256
 65 73 50 51 47 11 c 257
 21 22 l 257
EndSplineSet
Refer: 86 -1 N 1 0 0 1 450 0 2
EndChar

StartChar: si_JhRI
Encoding: 168 -1 144
GlifName: si_J_hR_I_
Width: 1087
VWidth: 0
Flags: HW
LayerCount: 2
Back
Fore
SplineSet
506 -44 m 257
 533 -44 l 257
 568 -119 638 -157 743 -157 c 256
 886 -157 1004 -90 1004 50 c 256
 1004 71 999 93 992 102 c 257
 1005 133 l 257
 1023 106 1032 75 1032 38 c 256
 1032 -124 903 -219 759 -219 c 256
 626 -219 543 -153 506 -44 c 257
EndSplineSet
Refer: 142 -1 N 1 0 0 1 0 0 2
EndChar

StartChar: si_JhRIi
Encoding: 169 -1 145
GlifName: si_J_hR_I_i
Width: 1087
VWidth: 0
Flags: HW
LayerCount: 2
Back
Fore
SplineSet
506 -44 m 257
 533 -44 l 257
 568 -119 638 -157 743 -157 c 256
 886 -157 1004 -90 1004 50 c 256
 1004 71 999 93 992 102 c 257
 1005 133 l 257
 1023 106 1032 75 1032 38 c 256
 1032 -124 903 -219 759 -219 c 256
 626 -219 543 -153 506 -44 c 257
EndSplineSet
Refer: 143 -1 N 1 0 0 1 0 0 2
EndChar

StartChar: si_JhRa
Encoding: 167 -1 146
GlifName: si_J_hR_a
Width: 1087
VWidth: 0
Flags: HW
LayerCount: 2
Back
Fore
SplineSet
506 -44 m 257
 533 -44 l 257
 568 -119 638 -157 743 -157 c 256
 886 -157 1004 -90 1004 50 c 256
 1004 71 999 93 992 102 c 257
 1005 133 l 257
 1023 106 1032 75 1032 38 c 256
 1032 -124 903 -219 759 -219 c 256
 626 -219 543 -153 506 -44 c 257
EndSplineSet
Refer: 448 3491 N 1 0 0 1 0 0 2
EndChar

StartChar: si_JhU
Encoding: 162 -1 147
GlifName: si_J_hU_
Width: 1087
VWidth: 0
Flags: HW
LayerCount: 2
Back
Fore
SplineSet
502 -142 m 256
 502 -90 548 -50 603 -50 c 256
 645 -50 682 -74 697 -110 c 257
 667 -122 l 257
 660 -102 636 -80 603 -80 c 256
 566 -80 535 -106 535 -142 c 256
 535 -171 558 -199 624 -199 c 258
 992 -199 l 257
 992 128 l 257
 1025 219 l 257
 1025 -235 l 257
 607 -235 l 258
 538 -235 502 -186 502 -142 c 256
EndSplineSet
Refer: 448 3491 N 1 0 0 1 0 0 2
EndChar

StartChar: si_JhU.reph
Encoding: 165 -1 148
GlifName: si_J_hU_.reph
Width: 1087
VWidth: 0
Flags: HW
LayerCount: 2
Back
Fore
SplineSet
724 622 m 256
 724 601 742 585 764 585 c 256
 786 585 805 601 805 622 c 256
 805 643 786 659 764 659 c 256
 742 659 724 643 724 622 c 256
622 641 m 256
 622 705 680 742 762 742 c 256
 839 742 902 699 902 628 c 256
 902 604 895 582 878 563 c 257
 844 563 l 257
 857 575 872 600 872 627 c 256
 872 684 821 715 760 715 c 256
 707 715 653 694 653 641 c 256
 653 602 694 583 717 581 c 257
 709 587 696 602 696 623 c 256
 696 658 728 683 764 683 c 256
 805 683 832 656 832 621 c 256
 832 582 798 556 740 556 c 256
 681 556 622 585 622 641 c 256
EndSplineSet
Refer: 147 -1 N 1 0 0 1 0 0 2
EndChar

StartChar: si_JhUu
Encoding: 163 -1 149
GlifName: si_J_hU_u
Width: 1087
VWidth: 0
Flags: HW
LayerCount: 2
Back
Fore
SplineSet
501 -138 m 256
 501 -80 550 -40 603 -40 c 256
 645 -40 677 -55 700 -91 c 257
 670 -102 l 257
 658 -83 637 -68 608 -68 c 256
 569 -68 537 -92 537 -129 c 256
 537 -166 568 -191 611 -191 c 256
 695 -191 778 -117 873 -117 c 256
 916 -117 965 -136 992 -168 c 257
 992 152 l 257
 1025 212 l 257
 1025 -231 l 257
 1002 -231 l 257
 987 -195 944 -144 876 -144 c 256
 785 -144 710 -237 612 -237 c 256
 557 -237 501 -206 501 -138 c 256
EndSplineSet
Refer: 448 3491 N 1 0 0 1 0 0 2
EndChar

StartChar: si_JhUu.reph
Encoding: 166 -1 150
GlifName: si_J_hU_u.reph
Width: 1087
VWidth: 0
Flags: HW
LayerCount: 2
Back
Fore
SplineSet
724 622 m 256
 724 601 742 585 764 585 c 256
 786 585 805 601 805 622 c 256
 805 643 786 659 764 659 c 256
 742 659 724 643 724 622 c 256
622 641 m 256
 622 705 680 742 762 742 c 256
 839 742 902 699 902 628 c 256
 902 604 895 582 878 563 c 257
 844 563 l 257
 857 575 872 600 872 627 c 256
 872 684 821 715 760 715 c 256
 707 715 653 694 653 641 c 256
 653 602 694 583 717 581 c 257
 709 587 696 602 696 623 c 256
 696 658 728 683 764 683 c 256
 805 683 832 656 832 621 c 256
 832 582 798 556 740 556 c 256
 681 556 622 585 622 641 c 256
501 -138 m 256
 501 -80 550 -40 603 -40 c 256
 645 -40 677 -55 700 -91 c 257
 670 -102 l 257
 658 -83 637 -68 608 -68 c 256
 569 -68 537 -92 537 -129 c 256
 537 -166 568 -191 611 -191 c 256
 695 -191 778 -117 873 -117 c 256
 916 -117 965 -136 992 -168 c 257
 992 152 l 257
 1025 212 l 257
 1025 -231 l 257
 1002 -231 l 257
 987 -195 944 -144 876 -144 c 256
 785 -144 710 -237 612 -237 c 256
 557 -237 501 -206 501 -138 c 256
EndSplineSet
Refer: 448 3491 N 1 0 0 1 0 0 2
EndChar

StartChar: si_Jha.reph
Encoding: 164 -1 151
GlifName: si_J_ha.reph
Width: 1087
VWidth: 0
Flags: HW
LayerCount: 2
Back
Fore
SplineSet
724 622 m 256
 724 601 742 585 764 585 c 256
 786 585 805 601 805 622 c 256
 805 643 786 660 764 660 c 256
 742 660 724 643 724 622 c 256
622 641 m 256
 622 705 680 742 762 742 c 256
 839 742 902 699 902 628 c 256
 902 604 895 582 878 563 c 257
 844 563 l 257
 857 575 872 600 872 627 c 256
 872 684 821 715 760 715 c 256
 707 715 653 694 653 641 c 256
 653 602 694 584 717 582 c 257
 709 588 696 602 696 623 c 256
 696 658 728 683 764 683 c 256
 805 683 832 656 832 621 c 256
 832 582 798 556 740 556 c 256
 681 556 622 585 622 641 c 256
EndSplineSet
Refer: 448 3491 N 1 0 0 1 0 0 2
EndChar

StartChar: si_Jny.halant
Encoding: 182 -1 152
GlifName: si_J_ny.halant
Width: 842
VWidth: 0
Flags: HW
LayerCount: 2
Back
Fore
SplineSet
654 413 m 257
 654 680 l 257
 708 638 804 633 804 541 c 256
 804 497 769 467 726 467 c 256
 711 467 697 470 682 477 c 257
 682 396 l 257
 654 413 l 257
682 502 m 257
 691 497 701 495 714 495 c 256
 752 495 768 520 768 544 c 256
 768 586 729 606 682 637 c 257
 682 502 l 257
EndSplineSet
Refer: 450 3493 N 1 0 0 1 0 0 2
EndChar

StartChar: si_JnyAa
Encoding: 183 -1 153
GlifName: si_J_nyA_a
Width: 842
VWidth: 0
Flags: HW
LayerCount: 2
Back
Fore
SplineSet
421 169 m 256
 421 274 494 317 613 317 c 258
 733 317 l 257
 723 363 694 396 650 396 c 256
 631 396 616 384 607 366 c 256
 597 344 580 336 565 336 c 256
 540 336 527 351 527 372 c 256
 527 408 567 433 622 433 c 256
 708 433 751 389 769 294 c 257
 632 294 l 258
 544 294 498 257 498 173 c 256
 498 89 563 26 648 26 c 256
 698 26 740 46 780 92 c 257
 803 75 l 257
 783 58 766 41 751 33 c 257
 754 34 752 34 756 34 c 256
 804 34 837 -18 837 -87 c 256
 837 -175 797 -212 738 -212 c 256
 689 -212 673 -187 673 -166 c 257
 700 -166 l 257
 700 -176 709 -187 728 -187 c 256
 770 -187 781 -148 781 -87 c 256
 781 -42 766 0 735 0 c 256
 706 0 694 -29 694 -45 c 257
 668 -45 l 257
 668 -29 676 -6 689 4 c 257
 661 -1 645 -1 624 -1 c 256
 493 -1 421 69 421 169 c 256
134 207 m 256
 134 330 209 432 320 432 c 256
 324 432 329 431 333 431 c 257
 333 408 l 257
 330 408 325 408 322 408 c 256
 236 408 169 332 169 230 c 256
 169 147 217 71 306 71 c 256
 365 71 418 99 418 158 c 256
 418 196 398 217 367 217 c 256
 360 217 349 214 344 210 c 257
 343 204 342 195 342 192 c 257
 315 192 l 257
 329 352 406 438 560 438 c 256
 591 438 641 436 674 426 c 257
 553 409 l 257
 547 409 544 410 538 410 c 256
 431 410 369 340 347 236 c 257
 355 240 363 241 370 241 c 256
 418 241 452 202 452 136 c 256
 452 56 395 -2 308 -2 c 256
 197 -2 134 96 134 207 c 256
27 221 m 256
 27 353 100 433 239 433 c 256
 248 433 301 434 324 432 c 257
 320 432 231 406 231 406 c 257
 97 406 56 312 56 218 c 256
 56 137 83 75 135 30 c 257
 135 0 l 257
 69 33 27 120 27 221 c 256
EndSplineSet
EndChar

StartChar: si_JnyI
Encoding: 187 -1 154
GlifName: si_J_nyI_
Width: 842
VWidth: 0
Flags: HW
LayerCount: 2
Back
Fore
SplineSet
425 518 m 256
 425 619 516 670 613 670 c 256
 710 670 801 617 801 518 c 256
 801 443 737 405 685 404 c 257
 637 429 l 257
 649 427 667 426 673 426 c 256
 722 426 770 459 770 508 c 256
 770 570 685 598 613 598 c 256
 541 598 456 572 456 508 c 256
 456 460 513 438 554 438 c 257
 536 414 l 257
 482 420 425 454 425 518 c 256
EndSplineSet
Refer: 450 3493 N 1 0 0 1 0 0 2
EndChar

StartChar: si_JnyIi
Encoding: 188 -1 155
GlifName: si_J_nyI_i
Width: 842
VWidth: 0
Flags: HW
LayerCount: 2
Back
Fore
SplineSet
637 514 m 256
 637 483 667 458 703 458 c 256
 739 458 769 483 769 514 c 256
 769 545 739 570 703 570 c 256
 667 570 637 545 637 514 c 256
425 524 m 256
 425 614 516 670 613 670 c 256
 710 670 801 614 801 522 c 256
 801 463 753 428 702 428 c 256
 642 428 605 469 605 514 c 256
 605 559 641 587 668 592 c 257
 657 595 627 598 613 598 c 256
 541 598 460 570 460 513 c 256
 460 465 517 438 576 438 c 257
 502 432 l 257
 465 438 425 473 425 524 c 256
EndSplineSet
Refer: 450 3493 N 1 0 0 1 0 0 2
EndChar

StartChar: si_JnyRI
Encoding: 192 -1 156
GlifName: si_J_nyR_I_
Width: 842
VWidth: 0
Flags: HW
LayerCount: 2
Back
Fore
SplineSet
421 169 m 256
 421 274 494 317 613 317 c 258
 733 317 l 257
 723 363 694 396 650 396 c 256
 631 396 615 384 606 366 c 256
 596 344 580 336 565 336 c 256
 540 336 527 351 527 372 c 256
 527 408 567 433 622 433 c 256
 708 433 751 389 769 294 c 257
 632 294 l 258
 544 294 498 257 498 173 c 256
 498 89 568 27 651 27 c 256
 697 27 741 50 774 92 c 257
 797 79 l 257
 757 34 718 -1 624 -1 c 256
 493 -1 421 69 421 169 c 256
425 518 m 256
 425 619 516 670 613 670 c 256
 710 670 801 617 801 518 c 256
 801 443 737 405 685 404 c 257
 637 429 l 257
 649 427 667 426 673 426 c 256
 722 426 770 459 770 508 c 256
 770 570 685 598 613 598 c 256
 541 598 456 572 456 508 c 256
 456 460 513 438 554 438 c 257
 536 414 l 257
 482 420 425 454 425 518 c 256
424 -43 m 257
 449 -43 l 257
 471 -112 516 -142 593 -142 c 256
 697 -142 772 -72 772 51 c 256
 772 72 772 66 771 74 c 257
 797 79 l 257
 797 59 797 76 797 39 c 256
 797 -109 710 -204 605 -204 c 256
 500 -204 444 -145 424 -43 c 257
27 221 m 256
 27 353 100 433 239 433 c 256
 248 433 301 434 324 432 c 257
 320 432 231 406 231 406 c 257
 97 406 56 312 56 218 c 256
 56 137 83 75 135 30 c 257
 135 0 l 257
 69 33 27 120 27 221 c 256
134 207 m 256
 134 330 209 432 320 432 c 256
 324 432 329 431 333 431 c 257
 333 408 l 257
 330 408 325 408 322 408 c 256
 236 408 169 332 169 230 c 256
 169 147 217 71 306 71 c 256
 365 71 418 99 418 158 c 256
 418 196 398 217 367 217 c 256
 360 217 349 214 344 210 c 257
 343 204 342 195 342 192 c 257
 315 192 l 257
 329 352 406 438 560 438 c 256
 591 438 641 436 674 426 c 257
 553 409 l 257
 547 409 544 410 538 410 c 256
 431 410 369 340 347 236 c 257
 355 240 363 241 370 241 c 256
 418 241 452 202 452 136 c 256
 452 56 395 -2 308 -2 c 256
 197 -2 134 96 134 207 c 256
EndSplineSet
EndChar

StartChar: si_JnyRIi
Encoding: 193 -1 157
GlifName: si_J_nyR_I_i
Width: 842
VWidth: 0
Flags: HW
LayerCount: 2
Back
Fore
SplineSet
637 514 m 256
 637 483 667 458 703 458 c 256
 739 458 769 483 769 514 c 256
 769 545 739 570 703 570 c 256
 667 570 637 545 637 514 c 256
425 518 m 256
 425 619 516 671 613 671 c 256
 710 671 801 615 801 523 c 256
 801 464 753 429 702 429 c 256
 642 429 605 470 605 515 c 256
 605 560 641 587 668 592 c 257
 657 595 627 598 613 598 c 256
 541 598 456 573 456 509 c 256
 456 461 500 432 576 432 c 257
 542 411 l 257
 476 421 425 451 425 518 c 256
424 -43 m 257
 449 -43 l 257
 471 -112 516 -142 593 -142 c 256
 697 -142 772 -72 772 51 c 256
 772 72 772 66 771 74 c 257
 797 79 l 257
 797 59 797 76 797 39 c 256
 797 -109 710 -204 605 -204 c 256
 500 -204 444 -145 424 -43 c 257
421 169 m 256
 421 274 494 317 613 317 c 258
 733 317 l 257
 723 363 694 396 650 396 c 256
 631 396 615 384 606 366 c 256
 596 344 580 336 565 336 c 256
 540 336 527 351 527 372 c 256
 527 408 567 433 622 433 c 256
 708 433 751 389 769 294 c 257
 632 294 l 258
 544 294 498 257 498 173 c 256
 498 89 568 27 651 27 c 256
 697 27 741 50 774 92 c 257
 797 79 l 257
 757 34 718 -1 624 -1 c 256
 493 -1 421 69 421 169 c 256
134 207 m 256
 134 330 209 432 320 432 c 256
 324 432 329 431 333 431 c 257
 333 408 l 257
 330 408 325 408 322 408 c 256
 236 408 169 332 169 230 c 256
 169 147 217 71 306 71 c 256
 365 71 418 99 418 158 c 256
 418 196 398 217 367 217 c 256
 360 217 349 214 344 210 c 257
 343 204 342 195 342 192 c 257
 315 192 l 257
 329 352 406 438 560 438 c 256
 591 438 641 436 674 426 c 257
 553 409 l 257
 547 409 544 410 538 410 c 256
 431 410 369 340 347 236 c 257
 355 240 363 241 370 241 c 256
 418 241 452 202 452 136 c 256
 452 56 395 -2 308 -2 c 256
 197 -2 134 96 134 207 c 256
27 221 m 256
 27 353 100 433 239 433 c 256
 248 433 301 434 324 432 c 257
 320 432 231 406 231 406 c 257
 97 406 56 312 56 218 c 256
 56 137 83 75 135 30 c 257
 135 0 l 257
 69 33 27 120 27 221 c 256
EndSplineSet
EndChar

StartChar: si_JnyRa
Encoding: 191 -1 158
GlifName: si_J_nyR_a
Width: 842
VWidth: 0
Flags: HW
LayerCount: 2
Back
Fore
SplineSet
424 -43 m 257
 449 -43 l 257
 471 -112 516 -142 593 -142 c 256
 697 -142 772 -72 772 51 c 256
 772 72 772 66 771 74 c 257
 797 79 l 257
 797 59 797 76 797 39 c 256
 797 -109 710 -204 605 -204 c 256
 500 -204 444 -145 424 -43 c 257
421 169 m 256
 421 274 494 317 613 317 c 258
 733 317 l 257
 723 363 694 396 650 396 c 256
 631 396 615 384 606 366 c 256
 596 344 580 336 565 336 c 256
 540 336 527 351 527 372 c 256
 527 408 567 433 622 433 c 256
 708 433 751 389 769 294 c 257
 632 294 l 258
 544 294 498 257 498 173 c 256
 498 89 568 27 651 27 c 256
 697 27 741 50 774 92 c 257
 797 79 l 257
 757 34 718 -1 624 -1 c 256
 493 -1 421 69 421 169 c 256
27 221 m 256
 27 353 100 433 239 433 c 256
 248 433 301 434 324 432 c 257
 320 432 231 406 231 406 c 257
 97 406 56 312 56 218 c 256
 56 137 83 75 135 30 c 257
 135 0 l 257
 69 33 27 120 27 221 c 256
134 207 m 256
 134 330 209 432 320 432 c 256
 324 432 329 431 333 431 c 257
 333 408 l 257
 330 408 325 408 322 408 c 256
 236 408 169 332 169 230 c 256
 169 147 217 71 306 71 c 256
 365 71 418 99 418 158 c 256
 418 196 398 217 367 217 c 256
 360 217 349 214 344 210 c 257
 343 204 342 195 342 192 c 257
 315 192 l 257
 329 352 406 438 560 438 c 256
 591 438 641 436 674 426 c 257
 553 409 l 257
 547 409 544 410 538 410 c 256
 431 410 369 340 347 236 c 257
 355 240 363 241 370 241 c 256
 418 241 452 202 452 136 c 256
 452 56 395 -2 308 -2 c 256
 197 -2 134 96 134 207 c 256
EndSplineSet
EndChar

StartChar: si_JnyU
Encoding: 189 -1 159
GlifName: si_J_nyU_
Width: 842
VWidth: 0
Flags: HW
LayerCount: 2
Back
Fore
SplineSet
423 -142 m 256
 423 -90 469 -50 524 -50 c 256
 566 -50 603 -74 618 -110 c 257
 588 -122 l 257
 581 -102 557 -80 524 -80 c 256
 487 -80 456 -106 456 -142 c 256
 456 -171 479 -199 545 -199 c 258
 764 -199 l 257
 764 69 l 257
 797 79 l 257
 797 -235 l 257
 528 -235 l 258
 459 -235 423 -186 423 -142 c 256
421 169 m 256
 421 274 494 317 613 317 c 258
 733 317 l 257
 723 363 694 396 650 396 c 256
 631 396 615 384 606 366 c 256
 596 344 580 336 565 336 c 256
 540 336 527 351 527 372 c 256
 527 408 567 433 622 433 c 256
 708 433 751 389 769 294 c 257
 632 294 l 258
 544 294 498 257 498 173 c 256
 498 89 568 27 651 27 c 256
 697 27 741 50 774 92 c 257
 797 79 l 257
 757 34 718 -1 624 -1 c 256
 493 -1 421 69 421 169 c 256
27 221 m 256
 27 353 100 433 239 433 c 256
 248 433 301 434 324 432 c 257
 320 432 231 406 231 406 c 257
 97 406 56 312 56 218 c 256
 56 137 83 75 135 30 c 257
 135 0 l 257
 69 33 27 120 27 221 c 256
134 207 m 256
 134 330 209 432 320 432 c 256
 324 432 329 431 333 431 c 257
 333 408 l 257
 330 408 325 408 322 408 c 256
 236 408 169 332 169 230 c 256
 169 147 217 71 306 71 c 256
 365 71 418 99 418 158 c 256
 418 196 398 217 367 217 c 256
 360 217 349 214 344 210 c 257
 343 204 342 195 342 192 c 257
 315 192 l 257
 329 352 406 438 560 438 c 256
 591 438 641 436 674 426 c 257
 553 409 l 257
 547 409 544 410 538 410 c 256
 431 410 369 340 347 236 c 257
 355 240 363 241 370 241 c 256
 418 241 452 202 452 136 c 256
 452 56 395 -2 308 -2 c 256
 197 -2 134 96 134 207 c 256
EndSplineSet
EndChar

StartChar: si_JnyUu
Encoding: 190 -1 160
GlifName: si_J_nyU_u
Width: 842
VWidth: 0
Flags: HW
LayerCount: 2
Back
Fore
SplineSet
423 -139 m 256
 423 -81 472 -41 525 -41 c 256
 567 -41 599 -56 622 -92 c 257
 592 -103 l 257
 580 -84 559 -69 530 -69 c 256
 491 -69 459 -93 459 -130 c 256
 459 -167 487 -192 530 -192 c 256
 585 -192 612 -128 690 -128 c 256
 715 -128 745 -136 764 -160 c 257
 764 72 l 257
 797 79 l 257
 797 -232 l 257
 774 -232 l 257
 760 -194 741 -154 696 -154 c 256
 619 -154 598 -238 522 -238 c 256
 474 -238 423 -207 423 -139 c 256
421 169 m 256
 421 274 494 317 613 317 c 258
 733 317 l 257
 723 363 694 396 650 396 c 256
 631 396 615 384 606 366 c 256
 596 344 580 336 565 336 c 256
 540 336 527 351 527 372 c 256
 527 408 567 433 622 433 c 256
 708 433 751 389 769 294 c 257
 632 294 l 258
 544 294 498 257 498 173 c 256
 498 89 568 27 651 27 c 256
 697 27 741 50 774 92 c 257
 797 79 l 257
 757 34 718 -1 624 -1 c 256
 493 -1 421 69 421 169 c 256
27 221 m 256
 27 353 100 433 239 433 c 256
 248 433 301 434 324 432 c 257
 320 432 231 406 231 406 c 257
 97 406 56 312 56 218 c 256
 56 137 83 75 135 30 c 257
 135 0 l 257
 69 33 27 120 27 221 c 256
134 207 m 256
 134 330 209 432 320 432 c 256
 324 432 329 431 333 431 c 257
 333 408 l 257
 330 408 325 408 322 408 c 256
 236 408 169 332 169 230 c 256
 169 147 217 71 306 71 c 256
 365 71 418 99 418 158 c 256
 418 196 398 217 367 217 c 256
 360 217 349 214 344 210 c 257
 343 204 342 195 342 192 c 257
 315 192 l 257
 329 352 406 438 560 438 c 256
 591 438 641 436 674 426 c 257
 553 409 l 257
 547 409 544 410 538 410 c 256
 431 410 369 340 347 236 c 257
 355 240 363 241 370 241 c 256
 418 241 452 202 452 136 c 256
 452 56 395 -2 308 -2 c 256
 197 -2 134 96 134 207 c 256
EndSplineSet
EndChar

StartChar: si_K.halant
Encoding: 90 -1 161
GlifName: si_K_.halant
Width: 746
VWidth: 0
Flags: HW
LayerCount: 2
Back
Fore
SplineSet
551 347 m 257
 551 680 l 257
 605 638 701 633 701 541 c 256
 701 497 666 467 623 467 c 256
 608 467 593 470 578 477 c 257
 578 330 l 257
 551 347 l 257
578 502 m 257
 587 497 598 495 611 495 c 256
 649 495 664 520 664 544 c 256
 664 586 625 606 578 637 c 257
 578 502 l 257
EndSplineSet
Refer: 439 3482 N 1 0 0 1 0 0 2
EndChar

StartChar: si_KI
Encoding: 91 -1 162
GlifName: si_K_I_
Width: 746
VWidth: 0
Flags: HW
LayerCount: 2
Back
Fore
SplineSet
218 421 m 256
 218 590 330 671 473 671 c 256
 603 671 688 610 688 505 c 256
 688 444 658 402 610 383 c 257
 578 403 l 257
 618 405 656 440 656 486 c 256
 656 574 555 598 473 598 c 256
 336 598 244 528 244 404 c 256
 244 389 246 376 249 365 c 257
 225 343 l 257
 221 361 218 390 218 421 c 256
EndSplineSet
Refer: 439 3482 N 1 0 0 1 0 0 2
EndChar

StartChar: si_KIi
Encoding: 92 -1 163
GlifName: si_K_I_i
Width: 746
VWidth: 0
Flags: HW
LayerCount: 2
Back
Fore
SplineSet
531 476 m 256
 531 444 558 417 591 417 c 256
 624 417 651 444 651 476 c 256
 651 508 624 535 591 535 c 256
 558 535 531 508 531 476 c 256
218 421 m 256
 218 590 330 671 473 671 c 256
 603 671 689 600 689 495 c 256
 689 444 651 388 593 388 c 256
 535 388 500 433 500 477 c 256
 500 539 557 578 620 562 c 257
 581 590 520 598 473 598 c 256
 336 598 244 528 244 404 c 256
 244 389 246 376 249 365 c 257
 225 343 l 257
 221 361 218 390 218 421 c 256
EndSplineSet
Refer: 439 3482 N 1 0 0 1 0 0 2
EndChar

StartChar: si_KRI
Encoding: 98 -1 164
GlifName: si_K_R_I_
Width: 746
VWidth: 0
Flags: HW
LayerCount: 2
Back
Fore
SplineSet
114 -44 m 257
 141 -44 l 257
 176 -119 264 -157 369 -157 c 256
 512 -157 660 -90 660 50 c 256
 660 71 655 93 648 102 c 257
 659 133 l 257
 677 106 686 75 686 38 c 256
 686 -124 536 -219 385 -219 c 256
 244 -219 151 -153 114 -44 c 257
EndSplineSet
Refer: 162 -1 N 1 0 0 1 0 0 2
EndChar

StartChar: si_KRIi
Encoding: 99 -1 165
GlifName: si_K_R_I_i
Width: 746
VWidth: 0
Flags: HW
LayerCount: 2
Back
Fore
SplineSet
114 -44 m 257
 141 -44 l 257
 176 -119 264 -157 369 -157 c 256
 512 -157 660 -90 660 50 c 256
 660 71 655 93 648 102 c 257
 659 133 l 257
 677 106 686 75 686 38 c 256
 686 -124 536 -219 385 -219 c 256
 244 -219 151 -153 114 -44 c 257
EndSplineSet
Refer: 163 -1 N 1 0 0 1 0 0 2
EndChar

StartChar: si_KRa
Encoding: 97 -1 166
GlifName: si_K_R_a
Width: 746
VWidth: 0
Flags: HW
LayerCount: 2
Back
Fore
SplineSet
114 -44 m 257
 141 -44 l 257
 176 -119 264 -157 369 -157 c 256
 512 -157 660 -90 660 50 c 256
 660 71 655 93 648 102 c 257
 659 133 l 257
 677 106 686 75 686 38 c 256
 686 -124 536 -219 385 -219 c 256
 244 -219 151 -153 114 -44 c 257
EndSplineSet
Refer: 439 3482 N 1 0 0 1 0 0 2
EndChar

StartChar: si_KSs.halant
Encoding: 440 -1 167
GlifName: si_K_S_s.halant
Width: 1069
VWidth: 0
Flags: HW
LayerCount: 2
Back
Fore
SplineSet
870 413 m 257
 870 680 l 257
 924 638 1020 633 1020 541 c 256
 1020 497 985 467 942 467 c 256
 927 467 912 470 897 477 c 257
 897 410 l 257
 870 413 l 257
897 502 m 257
 906 497 917 495 930 495 c 256
 968 495 983 520 983 544 c 256
 983 586 944 606 897 637 c 257
 897 502 l 257
EndSplineSet
Refer: 172 -1 N 1 0 0 1 0 0 2
EndChar

StartChar: si_KSsI
Encoding: 441 -1 168
GlifName: si_K_S_sI_
Width: 1069
VWidth: 0
Flags: HW
LayerCount: 2
Back
Fore
SplineSet
515 518 m 256
 515 626 628 671 747 671 c 256
 866 671 979 626 979 518 c 256
 979 443 913 408 836 405 c 257
 836 426 l 257
 890 429 945 454 945 509 c 256
 945 580 836 598 747 598 c 256
 658 598 549 580 549 509 c 256
 549 454 604 429 658 426 c 257
 658 405 l 257
 581 408 515 443 515 518 c 256
EndSplineSet
Refer: 172 -1 N 1 0 0 1 0 0 2
EndChar

StartChar: si_KSsIi
Encoding: 442 -1 169
GlifName: si_K_S_sI_i
Width: 1069
VWidth: 0
Flags: HW
LayerCount: 2
Back
Fore
SplineSet
833 514 m 256
 833 483 863 458 899 458 c 256
 935 458 965 483 965 514 c 256
 965 545 935 570 899 570 c 256
 863 570 833 545 833 514 c 256
496 517 m 256
 496 624 620 671 747 671 c 256
 864 671 1000 627 1000 524 c 256
 1000 469 955 429 899 429 c 256
 841 429 801 470 801 515 c 256
 801 560 833 582 852 591 c 257
 841 594 802 600 748 600 c 256
 654 600 533 578 533 499 c 256
 533 460 555 435 593 426 c 257
 586 406 l 257
 533 411 496 456 496 517 c 256
EndSplineSet
Refer: 172 -1 N 1 0 0 1 0 0 2
EndChar

StartChar: si_KSsU
Encoding: 443 -1 170
GlifName: si_K_S_sU_
Width: 1069
VWidth: 0
Flags: HW
LayerCount: 2
Back
Fore
SplineSet
492 -142 m 256
 492 -90 539 -50 594 -50 c 256
 636 -50 673 -74 688 -110 c 257
 658 -122 l 257
 651 -102 627 -80 594 -80 c 256
 557 -80 526 -106 526 -142 c 256
 526 -171 549 -199 615 -199 c 258
 982 -199 l 257
 982 128 l 257
 1015 198 l 257
 1015 -235 l 257
 598 -235 l 258
 529 -235 492 -186 492 -142 c 256
EndSplineSet
Refer: 172 -1 N 1 0 0 1 0 0 2
EndChar

StartChar: si_KSsUu
Encoding: 444 -1 171
GlifName: si_K_S_sU_u
Width: 1069
VWidth: 0
Flags: HW
LayerCount: 2
Back
Fore
SplineSet
491 -138 m 256
 491 -80 540 -40 593 -40 c 256
 635 -40 667 -55 690 -91 c 257
 660 -102 l 257
 648 -83 627 -68 598 -68 c 256
 559 -68 527 -92 527 -129 c 256
 527 -166 558 -191 601 -191 c 256
 685 -191 761 -117 856 -117 c 256
 906 -117 955 -136 982 -168 c 257
 982 152 l 257
 1015 212 l 257
 1015 -231 l 257
 992 -231 l 257
 972 -193 929 -145 858 -145 c 256
 767 -145 700 -237 602 -237 c 256
 547 -237 491 -206 491 -138 c 256
EndSplineSet
Refer: 172 -1 N 1 0 0 1 0 0 2
EndChar

StartChar: si_KSsa
Encoding: 429 -1 172
GlifName: si_K_S_sa
Width: 1069
VWidth: 0
Flags: HW
LayerCount: 2
Back
Fore
SplineSet
70 95 m 257
 76 98 82 100 89 100 c 256
 118 100 142 71 199 71 c 256
 250 71 281 102 281 162 c 256
 281 164 281 161 281 163 c 257
 307 163 l 257
 307 162 307 163 307 162 c 256
 307 97 334 71 392 71 c 256
 454 71 474 123 474 159 c 256
 474 242 401 291 298 291 c 256
 241 291 203 282 182 273 c 257
 165 258 145 235 129 212 c 256
 100 171 81 132 70 95 c 257
21 22 m 257
 29 91 74 184 109 232 c 256
 135 268 150 282 168 301 c 257
 180 314 193 330 193 352 c 256
 193 374 183 392 158 392 c 256
 144 392 122 384 116 363 c 256
 109 340 113 340 106 323 c 256
 99 305 84 297 69 297 c 256
 35 297 29 328 29 340 c 256
 29 394 79 433 136 433 c 256
 186 433 220 402 220 356 c 256
 220 351 220 346 219 341 c 257
 300 401 419 436 555 436 c 256
 590 436 624 433 624 433 c 257
 541 405 l 257
 541 405 529 406 524 406 c 256
 378 406 273 350 219 308 c 257
 243 314 275 316 302 316 c 256
 422 316 515 251 515 126 c 256
 515 68 482 -1 397 -1 c 256
 351 -1 317 20 296 63 c 257
 279 22 246 -1 204 -1 c 256
 117 -1 120 73 87 73 c 256
 65 73 50 51 47 11 c 257
 21 22 l 257
479 184 m 256
 479 275 546 327 654 327 c 256
 667 327 678 326 691 325 c 257
 691 329 692 332 692 336 c 256
 692 375 666 395 635 395 c 256
 603 395 591 379 586 360 c 256
 582 346 569 328 541 328 c 256
 522 328 503 340 503 365 c 256
 503 409 550 434 605 434 c 256
 677 434 722 401 722 334 c 256
 722 323 721 311 718 298 c 257
 700 300 665 302 664 302 c 256
 587 302 516 276 516 201 c 256
 516 107 640 71 754 71 c 256
 861 71 987 110 987 205 c 256
 987 278 919 304 841 304 c 256
 818 304 794 301 771 297 c 257
 769 308 768 318 768 328 c 256
 768 397 813 433 886 433 c 256
 952 433 988 393 988 354 c 256
 988 292 896 250 846 240 c 257
 865 231 879 216 879 197 c 256
 879 152 822 135 743 135 c 256
 687 135 619 149 619 198 c 256
 619 226 639 254 735 254 c 256
 758 254 805 255 836 261 c 256
 886 270 953 306 953 351 c 256
 953 380 926 405 879 405 c 256
 836 405 800 381 800 336 c 256
 800 332 800 329 801 325 c 257
 818 327 834 328 850 328 c 256
 941 328 1021 293 1021 186 c 256
 1021 55 895 0 754 0 c 256
 606 0 479 46 479 184 c 256
649 198 m 256
 649 175 681 161 746 161 c 256
 814 161 849 175 849 197 c 256
 849 222 815 232 745 232 c 256
 680 232 649 220 649 198 c 256
EndSplineSet
EndChar

StartChar: si_KU
Encoding: 93 -1 173
GlifName: si_K_U_
Width: 746
VWidth: 0
Flags: HW
LayerCount: 2
Back
Fore
SplineSet
443 -80 m 256
 443 -30 472 8 516 21 c 257
 522 -6 l 257
 501 -14 481 -33 481 -63 c 256
 481 -107 528 -132 584 -132 c 256
 636 -132 691 -99 691 -45 c 256
 691 -42 690 -39 690 -36 c 257
 720 -36 l 257
 722 -45 722 -61 722 -70 c 256
 722 -123 677 -192 582 -192 c 256
 512 -192 443 -149 443 -80 c 256
21 22 m 257
 29 91 74 184 109 232 c 256
 135 268 150 282 168 301 c 257
 180 314 193 330 193 352 c 256
 193 374 183 392 158 392 c 256
 144 392 122 384 116 363 c 256
 109 340 113 340 106 323 c 256
 99 305 84 297 69 297 c 256
 35 297 29 328 29 340 c 256
 29 394 79 433 136 433 c 256
 186 433 220 402 220 356 c 256
 220 351 220 346 219 341 c 257
 281 401 366 434 453 434 c 256
 603 434 701 328 701 192 c 256
 701 112 656 0 565 0 c 256
 547 0 530 -3 520 -7 c 257
 512 19 l 257
 521 24 545 27 556 27 c 256
 607 27 649 74 649 153 c 256
 649 285 534 368 400 368 c 256
 327 368 266 348 219 308 c 257
 243 314 275 316 302 316 c 256
 422 316 515 251 515 126 c 256
 515 68 482 -1 397 -1 c 256
 351 -1 317 20 296 63 c 257
 279 22 246 -1 204 -1 c 256
 117 -1 120 73 87 73 c 256
 65 73 50 51 47 11 c 257
 21 22 l 257
70 95 m 257
 76 98 82 100 89 100 c 256
 118 100 142 71 199 71 c 256
 250 71 281 102 281 162 c 256
 281 164 281 161 281 163 c 257
 307 163 l 257
 307 162 307 163 307 162 c 256
 307 97 334 71 392 71 c 256
 454 71 474 123 474 159 c 256
 474 242 401 291 298 291 c 256
 241 291 203 282 182 273 c 257
 165 258 145 235 129 212 c 256
 100 171 81 132 70 95 c 257
EndSplineSet
EndChar

StartChar: si_KUu
Encoding: 94 -1 175
GlifName: si_K_U_u
Width: 746
VWidth: 0
Flags: HW
LayerCount: 2
Back
Fore
SplineSet
446 -129 m 256
 446 -93 477 -71 510 -67 c 257
 455 -39 l 257
 542 -14 l 257
 506 0 l 257
 506 21 l 257
 600 -14 l 257
 514 -43 l 257
 574 -76 l 257
 546 -83 486 -85 486 -115 c 256
 486 -146 528 -155 570 -155 c 256
 624 -155 670 -131 670 -82 c 256
 670 -77 669 -69 664 -59 c 257
 697 -59 l 257
 701 -71 701 -83 701 -94 c 256
 701 -161 650 -205 568 -205 c 256
 510 -205 446 -187 446 -129 c 256
EndSplineSet
Refer: 439 3482 N 1 0 0 1 0 0 2
EndChar

StartChar: si_KV.halant
Encoding: 445 -1 176
GlifName: si_K_V_.halant
Width: 1061
VWidth: 0
Flags: HW
LayerCount: 2
Back
Fore
SplineSet
21 22 m 257
 29 91 74 184 109 232 c 256
 135 268 150 282 168 301 c 257
 180 314 193 330 193 352 c 256
 193 374 183 392 158 392 c 256
 144 392 122 384 116 363 c 256
 109 340 113 340 106 323 c 256
 99 305 84 297 69 297 c 256
 35 297 29 328 29 340 c 256
 29 394 79 433 136 433 c 256
 186 433 220 402 220 356 c 256
 220 351 220 346 219 341 c 257
 247 360 284 384 355 406 c 256
 426 430 483 436 564 436 c 256
 587 436 645 433 682 421 c 257
 600 408 l 257
 589 409 568 409 558 409 c 256
 509 409 471 405 439 399 c 256
 356 385 294 361 219 308 c 257
 243 314 275 316 302 316 c 256
 422 316 515 251 515 126 c 256
 515 68 482 -1 397 -1 c 256
 351 -1 317 20 296 63 c 257
 279 22 246 -1 204 -1 c 256
 117 -1 120 73 87 73 c 256
 65 73 50 51 47 11 c 257
 21 22 l 257
70 95 m 257
 76 98 82 100 89 100 c 256
 118 100 142 71 199 71 c 256
 250 71 281 102 281 162 c 256
 281 164 281 161 281 163 c 257
 307 163 l 257
 307 162 307 163 307 162 c 256
 307 97 334 71 392 71 c 256
 454 71 474 123 474 159 c 256
 474 242 401 291 298 291 c 256
 241 291 203 282 182 273 c 257
 165 258 145 235 129 212 c 256
 100 171 81 132 70 95 c 257
497 165 m 256
 497 250 562 304 663 304 c 258
 724 304 l 258
 724 306 724 306 724 308 c 256
 724 362 690 395 653 395 c 256
 608 395 600 371 594 355 c 256
 587 336 578 323 556 323 c 256
 540 323 520 333 520 359 c 256
 520 404 570 432 625 432 c 256
 713 432 756 376 756 290 c 256
 756 287 756 283 756 280 c 258
 666 280 l 258
 592 280 532 245 532 180 c 256
 532 94 644 71 734 71 c 256
 881 71 978 154 978 292 c 256
 978 420 871 494 728 494 c 256
 652 494 583 477 503 452 c 257
 503 484 l 257
 535 491 586 499 586 508 c 256
 586 520 558 524 558 546 c 256
 558 583 621 629 736 629 c 256
 931 629 992 490 1004 356 c 256
 1009 332 1012 305 1012 274 c 257
 1012 113 913 0 731 0 c 256
 610 0 497 46 497 165 c 256
598 543 m 256
 598 531 622 526 622 515 c 256
 622 513 622 510 620 508 c 257
 653 514 690 519 736 519 c 256
 825 519 914 487 962 422 c 257
 929 537 848 590 742 590 c 256
 670 590 598 567 598 543 c 256
EndSplineSet
EndChar

StartChar: si_KVI
Encoding: 446 -1 177
GlifName: si_K_V_I_
Width: 1061
VWidth: 0
Flags: HW
LayerCount: 2
Back
Fore
SplineSet
21 22 m 257
 29 91 74 184 109 232 c 256
 135 268 150 282 168 301 c 257
 180 314 193 330 193 352 c 256
 193 374 183 392 158 392 c 256
 144 392 122 384 116 363 c 256
 109 340 113 340 106 323 c 256
 99 305 84 297 69 297 c 256
 35 297 29 328 29 340 c 256
 29 394 79 433 136 433 c 256
 186 433 220 402 220 356 c 256
 220 351 220 346 219 341 c 257
 247 360 284 384 355 406 c 256
 426 430 483 436 564 436 c 256
 587 436 645 433 682 421 c 257
 600 408 l 257
 589 409 568 409 558 409 c 256
 509 409 471 405 439 399 c 256
 356 385 294 361 219 308 c 257
 243 314 275 316 302 316 c 256
 422 316 515 251 515 126 c 256
 515 68 482 -1 397 -1 c 256
 351 -1 317 20 296 63 c 257
 279 22 246 -1 204 -1 c 256
 117 -1 120 73 87 73 c 256
 65 73 50 51 47 11 c 257
 21 22 l 257
70 95 m 257
 76 98 82 100 89 100 c 256
 118 100 142 71 199 71 c 256
 250 71 281 102 281 162 c 256
 281 164 281 161 281 163 c 257
 307 163 l 257
 307 162 307 163 307 162 c 256
 307 97 334 71 392 71 c 256
 454 71 474 123 474 159 c 256
 474 242 401 291 298 291 c 256
 241 291 203 282 182 273 c 257
 165 258 145 235 129 212 c 256
 100 171 81 132 70 95 c 257
EndSplineSet
Refer: 397 -1 N 1 0 0 1 465 0 2
EndChar

StartChar: si_KVIi
Encoding: 447 -1 178
GlifName: si_K_V_I_i
Width: 1061
VWidth: 0
Flags: HW
LayerCount: 2
Back
Fore
SplineSet
21 22 m 257
 29 91 74 184 109 232 c 256
 135 268 150 282 168 301 c 257
 180 314 193 330 193 352 c 256
 193 374 183 392 158 392 c 256
 144 392 122 384 116 363 c 256
 109 340 113 340 106 323 c 256
 99 305 84 297 69 297 c 256
 35 297 29 328 29 340 c 256
 29 394 79 433 136 433 c 256
 186 433 220 402 220 356 c 256
 220 351 220 346 219 341 c 257
 247 360 284 384 355 406 c 256
 426 430 483 436 564 436 c 256
 587 436 645 433 682 421 c 257
 600 408 l 257
 589 409 568 409 558 409 c 256
 509 409 471 405 439 399 c 256
 356 385 294 361 219 308 c 257
 243 314 275 316 302 316 c 256
 422 316 515 251 515 126 c 256
 515 68 482 -1 397 -1 c 256
 351 -1 317 20 296 63 c 257
 279 22 246 -1 204 -1 c 256
 117 -1 120 73 87 73 c 256
 65 73 50 51 47 11 c 257
 21 22 l 257
70 95 m 257
 76 98 82 100 89 100 c 256
 118 100 142 71 199 71 c 256
 250 71 281 102 281 162 c 256
 281 164 281 161 281 163 c 257
 307 163 l 257
 307 162 307 163 307 162 c 256
 307 97 334 71 392 71 c 256
 454 71 474 123 474 159 c 256
 474 242 401 291 298 291 c 256
 241 291 203 282 182 273 c 257
 165 258 145 235 129 212 c 256
 100 171 81 132 70 95 c 257
EndSplineSet
Refer: 398 -1 N 1 0 0 1 464 0 2
EndChar

StartChar: si_KVU
Encoding: 448 -1 179
GlifName: si_K_V_U_
Width: 1061
VWidth: 0
Flags: HW
LayerCount: 2
Back
Fore
SplineSet
509 -142 m 256
 509 -90 555 -50 610 -50 c 256
 652 -50 689 -74 704 -110 c 257
 674 -122 l 257
 667 -102 643 -80 610 -80 c 256
 573 -80 542 -106 542 -142 c 256
 542 -171 565 -199 631 -199 c 258
 970 -199 l 257
 970 128 l 257
 1003 219 l 257
 1003 -235 l 257
 614 -235 l 258
 545 -235 509 -186 509 -142 c 256
EndSplineSet
Refer: 181 -1 N 1 0 0 1 0 0 2
EndChar

StartChar: si_KVUu
Encoding: 449 -1 180
GlifName: si_K_V_U_u
Width: 1061
VWidth: 0
Flags: HW
LayerCount: 2
Back
Fore
SplineSet
511 -138 m 256
 511 -80 560 -40 613 -40 c 256
 655 -40 687 -55 710 -91 c 257
 680 -102 l 257
 668 -83 647 -68 618 -68 c 256
 579 -68 547 -92 547 -129 c 256
 547 -166 578 -191 621 -191 c 256
 705 -191 771 -117 866 -117 c 256
 914 -117 946 -134 970 -160 c 257
 970 152 l 257
 1003 212 l 257
 1003 -231 l 257
 980 -231 l 257
 965 -195 935 -144 870 -144 c 256
 779 -144 720 -237 622 -237 c 256
 567 -237 511 -206 511 -138 c 256
EndSplineSet
Refer: 181 -1 N 1 0 0 1 0 0 2
EndChar

StartChar: si_KVa
Encoding: 430 -1 181
GlifName: si_K_V_a
Width: 1061
VWidth: 0
Flags: HW
LayerCount: 2
Back
Fore
SplineSet
21 22 m 257
 29 91 74 184 109 232 c 256
 135 268 150 282 168 301 c 257
 180 314 193 330 193 352 c 256
 193 374 183 392 158 392 c 256
 144 392 122 384 116 363 c 256
 109 340 113 340 106 323 c 256
 99 305 84 297 69 297 c 256
 35 297 29 328 29 340 c 256
 29 394 79 433 136 433 c 256
 186 433 220 402 220 356 c 256
 220 351 220 346 219 341 c 257
 247 360 284 384 355 406 c 256
 426 430 483 436 564 436 c 256
 587 436 645 433 682 421 c 257
 600 408 l 257
 589 409 568 409 558 409 c 256
 509 409 471 405 439 399 c 256
 356 385 294 361 219 308 c 257
 243 314 275 316 302 316 c 256
 422 316 515 251 515 126 c 256
 515 68 482 -1 397 -1 c 256
 351 -1 317 20 296 63 c 257
 279 22 246 -1 204 -1 c 256
 117 -1 120 73 87 73 c 256
 65 73 50 51 47 11 c 257
 21 22 l 257
498 165 m 256
 498 250 563 304 664 304 c 258
 725 304 l 257
 725 306 725 306 725 308 c 256
 725 362 691 395 654 395 c 256
 609 395 601 371 595 355 c 256
 588 336 580 323 558 323 c 256
 542 323 520 333 520 360 c 256
 520 403 571 432 626 432 c 256
 714 432 757 376 757 290 c 256
 757 287 757 283 757 280 c 257
 667 280 l 258
 593 280 533 245 533 180 c 256
 533 94 645 71 735 71 c 256
 888 71 979 158 979 300 c 256
 979 442 875 553 741 553 c 256
 662 553 599 525 554 470 c 257
 522 470 l 257
 571 540 643 577 741 577 c 256
 901 577 1013 443 1013 274 c 256
 1013 114 915 0 732 0 c 256
 611 0 498 46 498 165 c 256
70 95 m 257
 76 98 82 100 89 100 c 256
 118 100 142 71 199 71 c 256
 250 71 281 102 281 162 c 256
 281 164 281 161 281 163 c 257
 307 163 l 257
 307 162 307 163 307 162 c 256
 307 97 334 71 392 71 c 256
 454 71 474 123 474 159 c 256
 474 242 401 291 298 291 c 256
 241 291 203 282 182 273 c 257
 165 258 145 235 129 212 c 256
 100 171 81 132 70 95 c 257
EndSplineSet
EndChar

StartChar: si_Kh.halant
Encoding: 100 -1 183
GlifName: si_K_h.halant
Width: 630
VWidth: 0
Flags: HW
LayerCount: 2
Back
Fore
SplineSet
139 543 m 256
 139 531 163 526 163 515 c 256
 163 513 162 510 160 508 c 257
 193 514 233 519 279 519 c 256
 387 519 469 490 527 422 c 257
 494 537 400 590 284 590 c 256
 212 590 139 567 139 543 c 256
42 442 m 257
 42 473 l 257
 74 485 126 499 126 508 c 256
 126 520 98 524 98 546 c 256
 98 583 163 629 278 629 c 256
 486 629 557 490 569 356 c 257
 575 338 582 301 582 267 c 257
 543 275 l 257
 543 403 453 494 276 494 c 256
 200 494 123 480 42 442 c 257
93 72 m 256
 93 48 112 29 136 29 c 256
 160 29 179 48 179 72 c 256
 179 96 160 115 136 115 c 256
 112 115 93 96 93 72 c 256
32 183 m 256
 32 322 124 396 240 396 c 256
 333 396 413 343 413 258 c 256
 413 201 385 153 346 115 c 257
 349 116 352 116 355 116 c 256
 384 116 387 71 431 71 c 256
 483 71 543 187 543 280 c 257
 582 272 l 257
 582 139 516 0 416 0 c 256
 352 0 348 54 321 54 c 256
 308 54 282 34 240 -21 c 257
 204 -18 l 257
 217 -5 246 34 288 84 c 256
 340 146 367 194 367 232 c 256
 367 286 328 320 236 320 c 256
 156 320 63 272 63 156 c 256
 63 144 66 118 72 101 c 257
 80 129 108 145 135 145 c 256
 181 145 210 116 210 72 c 256
 210 37 180 -1 141 -1 c 256
 56 -1 32 108 32 183 c 256
EndSplineSet
EndChar

StartChar: si_KhI
Encoding: 101 -1 184
GlifName: si_K_hI_
Width: 630
VWidth: 0
Flags: HW
LayerCount: 2
Back
Fore
SplineSet
75 562 m 256
 75 652 206 670 306 670 c 256
 442 670 552 639 552 554 c 256
 552 502 498 480 464 474 c 257
 414 490 l 257
 450 491 505 506 505 544 c 256
 505 600 414 611 306 611 c 256
 230 611 117 606 117 554 c 256
 117 508 182 508 284 504 c 256
 349 501 443 499 498 459 c 256
 547 423 583 356 583 274 c 257
 544 286 l 257
 544 334 533 384 505 414 c 256
 452 472 386 472 285 478 c 256
 196 483 75 476 75 562 c 256
93 72 m 256
 93 48 112 29 136 29 c 256
 160 29 179 48 179 72 c 256
 179 96 160 115 136 115 c 256
 112 115 93 96 93 72 c 256
32 183 m 256
 32 322 124 396 240 396 c 256
 333 396 413 343 413 258 c 256
 413 201 385 153 346 115 c 257
 349 116 352 116 355 116 c 256
 384 116 390 71 434 71 c 256
 493 71 544 188 544 291 c 257
 583 276 l 257
 583 143 524 0 416 0 c 256
 352 0 348 54 321 54 c 256
 308 54 282 34 240 -21 c 257
 204 -18 l 257
 217 -5 246 34 288 84 c 256
 340 146 367 194 367 232 c 256
 367 286 328 320 236 320 c 256
 156 320 63 272 63 156 c 256
 63 144 66 118 72 101 c 257
 80 129 108 145 135 145 c 256
 181 145 210 116 210 72 c 256
 210 37 180 -1 141 -1 c 256
 56 -1 32 108 32 183 c 256
EndSplineSet
EndChar

StartChar: si_KhIi
Encoding: 102 -1 185
GlifName: si_K_hI_i
Width: 630
VWidth: 0
Flags: HW
LayerCount: 2
Back
Fore
SplineSet
400 555 m 256
 400 525 427 501 460 501 c 256
 493 501 520 525 520 555 c 256
 520 585 493 609 460 609 c 256
 427 609 400 585 400 555 c 256
75 562 m 256
 75 652 206 670 306 670 c 256
 442 670 552 639 552 558 c 256
 552 505 504 474 460 474 c 256
 416 474 368 505 368 558 c 256
 368 583 381 600 387 608 c 257
 380 609 348 611 306 611 c 256
 230 611 117 606 117 554 c 256
 117 508 182 508 284 504 c 256
 349 501 443 499 498 459 c 256
 547 423 583 356 583 274 c 257
 544 286 l 257
 544 334 533 384 505 414 c 256
 452 472 386 472 285 478 c 256
 196 483 75 476 75 562 c 256
93 72 m 256
 93 48 112 29 136 29 c 256
 160 29 179 48 179 72 c 256
 179 96 160 115 136 115 c 256
 112 115 93 96 93 72 c 256
32 183 m 256
 32 322 124 396 240 396 c 256
 333 396 413 343 413 258 c 256
 413 201 385 153 346 115 c 257
 349 116 352 116 355 116 c 256
 384 116 390 71 434 71 c 256
 493 71 544 188 544 291 c 257
 583 276 l 257
 583 143 524 0 416 0 c 256
 352 0 348 54 321 54 c 256
 308 54 282 34 240 -21 c 257
 204 -18 l 257
 217 -5 246 34 288 84 c 256
 340 146 367 194 367 232 c 256
 367 286 328 320 236 320 c 256
 156 320 63 272 63 156 c 256
 63 144 66 118 72 101 c 257
 80 129 108 145 135 145 c 256
 181 145 210 116 210 72 c 256
 210 37 180 -1 141 -1 c 256
 56 -1 32 108 32 183 c 256
EndSplineSet
EndChar

StartChar: si_KhR.halant
Encoding: 106 -1 186
GlifName: si_K_hR_.halant
Width: 630
VWidth: 0
Flags: HW
LayerCount: 2
Back
Fore
SplineSet
139 543 m 256
 139 531 163 526 163 515 c 256
 163 513 162 510 160 508 c 257
 193 514 233 519 279 519 c 256
 387 519 469 490 527 422 c 257
 494 537 400 590 284 590 c 256
 212 590 139 567 139 543 c 256
42 442 m 257
 42 473 l 257
 74 485 126 499 126 508 c 256
 126 520 98 524 98 546 c 256
 98 583 163 629 278 629 c 256
 486 629 557 490 569 356 c 257
 575 338 582 301 582 267 c 257
 543 275 l 257
 543 283 543 279 543 283 c 256
 543 409 445 494 276 494 c 256
 200 494 123 480 42 442 c 257
93 72 m 256
 93 48 112 29 136 29 c 256
 160 29 179 48 179 72 c 256
 179 96 160 115 136 115 c 256
 112 115 93 96 93 72 c 256
32 183 m 256
 32 322 124 396 240 396 c 256
 333 396 413 343 413 258 c 256
 413 201 385 153 346 115 c 257
 349 116 352 116 355 116 c 256
 384 116 387 71 431 71 c 256
 483 71 543 187 543 280 c 257
 582 272 l 257
 582 139 516 0 416 0 c 256
 352 0 348 54 321 54 c 256
 308 54 282 34 240 -21 c 257
 204 -18 l 257
 217 -5 246 34 288 84 c 256
 340 146 367 194 367 232 c 256
 367 286 328 320 236 320 c 256
 156 320 63 272 63 156 c 256
 63 144 66 118 72 101 c 257
 80 129 108 145 135 145 c 256
 181 145 210 116 210 72 c 256
 210 37 180 -1 141 -1 c 256
 56 -1 32 108 32 183 c 256
56 -44 m 257
 83 -44 l 257
 118 -119 188 -157 293 -157 c 256
 436 -157 554 -90 554 50 c 256
 554 71 549 93 542 102 c 257
 555 133 l 257
 573 106 582 75 582 38 c 256
 582 -124 453 -219 309 -219 c 256
 176 -219 93 -153 56 -44 c 257
EndSplineSet
EndChar

StartChar: si_KhRI
Encoding: 107 -1 187
GlifName: si_K_hR_I_
Width: 630
VWidth: 0
Flags: HW
LayerCount: 2
Back
Fore
SplineSet
56 -44 m 257
 83 -44 l 257
 118 -119 188 -157 293 -157 c 256
 436 -157 554 -90 554 50 c 256
 554 71 549 93 542 102 c 257
 555 133 l 257
 573 106 582 75 582 38 c 256
 582 -124 453 -219 309 -219 c 256
 176 -219 93 -153 56 -44 c 257
75 562 m 256
 75 652 206 670 306 670 c 256
 442 670 552 639 552 554 c 256
 552 502 498 480 464 474 c 257
 414 490 l 257
 450 491 505 506 505 544 c 256
 505 600 414 611 306 611 c 256
 230 611 117 606 117 554 c 256
 117 508 182 508 284 504 c 256
 349 501 443 499 498 459 c 256
 547 423 583 356 583 274 c 257
 544 286 l 257
 544 334 533 384 505 414 c 256
 452 472 386 472 285 478 c 256
 196 483 75 476 75 562 c 256
93 72 m 256
 93 48 112 29 136 29 c 256
 160 29 179 48 179 72 c 256
 179 96 160 115 136 115 c 256
 112 115 93 96 93 72 c 256
32 183 m 256
 32 322 124 396 240 396 c 256
 333 396 413 343 413 258 c 256
 413 201 385 153 346 115 c 257
 349 116 352 116 355 116 c 256
 384 116 390 71 434 71 c 256
 493 71 544 188 544 291 c 257
 583 276 l 257
 583 143 524 0 416 0 c 256
 352 0 348 54 321 54 c 256
 308 54 282 34 240 -21 c 257
 204 -18 l 257
 217 -5 246 34 288 84 c 256
 340 146 367 194 367 232 c 256
 367 286 328 320 236 320 c 256
 156 320 63 272 63 156 c 256
 63 144 66 118 72 101 c 257
 80 129 108 145 135 145 c 256
 181 145 210 116 210 72 c 256
 210 37 180 -1 141 -1 c 256
 56 -1 32 108 32 183 c 256
EndSplineSet
EndChar

StartChar: si_KhRIi
Encoding: 108 -1 188
GlifName: si_K_hR_I_i
Width: 630
VWidth: 0
Flags: HW
LayerCount: 2
Back
Fore
SplineSet
400 555 m 256
 400 525 427 501 460 501 c 256
 493 501 520 525 520 555 c 256
 520 585 493 609 460 609 c 256
 427 609 400 585 400 555 c 256
75 562 m 256
 75 652 206 670 306 670 c 256
 442 670 552 639 552 558 c 256
 552 505 504 474 460 474 c 256
 416 474 368 505 368 558 c 256
 368 583 381 600 387 608 c 257
 380 609 348 611 306 611 c 256
 230 611 117 606 117 554 c 256
 117 508 182 508 284 504 c 256
 349 501 443 499 498 459 c 256
 547 423 583 356 583 274 c 257
 544 286 l 257
 544 334 533 384 505 414 c 256
 452 472 386 472 285 478 c 256
 196 483 75 476 75 562 c 256
93 72 m 256
 93 48 112 29 136 29 c 256
 160 29 179 48 179 72 c 256
 179 96 160 115 136 115 c 256
 112 115 93 96 93 72 c 256
32 183 m 256
 32 322 124 396 240 396 c 256
 333 396 413 343 413 258 c 256
 413 201 385 153 346 115 c 257
 349 116 352 116 355 116 c 256
 384 116 390 71 434 71 c 256
 493 71 544 188 544 291 c 257
 583 276 l 257
 583 143 524 0 416 0 c 256
 352 0 348 54 321 54 c 256
 308 54 282 34 240 -21 c 257
 204 -18 l 257
 217 -5 246 34 288 84 c 256
 340 146 367 194 367 232 c 256
 367 286 328 320 236 320 c 256
 156 320 63 272 63 156 c 256
 63 144 66 118 72 101 c 257
 80 129 108 145 135 145 c 256
 181 145 210 116 210 72 c 256
 210 37 180 -1 141 -1 c 256
 56 -1 32 108 32 183 c 256
56 -44 m 257
 83 -44 l 257
 118 -119 188 -157 293 -157 c 256
 436 -157 554 -90 554 50 c 256
 554 71 549 93 542 102 c 257
 555 133 l 257
 573 106 582 75 582 38 c 256
 582 -124 453 -219 309 -219 c 256
 176 -219 93 -153 56 -44 c 257
EndSplineSet
EndChar

StartChar: si_KhRa
Encoding: 105 -1 189
GlifName: si_K_hR_a
Width: 630
VWidth: 0
Flags: HW
LayerCount: 2
Back
Fore
SplineSet
56 -44 m 257
 83 -44 l 257
 118 -119 188 -157 293 -157 c 256
 436 -157 554 -90 554 50 c 256
 554 71 549 93 542 102 c 257
 555 133 l 257
 573 106 582 75 582 38 c 256
 582 -124 453 -219 309 -219 c 256
 176 -219 93 -153 56 -44 c 257
EndSplineSet
Refer: 440 3483 N 1 0 0 1 0 0 2
EndChar

StartChar: si_KhU
Encoding: 103 -1 190
GlifName: si_K_hU_
Width: 630
VWidth: 0
Flags: HW
LayerCount: 2
Back
Fore
SplineSet
52 -142 m 256
 52 -90 98 -50 153 -50 c 256
 195 -50 232 -74 247 -110 c 257
 217 -122 l 257
 210 -102 186 -80 153 -80 c 256
 116 -80 85 -106 85 -142 c 256
 85 -171 108 -199 174 -199 c 258
 542 -199 l 257
 542 128 l 257
 575 219 l 257
 575 -235 l 257
 157 -235 l 258
 88 -235 52 -186 52 -142 c 256
EndSplineSet
Refer: 440 3483 N 1 0 0 1 0 0 2
EndChar

StartChar: si_KhUu
Encoding: 104 -1 191
GlifName: si_K_hU_u
Width: 630
VWidth: 0
Flags: HW
LayerCount: 2
Back
Fore
SplineSet
51 -138 m 256
 51 -80 100 -40 153 -40 c 256
 195 -40 227 -55 250 -91 c 257
 220 -102 l 257
 208 -83 187 -68 158 -68 c 256
 119 -68 87 -92 87 -129 c 256
 87 -166 118 -191 161 -191 c 256
 245 -191 328 -117 423 -117 c 256
 466 -117 515 -136 542 -168 c 257
 542 152 l 257
 575 212 l 257
 575 -231 l 257
 552 -231 l 257
 537 -195 494 -144 426 -144 c 256
 335 -144 260 -237 162 -237 c 256
 107 -237 51 -206 51 -138 c 256
EndSplineSet
Refer: 440 3483 N 1 0 0 1 0 0 2
EndChar

StartChar: si_L.halant
Encoding: 366 -1 192
GlifName: si_L_.halant
Width: 670
VWidth: 0
Flags: HW
LayerCount: 2
Back
Fore
SplineSet
472 413 m 257
 472 680 l 257
 526 638 622 633 622 541 c 256
 622 497 587 467 544 467 c 256
 529 467 514 470 499 477 c 257
 499 410 l 257
 472 413 l 257
499 502 m 257
 508 497 519 495 532 495 c 256
 570 495 585 520 585 544 c 256
 585 586 546 606 499 637 c 257
 499 502 l 257
EndSplineSet
Refer: 472 3517 N 1 0 0 1 0 0 2
EndChar

StartChar: si_LI
Encoding: 367 -1 193
GlifName: si_L_I_
Width: 670
VWidth: 0
Flags: HW
LayerCount: 2
Back
Fore
SplineSet
121 518 m 256
 121 626 234 671 353 671 c 256
 472 671 585 626 585 518 c 256
 585 443 519 408 442 405 c 257
 438 426 l 257
 492 429 551 454 551 509 c 256
 551 580 442 598 353 598 c 256
 264 598 155 580 155 509 c 256
 155 457 208 426 289 426 c 256
 296 426 294 426 301 426 c 257
 264 405 l 257
 187 408 121 443 121 518 c 256
EndSplineSet
Refer: 472 3517 N 1 0 0 1 0 0 2
EndChar

StartChar: si_LIi
Encoding: 368 -1 194
GlifName: si_L_I_i
Width: 670
VWidth: 0
Flags: HW
LayerCount: 2
Back
Fore
SplineSet
425 514 m 256
 425 483 455 458 491 458 c 256
 527 458 557 483 557 514 c 256
 557 545 527 570 491 570 c 256
 455 570 425 545 425 514 c 256
99 517 m 256
 99 626 215 671 342 671 c 256
 459 671 592 627 592 524 c 256
 592 469 547 429 491 429 c 256
 433 429 393 470 393 515 c 256
 393 560 425 582 444 591 c 257
 433 594 398 600 344 600 c 256
 250 600 140 579 140 500 c 256
 140 445 209 425 274 425 c 256
 283 425 311 427 320 428 c 257
 235 404 l 257
 170 404 99 446 99 517 c 256
EndSplineSet
Refer: 472 3517 N 1 0 0 1 0 0 2
EndChar

StartChar: si_LU
Encoding: 369 -1 195
GlifName: si_L_U_
Width: 670
VWidth: 0
Flags: HW
LayerCount: 2
Back
Fore
SplineSet
31 186 m 256
 31 342 169 432 364 432 c 256
 488 432 611 393 611 280 c 256
 611 210 553 171 485 171 c 256
 417 171 368 212 368 282 c 257
 265 282 l 257
 265 308 l 257
 518 308 l 257
 518 282 l 257
 396 282 l 257
 396 281 396 279 396 278 c 256
 396 242 438 216 486 216 c 256
 541 216 575 245 575 294 c 256
 575 373 489 404 370 404 c 256
 220 404 109 319 109 194 c 256
 109 70 223 -24 366 -24 c 256
 507 -24 574 74 575 126 c 257
 603 142 l 257
 603 26 494 -58 345 -58 c 256
 182 -58 31 36 31 186 c 256
36 -142 m 256
 36 -90 82 -50 137 -50 c 256
 179 -50 216 -74 231 -110 c 257
 201 -122 l 257
 194 -102 170 -80 137 -80 c 256
 100 -80 69 -106 69 -142 c 256
 69 -171 92 -199 158 -199 c 258
 570 -199 l 257
 570 47 l 257
 603 138 l 257
 603 -235 l 257
 141 -235 l 258
 72 -235 36 -186 36 -142 c 256
EndSplineSet
EndChar

StartChar: si_LUu
Encoding: 370 -1 196
GlifName: si_L_U_u
Width: 670
VWidth: 0
Flags: HW
LayerCount: 2
Back
Fore
SplineSet
42 -138 m 256
 42 -80 91 -40 144 -40 c 256
 186 -40 217 -55 240 -91 c 257
 210 -102 l 257
 198 -83 177 -68 148 -68 c 256
 109 -68 78 -92 78 -129 c 256
 78 -168 112 -191 159 -191 c 256
 249 -191 329 -117 442 -117 c 256
 497 -117 543 -137 570 -167 c 257
 570 84 l 257
 603 141 l 257
 603 -231 l 257
 580 -231 l 257
 565 -195 520 -144 446 -144 c 256
 341 -144 257 -237 160 -237 c 256
 105 -237 42 -206 42 -138 c 256
31 186 m 256
 31 342 169 432 364 432 c 256
 488 432 611 393 611 280 c 256
 611 210 553 171 485 171 c 256
 417 171 368 212 368 282 c 257
 265 282 l 257
 265 308 l 257
 518 308 l 257
 518 282 l 257
 396 282 l 257
 396 281 396 279 396 278 c 256
 396 242 438 216 486 216 c 256
 541 216 575 245 575 294 c 256
 575 373 489 404 370 404 c 256
 220 404 109 319 109 194 c 256
 109 70 223 -24 366 -24 c 256
 507 -24 574 74 575 126 c 257
 603 142 l 257
 603 26 494 -58 345 -58 c 256
 182 -58 31 36 31 186 c 256
EndSplineSet
EndChar

StartChar: si_Ll.halant
Encoding: 415 -1 197
GlifName: si_L_l.halant
Width: 636
VWidth: 0
Flags: HW
LayerCount: 2
Back
Fore
SplineSet
438 413 m 257
 438 680 l 257
 492 638 588 633 588 541 c 256
 588 497 553 467 510 467 c 256
 495 467 479 470 464 477 c 257
 464 410 l 257
 438 413 l 257
464 502 m 257
 473 497 485 495 498 495 c 256
 536 495 550 520 550 544 c 256
 550 586 511 606 464 637 c 257
 464 502 l 257
EndSplineSet
Refer: 478 3525 N 1 0 0 1 0 0 2
EndChar

StartChar: si_LlI
Encoding: 416 -1 198
GlifName: si_L_lI_
Width: 636
VWidth: 0
Flags: HW
LayerCount: 2
Back
Fore
SplineSet
102 518 m 256
 102 626 215 671 334 671 c 256
 453 671 566 626 566 518 c 256
 566 443 501 408 424 405 c 257
 424 426 l 257
 478 429 532 454 532 509 c 256
 532 580 423 598 334 598 c 256
 245 598 136 580 136 509 c 256
 136 457 186 425 267 425 c 256
 274 425 273 426 280 426 c 257
 246 405 l 257
 169 408 102 443 102 518 c 256
EndSplineSet
Refer: 478 3525 N 1 0 0 1 0 0 2
EndChar

StartChar: si_LlIi
Encoding: 417 -1 199
GlifName: si_L_lI_i
Width: 636
VWidth: 0
Flags: HW
LayerCount: 2
Back
Fore
SplineSet
413 514 m 256
 413 483 443 458 479 458 c 256
 515 458 545 483 545 514 c 256
 545 545 515 570 479 570 c 256
 443 570 413 545 413 514 c 256
87 517 m 256
 87 626 203 671 330 671 c 256
 447 671 580 627 580 524 c 256
 580 469 535 429 479 429 c 256
 421 429 381 470 381 515 c 256
 381 560 413 582 432 591 c 257
 421 594 386 600 332 600 c 256
 238 600 128 579 128 500 c 256
 128 445 197 425 262 425 c 256
 271 425 274 427 283 428 c 257
 223 404 l 257
 158 404 87 446 87 517 c 256
EndSplineSet
Refer: 478 3525 N 1 0 0 1 0 0 2
EndChar

StartChar: si_LlU
Encoding: 418 -1 200
GlifName: si_L_lU_
Width: 662
VWidth: 0
Flags: HW
LayerCount: 2
Back
Fore
SplineSet
114 165 m 256
 114 269 197 309 310 309 c 258
 330 309 l 257
 330 311 331 313 331 315 c 256
 331 358 301 395 264 395 c 256
 225 395 214 371 208 355 c 256
 201 336 192 323 170 323 c 256
 154 323 134 333 134 359 c 256
 134 406 183 432 238 432 c 256
 326 432 363 364 363 297 c 256
 363 294 362 287 362 284 c 257
 302 284 l 258
 209 284 152 246 152 180 c 256
 152 94 258 71 348 71 c 256
 501 71 582 148 582 267 c 256
 582 324 565 376 540 412 c 257
 525 379 495 359 452 359 c 256
 389 359 352 414 352 480 c 256
 352 530 367 566 394 597 c 257
 455 564 526 492 562 430 c 256
 601 363 614 315 614 245 c 256
 614 117 529 0 346 0 c 256
 225 0 114 46 114 165 c 256
382 484 m 256
 382 435 403 395 460 395 c 256
 484 395 512 406 522 440 c 257
 492 486 442 532 404 560 c 257
 392 542 382 519 382 484 c 256
27 248 m 256
 27 380 125 432 229 432 c 256
 237 432 257 431 276 426 c 257
 264 424 240 406 225 405 c 257
 208 404 192 404 172 399 c 256
 102 380 56 338 56 246 c 256
 56 165 104 93 178 74 c 257
 178 44 l 257
 86 68 27 147 27 248 c 256
EndSplineSet
EndChar

StartChar: si_LlUu
Encoding: 419 -1 201
GlifName: si_L_lU_u
Width: 929
VWidth: 0
Flags: HW
LayerCount: 2
Back
Fore
SplineSet
593 315 m 257
 593 339 l 257
 844 339 l 257
 844 317 l 257
 717 223 l 257
 867 223 l 257
 867 201 l 257
 821 168 754 96 754 13 c 256
 754 -74 812 -106 901 -106 c 257
 901 -131 l 257
 876 -142 849 -148 824 -148 c 256
 733 -148 685 -91 685 -12 c 256
 685 78 765 155 830 199 c 257
 667 199 l 257
 667 218 l 257
 800 315 l 257
 593 315 l 257
EndSplineSet
Refer: 200 -1 N 1 0 0 1 0 0 2
EndChar

StartChar: si_M.halant
Encoding: 332 -1 202
GlifName: si_M_.halant
Width: 635
VWidth: 0
Flags: HW
LayerCount: 2
Back
Fore
SplineSet
142 543 m 256
 142 531 166 526 166 515 c 256
 166 513 165 510 163 508 c 257
 196 514 236 519 282 519 c 256
 390 519 472 490 530 422 c 257
 497 537 403 590 287 590 c 256
 215 590 142 567 142 543 c 256
45 442 m 257
 45 473 l 257
 77 485 129 499 129 508 c 256
 129 520 101 524 101 546 c 256
 101 583 166 629 281 629 c 256
 489 629 560 490 572 356 c 257
 578 338 585 306 585 267 c 257
 546 274 l 257
 546 277 547 272 547 283 c 256
 547 409 448 494 279 494 c 256
 203 494 126 480 45 442 c 257
264 352 m 256
 264 325 286 303 313 303 c 256
 340 303 362 325 362 352 c 256
 362 379 340 401 313 401 c 256
 286 401 264 379 264 352 c 256
33 250 m 256
 33 339 79 432 156 432 c 256
 205 432 209 398 209 373 c 256
 209 346 204 338 204 302 c 256
 204 247 245 218 300 218 c 256
 360 218 401 255 401 314 c 256
 401 342 392 359 387 366 c 257
 389 356 389 351 389 343 c 256
 389 306 361 271 313 271 c 256
 262 271 233 315 233 351 c 256
 233 397 270 432 318 432 c 256
 387 432 431 382 431 306 c 256
 431 237 375 186 302 186 c 256
 242 186 173 216 173 295 c 256
 173 334 180 348 180 379 c 256
 180 391 176 405 154 405 c 256
 106 405 68 346 68 267 c 256
 68 134 173 71 308 71 c 256
 450 71 546 171 546 278 c 257
 556 275 573 274 585 272 c 257
 585 112 475 0 310 0 c 256
 143 0 33 94 33 250 c 256
EndSplineSet
EndChar

StartChar: si_MI
Encoding: 333 -1 203
GlifName: si_M_I_
Width: 635
VWidth: 0
Flags: HW
LayerCount: 2
Back
Fore
SplineSet
68 562 m 256
 68 652 203 670 303 670 c 256
 439 670 554 639 554 554 c 256
 554 502 500 480 466 474 c 257
 416 490 l 257
 452 491 506 506 506 544 c 256
 506 600 411 611 303 611 c 256
 227 611 110 606 110 554 c 256
 110 508 179 508 281 504 c 256
 346 501 445 499 500 459 c 256
 549 423 584 356 584 274 c 257
 546 296 l 257
 546 339 534 384 506 414 c 256
 451 473 383 473 282 478 c 256
 193 483 68 476 68 562 c 256
264 352 m 256
 264 325 286 303 313 303 c 256
 340 303 362 325 362 352 c 256
 362 379 340 401 313 401 c 256
 286 401 264 379 264 352 c 256
33 250 m 256
 33 339 79 432 156 432 c 256
 205 432 209 398 209 373 c 256
 209 346 204 338 204 302 c 256
 204 247 245 218 300 218 c 256
 360 218 401 255 401 314 c 256
 401 342 392 359 387 366 c 257
 389 356 389 351 389 343 c 256
 389 306 361 271 313 271 c 256
 262 271 233 315 233 351 c 256
 233 397 270 432 318 432 c 256
 387 432 431 382 431 306 c 256
 431 237 375 186 302 186 c 256
 242 186 173 216 173 295 c 256
 173 334 180 348 180 379 c 256
 180 391 176 405 154 405 c 256
 106 405 68 346 68 267 c 256
 68 134 173 71 308 71 c 256
 450 71 546 171 546 298 c 257
 556 295 572 280 584 278 c 257
 584 112 475 0 310 0 c 256
 143 0 33 94 33 250 c 256
EndSplineSet
EndChar

StartChar: si_MIi
Encoding: 334 -1 204
GlifName: si_M_I_i
Width: 635
VWidth: 0
Flags: HW
LayerCount: 2
Back
Fore
SplineSet
402 555 m 256
 402 525 429 501 462 501 c 256
 495 501 523 525 523 555 c 256
 523 585 495 609 462 609 c 256
 429 609 402 585 402 555 c 256
67 562 m 256
 67 652 202 670 302 670 c 256
 438 670 554 643 554 558 c 256
 554 505 506 474 462 474 c 256
 418 474 370 505 370 558 c 256
 370 583 383 600 389 608 c 257
 382 609 344 611 302 611 c 256
 226 611 109 606 109 554 c 256
 109 508 178 508 280 504 c 256
 345 501 423 499 484 469 c 256
 545 439 584 359 584 273 c 257
 546 301 l 257
 546 342 535 384 507 414 c 256
 454 472 383 472 282 478 c 256
 193 483 67 476 67 562 c 256
264 352 m 256
 264 325 286 303 313 303 c 256
 340 303 362 325 362 352 c 256
 362 379 340 401 313 401 c 256
 286 401 264 379 264 352 c 256
33 250 m 256
 33 339 79 432 156 432 c 256
 205 432 209 398 209 373 c 256
 209 346 204 338 204 302 c 256
 204 247 245 218 300 218 c 256
 360 218 401 255 401 314 c 256
 401 342 392 359 387 366 c 257
 389 356 389 351 389 343 c 256
 389 306 361 271 313 271 c 256
 262 271 233 315 233 351 c 256
 233 397 270 432 318 432 c 256
 387 432 431 382 431 306 c 256
 431 237 375 186 302 186 c 256
 242 186 173 216 173 295 c 256
 173 334 180 348 180 379 c 256
 180 391 176 405 154 405 c 256
 106 405 68 346 68 267 c 256
 68 134 173 71 308 71 c 256
 450 71 546 170 546 304 c 257
 556 301 572 280 584 278 c 257
 584 112 475 0 310 0 c 256
 143 0 33 94 33 250 c 256
EndSplineSet
EndChar

StartChar: si_MRI
Encoding: 339 -1 205
GlifName: si_M_R_I_
Width: 635
VWidth: 0
Flags: HW
LayerCount: 2
Back
Fore
SplineSet
68 562 m 256
 68 652 203 670 303 670 c 256
 439 670 554 639 554 554 c 256
 554 502 500 480 466 474 c 257
 416 490 l 257
 452 491 506 506 506 544 c 256
 506 600 411 611 303 611 c 256
 227 611 110 606 110 554 c 256
 110 508 179 508 281 504 c 256
 346 501 445 499 500 459 c 256
 549 423 584 356 584 274 c 257
 546 296 l 257
 546 339 534 384 506 414 c 256
 451 473 383 473 282 478 c 256
 193 483 68 476 68 562 c 256
264 352 m 256
 264 325 286 303 313 303 c 256
 340 303 362 325 362 352 c 256
 362 379 340 401 313 401 c 256
 286 401 264 379 264 352 c 256
33 250 m 256
 33 339 79 432 156 432 c 256
 205 432 209 398 209 373 c 256
 209 346 204 338 204 302 c 256
 204 247 245 218 300 218 c 256
 360 218 401 255 401 314 c 256
 401 342 392 359 387 366 c 257
 389 356 389 351 389 343 c 256
 389 306 361 271 313 271 c 256
 262 271 233 315 233 351 c 256
 233 397 270 432 318 432 c 256
 387 432 431 382 431 306 c 256
 431 237 375 186 302 186 c 256
 242 186 173 216 173 295 c 256
 173 334 180 348 180 379 c 256
 180 391 176 405 154 405 c 256
 106 405 68 346 68 267 c 256
 68 134 173 71 308 71 c 256
 450 71 546 171 546 298 c 257
 556 295 572 280 584 278 c 257
 584 112 475 0 310 0 c 256
 143 0 33 94 33 250 c 256
56 -44 m 257
 83 -44 l 257
 118 -119 188 -157 293 -157 c 256
 436 -157 552 -89 552 48 c 256
 552 73 545 101 533 110 c 257
 550 140 l 257
 570 113 582 75 582 38 c 256
 582 -124 453 -219 309 -219 c 256
 176 -219 93 -153 56 -44 c 257
EndSplineSet
EndChar

StartChar: si_MRIi
Encoding: 340 -1 206
GlifName: si_M_R_I_i
Width: 635
VWidth: 0
Flags: HW
LayerCount: 2
Back
Fore
SplineSet
402 555 m 256
 402 525 429 501 462 501 c 256
 495 501 523 525 523 555 c 256
 523 585 495 609 462 609 c 256
 429 609 402 585 402 555 c 256
67 562 m 256
 67 652 202 670 302 670 c 256
 438 670 554 643 554 558 c 256
 554 505 506 474 462 474 c 256
 418 474 370 505 370 558 c 256
 370 583 383 600 389 608 c 257
 382 609 344 611 302 611 c 256
 226 611 109 606 109 554 c 256
 109 508 178 508 280 504 c 256
 345 501 423 499 484 469 c 256
 545 439 584 359 584 273 c 257
 546 301 l 257
 546 342 535 384 507 414 c 256
 454 472 383 472 282 478 c 256
 193 483 67 476 67 562 c 256
264 352 m 256
 264 325 286 303 313 303 c 256
 340 303 362 325 362 352 c 256
 362 379 340 401 313 401 c 256
 286 401 264 379 264 352 c 256
33 250 m 256
 33 339 79 432 156 432 c 256
 205 432 209 398 209 373 c 256
 209 346 204 338 204 302 c 256
 204 247 245 218 300 218 c 256
 360 218 401 255 401 314 c 256
 401 342 392 359 387 366 c 257
 389 356 389 351 389 343 c 256
 389 306 361 271 313 271 c 256
 262 271 233 315 233 351 c 256
 233 397 270 432 318 432 c 256
 387 432 431 382 431 306 c 256
 431 237 375 186 302 186 c 256
 242 186 173 216 173 295 c 256
 173 334 180 348 180 379 c 256
 180 391 176 405 154 405 c 256
 106 405 68 346 68 267 c 256
 68 134 173 71 308 71 c 256
 450 71 546 170 546 304 c 257
 556 301 572 280 584 278 c 257
 584 112 475 0 310 0 c 256
 143 0 33 94 33 250 c 256
56 -44 m 257
 83 -44 l 257
 118 -119 188 -157 293 -157 c 256
 436 -157 552 -89 552 48 c 256
 552 73 545 101 533 110 c 257
 550 140 l 257
 570 113 582 75 582 38 c 256
 582 -124 453 -219 309 -219 c 256
 176 -219 93 -153 56 -44 c 257
EndSplineSet
EndChar

StartChar: si_MRa
Encoding: 338 -1 207
GlifName: si_M_R_a
Width: 635
VWidth: 0
Flags: HW
LayerCount: 2
Back
Fore
SplineSet
56 -44 m 257
 83 -44 l 257
 118 -119 188 -157 293 -157 c 256
 436 -157 552 -89 552 48 c 256
 552 73 545 101 533 110 c 257
 550 140 l 257
 570 113 582 75 582 38 c 256
 582 -124 453 -219 309 -219 c 256
 176 -219 93 -153 56 -44 c 257
EndSplineSet
Refer: 468 3512 N 1 0 0 1 0 0 2
EndChar

StartChar: si_MU
Encoding: 335 -1 208
GlifName: si_M_U_
Width: 635
VWidth: 0
Flags: HW
LayerCount: 2
Back
Fore
SplineSet
52 -142 m 256
 52 -90 98 -50 153 -50 c 256
 195 -50 232 -74 247 -110 c 257
 217 -122 l 257
 210 -102 186 -80 153 -80 c 256
 116 -80 85 -106 85 -142 c 256
 85 -171 108 -199 174 -199 c 258
 542 -199 l 257
 542 128 l 257
 575 219 l 257
 575 -235 l 257
 157 -235 l 258
 88 -235 52 -186 52 -142 c 256
EndSplineSet
Refer: 468 3512 N 1 0 0 1 0 0 2
EndChar

StartChar: si_MUu
Encoding: 336 -1 209
GlifName: si_M_U_u
Width: 635
VWidth: 0
Flags: HW
LayerCount: 2
Back
Fore
SplineSet
51 -138 m 256
 51 -80 100 -40 153 -40 c 256
 195 -40 227 -55 250 -91 c 257
 220 -102 l 257
 208 -83 187 -68 158 -68 c 256
 119 -68 87 -92 87 -129 c 256
 87 -166 118 -191 161 -191 c 256
 245 -191 328 -117 423 -117 c 256
 466 -117 515 -136 542 -168 c 257
 542 152 l 257
 575 212 l 257
 575 -231 l 257
 552 -231 l 257
 537 -195 494 -144 426 -144 c 256
 335 -144 260 -237 162 -237 c 256
 107 -237 51 -206 51 -138 c 256
EndSplineSet
Refer: 468 3512 N 1 0 0 1 0 0 2
EndChar

StartChar: si_Ma.reph
Encoding: 337 -1 210
GlifName: si_M_a.reph
Width: 635
VWidth: 0
Flags: HW
LayerCount: 2
Back
Fore
SplineSet
274 628 m 256
 274 607 292 591 314 591 c 256
 336 591 355 607 355 628 c 256
 355 649 336 665 314 665 c 256
 292 665 274 649 274 628 c 256
172 647 m 256
 172 711 230 748 312 748 c 256
 389 748 452 705 452 634 c 256
 452 610 445 588 428 569 c 257
 394 569 l 257
 407 581 422 606 422 633 c 256
 422 690 371 721 310 721 c 256
 257 721 203 700 203 647 c 256
 203 608 244 589 267 587 c 257
 259 593 246 608 246 629 c 256
 246 664 278 689 314 689 c 256
 355 689 382 662 382 627 c 256
 382 588 348 562 290 562 c 256
 231 562 172 591 172 647 c 256
EndSplineSet
Refer: 468 3512 N 1 0 0 1 0 0 2
EndChar

StartChar: si_MatraU.alt
Encoding: 86 -1 212
GlifName: si_M_atraU_.alt
Width: 2
VWidth: 0
Flags: HW
LayerCount: 2
Back
Fore
SplineSet
-314 -80 m 256
 -314 -30 -285 5 -245 21 c 257
 -236 1 l 257
 -259 -12 -276 -34 -276 -63 c 256
 -276 -109 -225 -132 -174 -132 c 256
 -113 -132 -68 -94 -68 -45 c 256
 -68 -42 -68 -39 -68 -36 c 257
 -37 -36 l 257
 -35 -45 -35 -61 -35 -70 c 256
 -35 -123 -78 -192 -179 -192 c 256
 -247 -192 -314 -149 -314 -80 c 256
EndSplineSet
EndChar

StartChar: si_MatraUu.alt
Encoding: 87 -1 213
GlifName: si_M_atraU_u.alt
Width: 746
VWidth: 0
Flags: HW
LayerCount: 2
Back
Fore
SplineSet
-294 -129 m 256
 -294 -93 -263 -71 -230 -67 c 257
 -285 -39 l 257
 -198 -14 l 257
 -234 0 l 257
 -234 21 l 257
 -140 -14 l 257
 -226 -43 l 257
 -166 -76 l 257
 -194 -83 -254 -85 -254 -115 c 256
 -254 -146 -212 -155 -170 -155 c 256
 -116 -155 -70 -131 -70 -82 c 256
 -70 -77 -71 -69 -76 -59 c 257
 -43 -59 l 257
 -39 -71 -39 -83 -39 -94 c 256
 -39 -161 -90 -205 -172 -205 c 256
 -230 -205 -294 -187 -294 -129 c 256
EndSplineSet
EndChar

StartChar: si_Mb.halant
Encoding: 341 -1 214
GlifName: si_M_b.halant
Width: 636
VWidth: 0
Flags: HW
LayerCount: 2
Back
Fore
SplineSet
30 227 m 256
 30 332 74 432 148 432 c 256
 167 432 173 428 180 423 c 256
 191 415 199 401 199 371 c 256
 199 357 199 340 199 337 c 256
 199 284 240 253 295 253 c 256
 348 253 389 281 389 326 c 256
 389 327 389 329 388 331 c 257
 382 318 359 289 318 289 c 256
 271 289 245 324 245 360 c 256
 245 402 277 434 322 434 c 256
 381 434 418 389 418 330 c 256
 418 268 367 224 296 224 c 256
 225 224 172 267 172 339 c 256
 172 344 172 363 172 372 c 256
 172 384 170 394 164 400 c 256
 160 404 154 406 145 406 c 256
 94 406 61 327 61 254 c 256
 61 159 108 72 191 72 c 256
 213 72 221 76 225 79 c 257
 223 87 222 101 222 108 c 256
 222 180 277 200 310 200 c 256
 343 200 398 180 398 108 c 256
 398 101 397 87 395 79 c 257
 399 76 407 72 429 72 c 256
 492 72 553 171 553 272 c 256
 553 301 548 328 539 352 c 256
 504 442 409 493 282 493 c 256
 206 493 123 480 42 442 c 257
 42 473 l 257
 74 485 126 499 126 508 c 256
 126 520 98 524 98 546 c 256
 98 583 163 629 278 629 c 256
 506 629 566 418 572 356 c 257
 583 330 590 294 590 249 c 256
 590 128 530 0 414 0 c 256
 390 0 371 4 350 17 c 257
 350 31 354 43 358 55 c 256
 363 71 369 87 369 108 c 256
 369 142 345 171 310 171 c 256
 275 171 251 142 251 108 c 256
 251 87 257 71 262 56 c 256
 266 43 270 31 270 17 c 257
 249 4 230 0 206 0 c 256
 88 0 30 117 30 227 c 256
139 543 m 256
 139 531 163 526 163 515 c 256
 163 513 162 510 160 508 c 257
 193 514 233 519 279 519 c 256
 387 519 472 490 530 422 c 257
 497 537 400 590 284 590 c 256
 212 590 139 567 139 543 c 256
274 363 m 256
 274 337 295 316 321 316 c 256
 347 316 368 337 368 363 c 256
 368 389 347 410 321 410 c 256
 295 410 274 389 274 363 c 256
EndSplineSet
EndChar

StartChar: si_MbI
Encoding: 342 -1 215
GlifName: si_M_bI_
Width: 636
VWidth: 0
Flags: HW
LayerCount: 2
Back
Fore
SplineSet
72 562 m 256
 72 652 208 670 308 670 c 256
 444 670 558 639 558 554 c 256
 558 502 504 480 470 474 c 257
 420 490 l 257
 456 491 511 506 511 544 c 256
 511 600 416 611 308 611 c 256
 232 611 114 606 114 554 c 256
 114 508 184 508 286 504 c 256
 351 501 444 501 504 459 c 256
 554 424 590 355 590 257 c 257
 554 284 l 257
 554 334 539 384 511 414 c 256
 456 473 387 473 286 478 c 256
 197 483 72 476 72 562 c 256
274 363 m 256
 274 337 295 316 321 316 c 256
 347 316 368 337 368 363 c 256
 368 389 347 410 321 410 c 256
 295 410 274 389 274 363 c 256
30 227 m 256
 30 332 74 432 148 432 c 256
 167 432 173 428 180 423 c 256
 191 415 199 401 199 371 c 256
 199 357 199 340 199 337 c 256
 199 284 240 253 295 253 c 256
 348 253 389 281 389 326 c 256
 389 327 389 329 388 331 c 257
 382 318 359 289 318 289 c 256
 271 289 245 324 245 360 c 256
 245 402 277 434 322 434 c 256
 381 434 418 389 418 330 c 256
 418 268 367 224 296 224 c 256
 225 224 172 267 172 339 c 256
 172 344 172 363 172 372 c 256
 172 392 168 406 145 406 c 256
 94 406 61 327 61 254 c 256
 61 159 108 72 191 72 c 256
 213 72 221 76 225 79 c 257
 223 87 222 101 222 108 c 256
 222 180 277 200 310 200 c 256
 343 200 398 180 398 108 c 256
 398 101 397 87 395 79 c 257
 399 76 407 72 429 72 c 256
 498 72 554 182 554 286 c 257
 590 262 l 257
 590 127 530 0 414 0 c 256
 390 0 371 4 350 17 c 257
 350 31 354 43 358 55 c 256
 363 71 369 87 369 108 c 256
 369 142 345 171 310 171 c 256
 275 171 251 142 251 108 c 256
 251 89 256 74 261 60 c 256
 266 46 270 33 270 17 c 257
 249 4 230 0 206 0 c 256
 88 0 30 117 30 227 c 256
EndSplineSet
EndChar

StartChar: si_MbIi
Encoding: 343 -1 216
GlifName: si_M_bI_i
Width: 636
VWidth: 0
Flags: HW
LayerCount: 2
Back
Fore
SplineSet
30 227 m 256
 30 332 74 432 148 432 c 256
 167 432 173 428 180 423 c 256
 191 415 199 401 199 371 c 256
 199 357 199 340 199 337 c 256
 199 284 240 253 295 253 c 256
 348 253 389 281 389 326 c 256
 389 327 389 329 388 331 c 257
 382 318 359 289 318 289 c 256
 271 289 245 324 245 360 c 256
 245 402 277 434 322 434 c 256
 381 434 418 389 418 330 c 256
 418 268 367 224 296 224 c 256
 225 224 172 267 172 339 c 256
 172 344 172 363 172 372 c 256
 172 392 168 406 145 406 c 256
 94 406 61 327 61 254 c 256
 61 159 108 72 191 72 c 256
 213 72 221 76 225 79 c 257
 223 87 222 101 222 108 c 256
 222 180 277 200 310 200 c 256
 343 200 398 180 398 108 c 256
 398 101 397 87 395 79 c 257
 399 76 407 72 429 72 c 256
 498 72 554 182 554 286 c 257
 590 278 l 257
 590 143 530 0 414 0 c 256
 390 0 371 4 350 17 c 257
 350 29 353 39 356 50 c 256
 362 67 369 85 369 108 c 256
 369 142 345 171 310 171 c 256
 275 171 251 142 251 108 c 256
 251 85 258 69 263 52 c 256
 267 41 270 30 270 17 c 257
 249 4 230 0 206 0 c 256
 88 0 30 117 30 227 c 256
274 363 m 256
 274 337 295 316 321 316 c 256
 347 316 368 337 368 363 c 256
 368 389 347 410 321 410 c 256
 295 410 274 389 274 363 c 256
407 555 m 260
 407 525 435 501 468 501 c 260
 501 501 528 525 528 555 c 260
 528 585 501 609 468 609 c 260
 435 609 407 585 407 555 c 260
72 562 m 256
 72 652 208 670 308 670 c 256
 444 670 560 643 560 558 c 256
 560 505 512 474 468 474 c 256
 424 474 376 505 376 558 c 256
 376 583 389 600 395 608 c 257
 388 609 350 611 308 611 c 256
 232 611 114 606 114 554 c 256
 114 508 184 508 286 504 c 256
 351 501 429 499 490 469 c 256
 551 439 590 359 590 273 c 257
 554 283 l 257
 554 331 541 384 513 414 c 256
 460 472 388 472 287 478 c 256
 198 483 72 476 72 562 c 256
EndSplineSet
EndChar

StartChar: si_MbU
Encoding: 344 -1 217
GlifName: si_M_bU_
Width: 636
VWidth: 0
Flags: HW
LayerCount: 2
Back
Fore
SplineSet
52 -142 m 256
 52 -90 98 -50 153 -50 c 256
 195 -50 232 -74 247 -110 c 257
 217 -122 l 257
 210 -102 186 -80 153 -80 c 256
 116 -80 85 -106 85 -142 c 256
 85 -171 108 -199 174 -199 c 258
 542 -199 l 257
 542 128 l 257
 575 219 l 257
 575 -235 l 257
 157 -235 l 258
 88 -235 52 -186 52 -142 c 256
EndSplineSet
Refer: 469 3513 N 1 0 0 1 0 0 2
EndChar

StartChar: si_MbUu
Encoding: 345 -1 218
GlifName: si_M_bU_u
Width: 636
VWidth: 0
Flags: HW
LayerCount: 2
Back
Fore
SplineSet
51 -138 m 256
 51 -80 100 -40 153 -40 c 256
 195 -40 227 -55 250 -91 c 257
 220 -102 l 257
 208 -83 187 -68 158 -68 c 256
 119 -68 87 -92 87 -129 c 256
 87 -166 118 -191 161 -191 c 256
 245 -191 328 -117 423 -117 c 256
 466 -117 515 -136 542 -168 c 257
 542 152 l 257
 575 212 l 257
 575 -231 l 257
 552 -231 l 257
 537 -195 494 -144 426 -144 c 256
 335 -144 260 -237 162 -237 c 256
 107 -237 51 -206 51 -138 c 256
EndSplineSet
Refer: 469 3513 N 1 0 0 1 0 0 2
EndChar

StartChar: si_N.halant
Encoding: 283 -1 219
GlifName: si_N_.halant
Width: 806
VWidth: 0
Flags: HW
LayerCount: 2
Back
Fore
SplineSet
607 347 m 257
 607 680 l 257
 661 638 757 633 757 541 c 256
 757 497 722 467 679 467 c 256
 664 467 649 470 634 477 c 257
 634 330 l 257
 607 347 l 257
634 502 m 257
 643 497 654 495 667 495 c 256
 705 495 720 520 720 544 c 256
 720 586 681 606 634 637 c 257
 634 502 l 257
EndSplineSet
Refer: 462 3505 N 1 0 0 1 0 0 2
EndChar

StartChar: si_ND.halant
Encoding: 455 -1 220
GlifName: si_N_D_.halant
Width: 894
VWidth: 0
Flags: HW
LayerCount: 2
Back
Fore
SplineSet
703 413 m 261
 703 680 l 261
 757 638 853 633 853 541 c 260
 853 497 818 467 775 467 c 260
 760 467 745 470 730 477 c 261
 730 396 l 261
 703 413 l 261
730 502 m 261
 739 497 750 495 763 495 c 260
 801 495 816 520 816 544 c 260
 816 586 777 606 730 637 c 261
 730 502 l 261
EndSplineSet
Refer: 231 -1 N 1 0 0 1 0 0 2
EndChar

StartChar: si_NDAa
Encoding: 456 -1 221
GlifName: si_N_D_A_a
Width: 929
VWidth: 0
Flags: HW
LayerCount: 2
Back
Fore
SplineSet
27 124 m 257
 41 118 53 115 63 115 c 256
 124 115 130 201 207 278 c 257
 222 293 226 314 226 327 c 256
 226 365 210 389 176 389 c 256
 147 389 135 367 134 345 c 256
 133 326 125 297 93 297 c 256
 69 297 55 315 55 341 c 256
 55 383 89 431 154 431 c 256
 224 431 253 380 253 333 c 256
 253 332 253 322 251 315 c 257
 308 369 401 436 591 436 c 256
 616 436 675 436 710 429 c 257
 606 408 l 257
 597 408 595 409 585 409 c 256
 428 409 339 361 266 295 c 257
 292 304 317 308 345 308 c 256
 429 308 498 249 498 169 c 256
 498 53 398 -1 276 -1 c 256
 150 -1 67 41 27 124 c 257
107 102 m 257
 153 82 206 72 264 72 c 256
 374 72 454 110 454 190 c 256
 454 246 399 284 338 284 c 256
 160 284 180 144 107 102 c 257
EndSplineSet
Refer: 41 -1 N 1 0 0 1 439 0 2
EndChar

StartChar: si_NDAe
Encoding: 457 -1 222
GlifName: si_N_D_A_e
Width: 917
VWidth: 0
Flags: HW
LayerCount: 2
Back
Fore
SplineSet
27 124 m 257
 41 118 53 115 63 115 c 256
 124 115 130 201 207 278 c 257
 222 293 226 314 226 327 c 256
 226 365 210 389 176 389 c 256
 147 389 135 367 134 345 c 256
 133 326 125 297 93 297 c 256
 69 297 55 315 55 341 c 256
 55 383 89 431 154 431 c 256
 224 431 253 380 253 333 c 256
 253 332 253 322 251 315 c 257
 308 369 401 436 591 436 c 256
 616 436 675 436 710 429 c 257
 691 425 618 408 606 408 c 257
 597 408 595 409 585 409 c 256
 428 409 339 361 266 295 c 257
 292 304 317 308 345 308 c 256
 429 308 498 249 498 169 c 256
 498 53 398 -1 276 -1 c 256
 150 -1 67 41 27 124 c 257
107 102 m 257
 153 82 206 72 264 72 c 256
 374 72 454 110 454 190 c 256
 454 246 399 284 338 284 c 256
 160 284 180 144 107 102 c 257
EndSplineSet
Refer: 44 -1 N 1 0 0 1 439 0 2
EndChar

StartChar: si_NDAee
Encoding: 458 -1 223
GlifName: si_N_D_A_ee
Width: 913
VWidth: 0
Flags: HW
LayerCount: 2
Back
Fore
SplineSet
27 124 m 257
 41 118 53 115 63 115 c 256
 124 115 130 201 207 278 c 257
 222 293 226 314 226 327 c 256
 226 365 210 389 176 389 c 256
 147 389 135 367 134 345 c 256
 133 326 125 297 93 297 c 256
 69 297 55 315 55 341 c 256
 55 383 89 431 154 431 c 256
 224 431 253 380 253 333 c 256
 253 332 253 322 251 315 c 257
 308 369 401 436 591 436 c 256
 616 436 675 436 710 429 c 257
 691 425 618 408 606 408 c 257
 597 408 595 409 585 409 c 256
 428 409 339 361 266 295 c 257
 292 304 317 308 345 308 c 256
 429 308 498 249 498 169 c 256
 498 53 398 -1 276 -1 c 256
 150 -1 67 41 27 124 c 257
107 102 m 257
 153 82 206 72 264 72 c 256
 374 72 454 110 454 190 c 256
 454 246 399 284 338 284 c 256
 160 284 180 144 107 102 c 257
EndSplineSet
Refer: 43 -1 N 1 0 0 1 439 0 2
EndChar

StartChar: si_NDI
Encoding: 459 -1 224
GlifName: si_N_D_I_
Width: 894
VWidth: 0
Flags: HW
LayerCount: 2
Back
Fore
SplineSet
474 520 m 256
 474 621 565 671 662 671 c 256
 759 671 849 617 849 518 c 256
 849 443 786 406 734 405 c 257
 722 426 l 257
 776 426 819 462 819 509 c 256
 819 571 734 598 662 598 c 256
 590 598 505 573 505 509 c 256
 505 469 540 440 587 436 c 257
 530 432 l 257
 521 432 474 458 474 520 c 256
EndSplineSet
Refer: 231 -1 N 1 0 0 1 0 0 2
EndChar

StartChar: si_NDIi
Encoding: 460 -1 225
GlifName: si_N_D_I_i
Width: 894
VWidth: 0
Flags: HW
LayerCount: 2
Back
Fore
SplineSet
685 514 m 256
 685 483 715 458 751 458 c 256
 787 458 817 483 817 514 c 256
 817 545 787 570 751 570 c 256
 715 570 685 545 685 514 c 256
474 518 m 256
 474 619 565 671 662 671 c 256
 759 671 849 615 849 523 c 256
 849 464 802 429 751 429 c 256
 691 429 653 470 653 515 c 256
 653 560 689 587 716 592 c 257
 705 595 676 598 662 598 c 256
 590 598 505 573 505 509 c 256
 505 464 543 436 596 436 c 257
 529 432 l 257
 521 434 474 455 474 518 c 256
EndSplineSet
Refer: 231 -1 N 1 0 0 1 0 0 2
EndChar

StartChar: si_NDRI
Encoding: 464 -1 226
GlifName: si_N_D_R_I_
Width: 894
VWidth: 0
Flags: HW
LayerCount: 2
Back
Fore
SplineSet
474 520 m 260
 474 621 565 671 662 671 c 260
 759 671 849 617 849 518 c 260
 849 443 786 406 734 405 c 261
 722 426 l 261
 776 426 819 462 819 509 c 260
 819 571 734 598 662 598 c 260
 590 598 505 573 505 509 c 260
 505 469 540 440 587 436 c 261
 530 432 l 261
 521 432 474 458 474 520 c 260
472 -43 m 257
 497 -43 l 257
 519 -112 565 -142 642 -142 c 256
 746 -142 821 -72 821 51 c 256
 821 72 820 66 819 74 c 257
 846 79 l 257
 846 59 846 76 846 39 c 256
 846 -109 759 -204 654 -204 c 256
 549 -204 492 -145 472 -43 c 257
470 169 m 256
 470 274 543 317 662 317 c 258
 782 317 l 257
 772 363 742 396 698 396 c 256
 679 396 664 384 655 366 c 256
 645 344 629 336 614 336 c 256
 589 336 576 351 576 372 c 256
 576 408 615 433 670 433 c 256
 756 433 800 389 818 294 c 257
 680 294 l 258
 592 294 546 257 546 173 c 256
 546 89 617 27 700 27 c 256
 746 27 789 50 822 92 c 257
 846 79 l 257
 806 34 766 -1 672 -1 c 256
 541 -1 470 69 470 169 c 256
27 124 m 257
 41 118 53 115 63 115 c 256
 124 115 130 201 207 278 c 257
 222 293 226 314 226 327 c 256
 226 365 210 389 176 389 c 256
 147 389 135 367 134 345 c 256
 133 326 125 297 93 297 c 256
 69 297 55 315 55 341 c 256
 55 383 89 431 154 431 c 256
 224 431 253 380 253 333 c 256
 253 332 253 322 251 315 c 257
 308 369 401 436 591 436 c 256
 616 436 675 436 710 429 c 257
 691 425 618 408 606 408 c 257
 597 408 595 409 585 409 c 256
 428 409 339 361 266 295 c 257
 292 304 317 308 345 308 c 256
 429 308 498 249 498 169 c 256
 498 53 398 -1 276 -1 c 256
 150 -1 67 41 27 124 c 257
107 102 m 257
 153 82 206 72 264 72 c 256
 374 72 454 110 454 190 c 256
 454 246 399 284 338 284 c 256
 160 284 180 144 107 102 c 257
EndSplineSet
EndChar

StartChar: si_NDRIi
Encoding: 465 -1 227
GlifName: si_N_D_R_I_i
Width: 894
VWidth: 0
Flags: HW
LayerCount: 2
Back
Fore
SplineSet
685 514 m 256
 685 483 715 458 751 458 c 256
 787 458 817 483 817 514 c 256
 817 545 787 570 751 570 c 256
 715 570 685 545 685 514 c 256
474 518 m 256
 474 619 565 671 662 671 c 256
 759 671 849 615 849 523 c 256
 849 464 802 429 751 429 c 256
 691 429 653 470 653 515 c 256
 653 560 689 587 716 592 c 257
 705 595 676 598 662 598 c 256
 590 598 505 573 505 509 c 256
 505 464 543 436 596 436 c 257
 529 432 l 257
 521 434 474 455 474 518 c 256
472 -43 m 257
 497 -43 l 257
 519 -112 565 -142 642 -142 c 256
 746 -142 821 -72 821 51 c 256
 821 72 820 66 819 74 c 257
 846 79 l 257
 846 59 846 76 846 39 c 256
 846 -109 759 -204 654 -204 c 256
 549 -204 492 -145 472 -43 c 257
470 169 m 256
 470 274 543 317 662 317 c 258
 782 317 l 257
 772 363 742 396 698 396 c 256
 679 396 664 384 655 366 c 256
 645 344 629 336 614 336 c 256
 589 336 576 351 576 372 c 256
 576 408 615 433 670 433 c 256
 756 433 800 389 818 294 c 257
 680 294 l 258
 592 294 546 257 546 173 c 256
 546 89 617 27 700 27 c 256
 746 27 789 50 822 92 c 257
 846 79 l 257
 806 34 766 -1 672 -1 c 256
 541 -1 470 69 470 169 c 256
27 124 m 257
 41 118 53 115 63 115 c 256
 124 115 130 201 207 278 c 257
 222 293 226 314 226 327 c 256
 226 365 210 389 176 389 c 256
 147 389 135 367 134 345 c 256
 133 326 125 297 93 297 c 256
 69 297 55 315 55 341 c 256
 55 383 89 431 154 431 c 256
 224 431 253 380 253 333 c 256
 253 332 253 322 251 315 c 257
 308 369 401 436 591 436 c 256
 616 436 675 436 710 429 c 257
 691 425 618 408 606 408 c 257
 597 408 595 409 585 409 c 256
 428 409 339 361 266 295 c 257
 292 304 317 308 345 308 c 256
 429 308 498 249 498 169 c 256
 498 53 398 -1 276 -1 c 256
 150 -1 67 41 27 124 c 257
107 102 m 257
 153 82 206 72 264 72 c 256
 374 72 454 110 454 190 c 256
 454 246 399 284 338 284 c 256
 160 284 180 144 107 102 c 257
EndSplineSet
EndChar

StartChar: si_NDRa
Encoding: 463 -1 228
GlifName: si_N_D_R_a
Width: 894
VWidth: 0
Flags: HW
LayerCount: 2
Back
Fore
SplineSet
472 -43 m 257
 497 -43 l 257
 519 -112 565 -142 642 -142 c 256
 746 -142 821 -72 821 51 c 256
 821 72 820 66 819 74 c 257
 846 79 l 257
 846 59 846 76 846 39 c 256
 846 -109 759 -204 654 -204 c 256
 549 -204 492 -145 472 -43 c 257
470 169 m 256
 470 274 543 317 662 317 c 258
 782 317 l 257
 772 363 742 396 698 396 c 256
 679 396 664 384 655 366 c 256
 645 344 629 336 614 336 c 256
 589 336 576 351 576 372 c 256
 576 408 615 433 670 433 c 256
 756 433 800 389 818 294 c 257
 680 294 l 258
 592 294 546 257 546 173 c 256
 546 89 617 27 700 27 c 256
 746 27 789 50 822 92 c 257
 846 79 l 257
 806 34 766 -1 672 -1 c 256
 541 -1 470 69 470 169 c 256
27 124 m 257
 41 118 53 115 63 115 c 256
 124 115 130 201 207 278 c 257
 222 293 226 314 226 327 c 256
 226 365 210 389 176 389 c 256
 147 389 135 367 134 345 c 256
 133 326 125 297 93 297 c 256
 69 297 55 315 55 341 c 256
 55 383 89 431 154 431 c 256
 224 431 253 380 253 333 c 256
 253 332 253 322 251 315 c 257
 308 369 401 436 591 436 c 256
 616 436 675 436 710 429 c 257
 691 425 618 408 606 408 c 257
 597 408 595 409 585 409 c 256
 428 409 339 361 266 295 c 257
 292 304 317 308 345 308 c 256
 429 308 498 249 498 169 c 256
 498 53 398 -1 276 -1 c 256
 150 -1 67 41 27 124 c 257
107 102 m 257
 153 82 206 72 264 72 c 256
 374 72 454 110 454 190 c 256
 454 246 399 284 338 284 c 256
 160 284 180 144 107 102 c 257
EndSplineSet
EndChar

StartChar: si_NDU
Encoding: 461 -1 229
GlifName: si_N_D_U_
Width: 894
VWidth: 0
Flags: HW
LayerCount: 2
Back
Fore
SplineSet
471 -142 m 256
 471 -90 518 -50 573 -50 c 256
 615 -50 652 -74 667 -110 c 257
 637 -122 l 257
 630 -102 606 -80 573 -80 c 256
 536 -80 505 -106 505 -142 c 256
 505 -171 528 -199 594 -199 c 258
 812 -199 l 257
 812 69 l 257
 845 79 l 257
 845 -235 l 257
 577 -235 l 258
 508 -235 471 -186 471 -142 c 256
470 169 m 256
 470 274 543 317 662 317 c 258
 782 317 l 257
 772 363 742 396 698 396 c 256
 679 396 664 384 655 366 c 256
 645 344 629 336 614 336 c 256
 589 336 576 351 576 372 c 256
 576 408 615 433 670 433 c 256
 756 433 800 389 818 294 c 257
 680 294 l 258
 592 294 546 257 546 173 c 256
 546 89 617 27 700 27 c 256
 746 27 789 50 822 92 c 257
 846 79 l 257
 806 34 766 -1 672 -1 c 256
 541 -1 470 69 470 169 c 256
27 124 m 257
 41 118 53 115 63 115 c 256
 124 115 130 201 207 278 c 257
 222 293 226 314 226 327 c 256
 226 365 210 389 176 389 c 256
 147 389 135 367 134 345 c 256
 133 326 125 297 93 297 c 256
 69 297 55 315 55 341 c 256
 55 383 89 431 154 431 c 256
 224 431 253 380 253 333 c 256
 253 332 253 322 251 315 c 257
 308 369 401 436 591 436 c 256
 616 436 675 436 710 429 c 257
 691 425 618 408 606 408 c 257
 597 408 595 409 585 409 c 256
 428 409 339 361 266 295 c 257
 292 304 317 308 345 308 c 256
 429 308 498 249 498 169 c 256
 498 53 398 -1 276 -1 c 256
 150 -1 67 41 27 124 c 257
107 102 m 257
 153 82 206 72 264 72 c 256
 374 72 454 110 454 190 c 256
 454 246 399 284 338 284 c 256
 160 284 180 144 107 102 c 257
EndSplineSet
EndChar

